<svg width="288" height="578" viewBox="0 0 288 578" fill="none" xmlns="http://www.w3.org/2000/svg">
<g opacity="0.07">
<path d="M265.885 396.567C261.895 394.857 261.895 390.867 260.185 387.448C257.905 384.028 255.625 382.318 251.636 384.028C259.045 377.758 255.625 369.779 254.485 362.37C254.485 361.8 254.485 360.66 253.346 360.66C252.776 360.66 251.636 361.8 251.636 362.37C251.636 366.929 253.345 372.059 251.066 374.908C249.356 377.188 244.796 377.758 241.946 381.178C235.107 389.727 229.407 398.277 225.418 408.536C224.848 410.246 224.278 412.526 221.998 411.956C220.288 411.386 221.428 409.106 221.998 407.396C227.697 395.427 233.967 384.598 243.656 375.478C246.506 373.199 248.216 370.349 247.646 366.359C247.076 362.939 247.646 360.66 243.086 363.509C239.667 365.219 240.807 361.23 240.237 359.52C239.667 358.38 239.667 356.67 238.527 357.24C237.387 357.24 236.817 358.95 237.957 360.09C240.236 362.369 237.957 363.509 236.247 364.649C227.128 372.629 219.148 381.748 213.449 392.577C212.879 393.717 212.309 394.857 211.169 394.287C208.889 393.147 211.169 391.437 211.169 390.867C214.018 385.168 217.438 380.038 221.428 374.908C222.568 373.199 224.278 372.059 224.848 370.349C225.988 367.499 227.128 363.509 224.848 361.8C223.708 360.66 220.858 364.649 219.148 366.359C212.879 372.059 206.609 378.328 204.329 387.448C204.329 388.587 203.759 390.297 202.049 389.727C199.77 389.157 201.48 387.447 201.48 386.308C203.19 380.608 206.609 375.479 211.169 370.919C212.878 369.209 215.158 368.069 215.158 365.789C215.728 363.509 216.298 359.52 214.589 358.38C212.879 357.24 211.739 361.23 210.029 362.37C204.899 366.929 201.48 372.059 198.63 378.328C198.06 378.898 197.49 380.038 196.35 379.468C195.21 378.898 195.78 377.758 196.35 377.188C198.06 372.629 201.48 368.639 204.329 365.219C206.039 362.939 207.179 360.09 206.609 357.24C206.039 355.53 204.899 356.1 203.759 356.67C203.189 356.67 202.619 356.67 202.619 355.53C204.329 349.83 200.909 351.54 198.06 352.68C193.5 354.39 191.79 359.52 189.51 362.939C188.37 364.649 188.37 369.209 185.521 368.069C183.811 367.499 186.661 363.509 187.801 361.23C188.94 358.95 190.65 356.67 192.36 353.82C192.93 353.25 194.64 352.11 193.5 350.97C192.93 350.4 191.22 350.4 190.081 350.97C186.661 353.25 184.951 356.67 182.671 360.09C181.531 361.229 180.961 364.079 179.251 363.509C176.971 362.369 179.821 360.66 179.821 359.52C180.391 356.1 186.091 353.82 183.811 350.4C182.671 348.121 177.541 348.691 174.121 348.121C162.722 345.841 151.893 342.991 141.064 337.861C138.214 336.721 134.795 336.151 131.945 336.151C130.805 336.151 128.525 337.291 127.955 336.151C127.385 333.872 130.235 335.011 130.805 334.442C133.085 332.732 130.235 332.732 129.665 332.732C119.976 331.592 110.287 328.172 100.597 331.022C97.7475 331.592 96.0375 332.732 95.4676 335.582C93.7577 341.851 91.478 347.551 89.1982 353.82C88.6282 354.96 88.6282 357.81 86.3484 357.24C84.6385 356.67 86.3484 354.96 86.3484 353.25C88.6282 346.981 90.338 340.711 92.6178 334.442C93.1878 333.302 93.7578 332.162 92.048 331.592C90.9081 331.022 89.7682 332.162 89.1982 332.732C85.7785 339.571 82.9287 346.411 81.7888 353.82C81.7888 354.96 81.7886 357.24 80.0787 357.24C77.2289 356.67 78.9391 354.39 78.9391 353.25C79.509 346.981 82.3587 341.281 85.2084 335.582C85.7784 333.872 86.9182 332.732 86.9182 331.022C86.9182 328.172 86.9184 328.172 90.3382 328.742C96.0377 329.882 101.737 330.452 107.437 329.312C118.836 327.032 130.235 331.022 141.634 332.732C161.013 335.582 179.821 341.851 199.2 342.421C223.138 342.421 246.506 338.431 269.304 331.592C273.294 330.452 276.144 330.452 280.134 330.452C290.963 330.452 298.942 328.172 305.782 317.343C321.17 292.835 328.01 267.187 325.16 238.689C324.59 234.699 324.02 230.14 325.16 225.58C327.44 216.461 323.45 209.051 317.181 203.352C312.051 198.792 306.352 195.942 300.082 193.662C285.833 188.533 271.584 183.973 258.475 177.134C254.486 175.424 253.346 176.564 251.636 179.414C243.086 194.802 233.967 209.621 224.278 224.44C221.428 228.43 223.138 230.14 227.128 231.28C222.568 231.28 218.008 235.839 212.309 231.849C209.459 230.14 204.899 229 200.909 228.43C196.35 227.86 191.79 227.29 188.941 231.849C188.371 232.989 187.23 234.129 185.521 232.989C185.521 232.989 186.661 231.28 187.231 230.14C201.48 214.181 212.878 196.512 225.418 179.414C231.687 171.434 236.817 162.315 239.666 153.196C244.226 139.517 239.667 120.708 223.138 113.299C220.288 112.159 217.438 111.019 215.729 108.169C214.589 105.889 211.169 104.749 208.319 104.749C198.63 103.039 188.94 101.899 179.251 104.749C178.111 104.749 176.971 105.319 176.401 104.179C176.971 103.609 178.111 103.609 178.681 103.039C188.371 100.19 198.06 100.76 207.749 102.469C217.438 104.179 217.438 104.179 220.858 95.0599C225.988 80.811 234.537 68.2721 242.516 55.1631C248.786 43.7639 253.915 31.7948 261.895 21.5356C265.315 16.976 267.595 12.4164 272.724 9.56657C274.434 11.8464 276.144 9.56654 277.284 8.99658C282.983 11.8464 278.994 15.2662 277.284 16.976C267.025 27.8052 261.895 42.0541 253.915 54.0232C252.775 55.1631 255.055 54.0232 255.055 54.0232C257.905 54.0232 259.615 55.163 260.755 57.4429C261.895 59.7227 261.325 62.0025 259.615 63.7124C256.765 65.9922 256.195 68.842 253.915 71.1219C253.345 71.6918 252.776 72.2617 252.776 73.4016C252.206 73.9716 252.206 74.5416 251.636 75.1115C251.636 74.5416 252.206 73.9716 252.776 73.4016C253.346 72.8317 253.915 71.6918 253.915 71.1219C261.895 62.5725 267.594 52.8832 274.434 43.7639C276.144 41.4841 278.994 40.9142 278.424 36.9245C277.854 34.0747 280.133 31.2249 283.553 29.515C285.263 28.3751 281.273 25.5253 284.123 23.2455C286.403 21.5356 288.113 19.2558 291.533 20.3957L292.102 19.8258C290.393 16.976 291.533 15.2661 294.382 14.6961C295.522 15.2661 294.382 14.1262 294.952 14.6961C294.952 14.1262 294.382 14.1262 294.382 14.1262C294.952 6.14685 290.963 5.00692 284.123 6.71679C281.273 7.28675 278.424 6.71676 276.144 8.99658C275.004 9.56654 273.864 10.1365 272.724 8.99658C278.994 0.44724 288.113 -2.40252 298.372 2.15713C307.491 6.14682 312.621 15.2661 310.911 24.3854C310.341 30.0849 306.351 34.0746 303.502 38.6343C286.973 63.7124 269.304 87.6506 248.786 108.739C245.366 112.159 244.226 114.438 247.646 118.998C251.066 122.988 253.346 127.547 256.195 132.107C263.035 143.506 263.605 154.905 258.475 166.874C256.195 172.004 257.335 174.284 261.895 175.994C272.154 181.123 282.983 185.113 293.812 188.533C303.502 191.953 313.191 194.802 320.6 201.642C326.3 206.771 329.72 213.041 329.72 220.45C329.72 231.279 330.859 242.109 331.999 252.938C332.569 263.767 330.859 274.026 326.3 283.715C321.74 292.835 319.46 302.524 314.901 311.643C313.191 315.063 312.621 320.763 313.761 324.752C319.46 349.26 316.041 372.629 309.201 395.997C301.792 419.365 305.781 441.593 313.761 463.252C319.46 478.64 325.16 494.029 330.29 509.418C333.709 519.677 340.549 526.517 350.808 531.076C357.077 533.926 360.497 538.486 362.207 545.325C362.777 547.605 359.927 551.595 365.057 552.165C365.627 552.165 365.627 552.735 365.627 553.305C365.057 553.875 363.917 554.445 363.347 554.445C353.088 557.294 342.259 559.004 331.999 558.434C326.87 557.864 321.17 560.144 317.181 559.004C306.921 555.015 298.372 557.864 289.823 562.994C289.253 563.564 288.113 563.564 287.543 564.134C286.403 564.704 285.833 564.134 285.833 563.564C285.833 562.994 286.403 562.424 286.403 561.854L286.973 561.284C297.232 559.004 302.362 549.885 309.771 543.616C310.911 548.175 312.621 550.455 318.321 551.025C327.44 552.165 335.989 552.165 345.108 552.165C347.958 552.165 351.378 552.165 353.088 549.315C354.798 545.895 351.948 543.046 349.668 540.766C346.249 536.776 341.689 535.066 337.699 532.786C334.849 531.646 333.139 532.216 330.859 534.496C328.01 538.486 325.73 542.476 322.31 546.465C320.6 548.745 318.321 550.455 315.471 548.745C313.191 547.035 314.331 544.755 315.471 542.476C316.041 541.906 316.611 540.766 317.181 540.196C316.611 540.766 316.041 541.336 315.471 541.906C313.761 543.046 312.051 544.185 309.771 543.046C310.341 539.626 313.191 537.916 314.901 535.636C316.611 533.356 317.75 530.507 313.761 529.367C312.051 527.657 312.621 525.947 314.331 524.237C316.611 522.527 313.761 523.097 313.191 522.527C312.051 520.817 311.481 518.537 309.201 517.967C308.631 517.398 308.061 517.398 308.061 516.258C308.061 515.688 308.631 515.118 308.631 514.548C309.771 512.268 311.481 509.418 309.771 507.708C309.201 507.138 307.491 511.128 305.782 512.268C305.212 512.838 304.641 515.118 303.502 514.548C301.792 513.408 303.502 512.268 304.072 511.128C305.782 505.998 307.491 501.439 306.922 496.309C300.652 503.149 300.652 513.978 293.812 520.817C293.242 521.387 293.812 523.097 294.952 523.667L295.522 524.237C293.813 527.087 291.532 528.797 288.113 529.367C288.113 528.797 287.543 528.797 287.543 528.227C285.833 518.537 288.683 509.418 288.683 500.299C288.683 499.159 288.683 498.589 289.253 498.019C289.253 498.589 288.683 498.589 288.683 499.159C287.543 507.138 288.683 515.118 286.403 522.527C285.263 527.087 281.273 527.657 277.284 526.517C271.584 526.517 265.885 528.797 260.185 526.517C264.745 523.097 264.175 517.968 264.175 512.838C264.175 506.568 263.035 500.869 262.465 494.599C262.465 493.459 261.895 491.749 263.035 491.749C264.745 491.18 265.314 493.459 265.314 494.599C265.884 500.299 266.455 505.998 267.025 511.698C267.025 513.408 265.884 516.828 268.164 516.828C271.014 517.397 272.724 514.548 272.724 511.698C273.294 504.289 273.864 496.879 271.014 489.47C269.874 486.62 268.734 484.34 270.444 481.49C271.584 478.641 271.584 476.361 267.594 479.78C265.315 481.49 265.315 479.78 265.885 478.641C267.594 475.791 269.304 472.371 271.014 469.521C272.154 468.381 272.154 465.531 274.434 466.101C277.284 466.671 273.864 468.951 274.434 470.091C276.714 472.371 279.563 475.791 282.413 475.221C285.833 474.651 287.543 470.661 285.833 466.671C285.263 465.532 284.693 463.822 284.123 462.682C283.553 461.542 281.273 459.832 283.553 458.692C285.263 458.122 285.833 459.832 286.403 460.972C286.973 462.112 287.543 463.822 289.253 463.252C289.823 462.682 290.962 460.972 290.962 460.402C289.823 454.702 289.823 449.003 291.533 443.303C292.103 441.593 290.393 441.023 289.253 439.883C288.683 441.023 287.543 441.593 286.973 442.733C285.833 445.583 285.263 449.003 284.693 451.853C284.123 452.992 284.693 455.272 282.413 454.702C280.703 454.132 281.273 452.422 281.843 451.283C281.843 450.143 282.413 449.003 281.273 448.433C280.704 448.433 280.133 449.003 278.994 449.573C277.284 450.713 276.714 454.702 275.004 452.993C273.294 451.853 272.154 447.293 272.724 445.583C275.004 438.174 270.444 431.904 271.584 425.065C271.584 423.355 270.444 422.215 268.734 422.215C266.455 422.215 266.454 423.925 266.454 425.635C265.884 429.054 267.594 435.324 265.314 434.754C261.325 434.184 264.175 428.484 263.035 425.065C261.895 419.935 261.325 414.805 259.615 409.676C259.045 407.966 256.765 403.976 259.615 403.406C262.465 402.836 262.465 406.826 263.035 409.106C263.605 411.386 264.175 413.666 264.745 415.945C265.315 417.085 264.745 419.365 266.454 419.365C268.734 419.365 269.304 417.085 268.734 415.375C268.164 413.096 267.024 410.246 266.454 407.966C267.024 403.406 264.175 400.557 265.885 396.567C271.014 392.007 267.594 388.587 264.745 384.598C264.175 384.028 263.605 383.458 263.035 382.888C263.605 383.458 264.175 384.028 264.745 384.598C267.594 388.587 269.304 392.577 265.885 396.567Z" fill="#D8AF49"/>
<path d="M184.381 112.158C186.091 108.739 188.94 108.169 192.36 108.739C206.609 112.158 219.718 117.858 229.977 128.687C237.387 136.667 237.957 144.646 235.107 153.765C232.827 160.605 228.838 166.874 224.278 172.574C215.159 183.973 208.319 196.512 200.34 208.481C196.92 213.611 192.93 218.17 189.51 222.73C188.94 223.3 187.8 224.44 186.661 223.87C184.951 222.73 185.521 221.59 186.091 220.45C188.371 215.89 190.65 211.901 194.07 207.911C198.06 203.351 201.479 198.792 204.899 193.662C208.889 187.963 202.62 176.563 195.78 176.563C187.231 176.563 178.681 176.563 170.132 175.993C166.142 175.993 161.012 176.563 157.023 174.284C154.173 172.574 150.753 173.144 149.044 174.284C145.054 177.133 141.064 177.703 137.074 179.413C131.945 181.123 127.955 183.973 123.396 186.823C118.836 190.242 113.706 191.382 108.007 190.242C107.437 190.242 106.867 189.103 106.297 188.533C106.867 188.533 107.437 187.963 108.576 187.963C111.426 187.963 113.136 187.963 114.846 184.543C122.826 168.584 135.364 155.475 145.624 140.656C149.613 134.957 154.743 130.397 158.733 124.697C163.293 118.428 170.702 115.578 176.971 111.019C178.681 109.309 181.531 112.158 184.381 112.158C184.381 118.428 187.8 122.988 194.07 124.127C212.309 128.117 215.159 142.936 217.438 157.755C217.438 159.465 217.438 160.605 218.008 162.315C218.008 161.175 218.008 160.035 218.008 158.895C216.868 154.335 215.728 149.206 215.158 144.646C214.018 132.107 204.899 128.117 195.21 124.697C188.94 122.418 184.951 118.998 184.381 112.158Z" fill="#D8AF49"/>
<path d="M271.014 197.082C271.014 196.513 271.584 194.803 272.154 194.803C273.294 194.233 292.672 201.072 293.812 201.642C299.512 206.202 302.362 211.331 299.512 219.311C297.802 224.44 298.942 230.14 297.802 235.839C294.952 251.228 288.113 264.907 279.563 278.586C274.434 287.135 269.874 295.115 257.335 295.115C253.346 295.115 250.496 292.835 246.506 292.835C244.796 289.985 244.796 289.985 247.076 288.845C251.066 287.135 255.625 287.705 259.045 285.995V285.426L258.475 284.856C257.905 284.856 257.335 284.856 256.765 284.286C256.195 284.286 255.625 283.716 254.486 283.716C253.916 283.146 253.346 282.576 252.776 282.006C251.636 279.726 249.926 278.016 248.786 275.736C248.216 275.736 247.646 275.166 247.076 275.166C243.656 280.296 239.667 283.716 233.397 282.006C231.117 281.436 231.117 279.726 231.687 278.016C234.537 272.887 236.247 267.187 240.237 262.627L240.806 263.197C240.236 264.907 240.236 266.617 239.666 268.327C239.666 268.897 238.527 270.037 239.666 270.607C239.666 270.607 240.807 270.037 241.377 269.467C244.226 267.187 246.506 264.907 248.786 262.627C253.916 258.068 254.485 258.068 257.905 264.337C259.615 267.187 261.325 270.037 262.465 272.317C263.035 273.456 264.175 273.457 265.314 273.457C267.024 272.887 265.885 271.747 265.885 270.607C263.605 265.477 261.325 259.778 257.905 255.788C256.195 253.508 255.055 252.368 257.905 250.088C260.755 247.809 260.185 244.389 261.895 241.539C263.035 238.689 264.175 236.409 262.465 233.56C261.325 235.839 257.905 236.979 256.195 238.689C254.485 240.969 253.345 243.819 252.206 246.099C251.636 247.238 251.066 248.379 249.926 248.379C248.786 247.809 249.356 246.669 249.926 245.529C252.206 241.539 252.776 236.409 257.905 234.13C259.045 233.56 260.185 230.71 258.475 229.57C257.905 229 257.335 231.28 256.195 232.42C255.625 232.99 255.055 233.56 254.486 232.99C253.916 232.99 253.916 231.85 254.486 231.28C254.486 230.71 255.055 230.14 255.055 229.57C255.625 226.72 258.475 225.01 256.765 221.591C254.485 223.3 253.916 225.58 252.776 227.86C251.636 229.57 251.636 231.28 250.496 232.42C249.926 232.99 248.786 233.56 248.216 232.99C247.076 232.42 247.646 231.28 247.646 230.71C250.496 225.58 253.346 221.021 256.195 215.321C258.475 210.761 260.185 217.031 261.895 215.321C263.035 218.741 264.745 219.881 268.164 217.601C268.734 217.601 269.874 222.73 271.584 218.741C272.724 215.891 272.154 211.901 268.734 209.621C264.745 207.342 260.185 205.062 255.625 203.352C252.776 202.212 250.496 199.932 248.216 197.082C247.076 195.373 247.076 193.093 248.216 191.383C249.356 189.103 252.206 189.103 253.346 190.813C255.625 193.663 257.335 190.813 259.045 190.243C261.895 189.103 263.035 188.533 264.175 191.953C265.315 194.233 269.874 194.803 271.014 197.082Z" fill="#D8AF49"/>
<path d="M96.0372 566.413C89.7677 568.693 83.4979 563.564 77.2284 564.704C73.8087 565.274 69.8192 563.564 65.8295 565.843C62.9797 567.553 58.99 564.134 57.8501 562.424C56.1402 559.574 53.2905 560.144 52.1506 557.864C60.1299 559.574 68.6792 559.004 76.6586 561.284C77.7985 561.854 78.9383 561.284 80.0782 561.284C79.5082 560.144 78.3683 560.144 77.2284 560.144C69.249 557.864 60.6998 555.014 52.7204 553.874C49.8706 553.304 48.7307 554.444 49.8706 551.025C50.4405 549.315 51.0106 547.035 52.1506 545.325C53.8604 541.905 54.4304 539.056 49.3008 541.905C48.1609 542.475 48.1608 542.475 47.5908 541.905C44.1711 537.916 44.1711 537.916 41.8912 541.905C40.1814 545.325 38.4715 548.745 36.7617 552.165C36.1917 553.304 35.6217 555.014 35.6217 555.014C36.7616 556.154 37.9016 556.154 39.6114 556.724C38.4715 556.724 36.7616 556.724 35.6217 556.154C33.3419 555.584 33.3419 553.874 33.9119 552.165C34.4818 549.885 35.6217 548.175 36.7617 545.895C37.3316 544.185 37.9015 541.335 35.6217 540.765C33.3419 540.195 32.772 542.475 32.2021 543.615C31.0622 546.465 28.7823 548.745 28.7823 551.595C29.3523 560.714 22.5128 558.434 17.9532 560.144C12.2536 561.854 6.55395 560.714 1.9943 556.154C1.42434 555.584 0.854492 554.444 0.854492 553.874C0.854492 552.164 1.42438 549.315 2.56429 549.315C5.98403 549.315 3.13428 551.595 3.13428 552.734C3.13428 554.444 3.7042 555.584 5.41407 555.584C5.98403 556.154 5.98406 556.154 5.98406 556.154C5.98406 556.154 5.41404 556.154 4.84408 555.584C7.69386 551.025 7.12394 544.755 11.1136 540.765C12.2535 539.625 11.1136 537.346 11.1136 535.636C5.98403 509.988 7.12398 484.91 17.3832 460.402C24.2227 445.013 26.5025 428.484 25.3625 411.385C25.3625 407.966 24.2226 402.266 28.2123 402.266C31.0621 402.266 30.4921 407.966 31.0621 410.815C32.202 419.935 30.4921 428.484 28.2123 437.033C27.0724 441.593 25.9325 446.153 24.7925 450.142C24.2226 451.282 24.2226 452.992 24.7925 453.562C26.5024 454.132 27.0724 452.422 27.6423 450.712C28.7822 447.863 28.2123 442.733 31.0621 443.303C33.3419 443.873 29.9222 449.002 30.4921 451.852C30.4921 452.992 30.4921 454.702 30.4921 456.412C28.2123 459.262 30.4922 463.251 28.7823 466.671C26.5025 470.091 27.6424 474.081 28.2123 478.07C27.6424 474.65 27.6424 471.801 28.2123 468.381C28.2123 467.811 28.7823 467.241 28.7823 466.671C31.0621 463.251 28.7822 459.262 30.4921 456.412C31.632 455.842 32.772 454.132 33.9119 454.132C36.1917 454.702 35.0518 456.412 34.4819 457.552C32.202 470.661 33.9118 483.2 32.7719 496.309C31.632 507.708 39.6114 515.687 39.0415 525.946C38.4715 529.936 42.4613 533.356 46.451 534.496C52.1506 536.776 56.1402 540.765 60.6999 544.185C61.8398 544.755 64.1196 545.325 62.4097 547.035C61.2698 548.175 60.1299 547.605 59.5599 547.035C58.42 546.465 57.28 543.615 55.5701 545.325C55.0002 545.895 56.1401 548.175 56.1401 549.885C56.7101 552.165 57.85 551.594 58.9899 551.025C65.2594 548.175 70.959 551.025 76.0886 553.874C81.2182 556.724 86.9177 557.864 92.6173 559.004C95.4671 559.574 98.3168 559.004 100.027 562.424C100.027 562.994 100.027 562.994 100.027 563.564C99.4567 565.273 98.3171 566.983 96.0372 567.553C96.6072 566.413 96.6072 566.413 96.0372 566.413Z" fill="#D8AF49"/>
<path d="M61.2705 223.87C62.4104 223.3 63.5503 221.02 64.6903 222.16C66.4001 223.3 64.6902 224.44 64.1203 225.58C63.5503 227.29 66.4002 231.279 68.68 230.709C69.8199 230.139 70.3899 227.86 72.0998 230.139C72.6697 230.709 71.5298 232.419 70.9598 233.559C70.9598 234.129 69.8199 235.269 70.9598 235.839C71.5298 236.409 72.6696 235.839 73.2396 235.269C73.8096 234.129 74.9494 232.989 75.5194 233.559C76.6593 234.129 74.9496 235.839 74.9496 236.409C74.9496 238.119 73.2396 239.829 76.6594 240.399C78.9392 240.969 82.9287 242.108 80.079 246.668C78.9391 248.948 80.6491 251.798 82.3589 252.368C90.3383 256.357 88.6284 264.907 89.7683 271.176C90.3382 275.166 90.9083 278.016 94.898 279.156C97.7478 279.726 98.8876 282.005 98.3176 283.715C97.1777 285.995 94.8981 284.285 93.1882 283.145C87.4887 279.726 82.3589 275.166 79.5091 269.466C70.9598 251.228 56.1409 239.259 41.322 226.72C38.4722 224.44 36.1925 222.16 34.4826 219.31C32.7728 216.461 31.0628 214.181 35.6225 211.901C38.4722 210.191 37.3324 202.782 34.4826 201.072C32.7728 199.932 32.7728 201.072 32.2029 202.212C31.6329 205.631 31.0628 209.051 30.4929 212.471C30.4929 213.611 30.493 215.321 28.7831 214.751C27.0732 214.751 27.0731 213.041 27.6431 211.901C28.783 202.212 30.493 193.092 35.0526 184.543C37.9024 178.843 40.7522 172.574 45.8818 168.584C46.4517 169.154 46.4516 169.154 47.0216 169.154C46.4516 169.154 45.8818 168.584 45.8818 168.584C50.4414 165.734 52.1513 165.734 54.4311 170.294C56.141 173.714 56.7109 173.714 58.9907 171.434C60.7006 169.154 64.1204 168.584 66.4002 167.444C66.9702 167.444 68.1101 167.444 68.68 167.444C72.6697 169.724 72.6696 169.724 75.5194 168.584C79.5091 166.874 83.4988 166.874 86.9185 168.584C90.3382 170.294 93.7581 172.004 97.7478 171.434C93.7581 175.424 90.3382 172.574 86.9185 170.864C84.6387 169.724 81.7891 167.444 78.9393 169.154C77.2295 170.294 71.5296 170.864 77.2292 174.284C78.3691 174.854 77.2293 175.424 76.6594 175.994C68.11 181.693 68.11 191.382 66.97 199.932C66.4001 204.491 65.8302 207.911 62.4105 210.761C58.9907 213.611 58.9908 217.6 57.2809 221.02C55.571 225.01 61.2705 219.31 61.2705 222.73C60.7005 223.87 60.7005 223.87 61.2705 223.87Z" fill="#D8AF49"/>
<path d="M73.8094 334.441C72.6695 337.86 71.5295 341.28 70.3896 345.27C69.8197 346.98 70.9596 349.26 68.6798 349.26C65.83 349.26 67.5398 346.98 66.9698 345.27C66.9698 344.7 65.83 344.7 65.83 344.13C55.5708 341.85 49.8713 334.441 43.6018 327.601C42.4619 326.461 41.3219 324.752 40.182 325.322C37.9022 327.031 40.182 328.171 40.752 329.311C43.6018 335.011 48.1613 339.57 53.2909 343.56C53.8609 344.13 55.0009 344.7 54.4309 345.27C53.861 346.41 52.7211 345.84 52.1511 345.27C45.3116 341.85 41.3218 335.011 35.6222 329.881C34.4823 329.311 35.0523 327.601 35.6222 326.461C39.042 319.052 34.4824 311.073 39.042 304.233C40.1819 302.523 37.9021 300.813 36.1922 300.243C35.0523 299.673 34.4824 300.813 33.9124 301.953C29.3528 319.622 21.3735 336.721 23.6533 356.099C24.7932 367.498 27.0729 378.327 30.4927 389.157C31.0626 390.866 33.9124 393.716 30.4927 394.856C28.2129 395.426 28.2129 392.006 27.6429 390.297C19.6635 367.498 17.3837 344.13 25.3631 320.762C27.6429 313.922 29.3528 307.083 31.6327 300.243C33.9125 293.404 32.7726 287.134 28.7829 281.435C20.2335 267.186 11.6841 252.367 1.42487 239.258C-0.284996 236.978 -0.854917 236.408 1.99486 234.129C4.27469 232.989 0.854917 229.569 1.42487 226.719C7.12444 202.781 12.8241 179.413 31.0627 161.744C32.2026 160.604 33.3426 158.324 35.0524 160.034C36.1923 161.174 33.9124 162.314 32.7725 163.454C16.2437 179.983 10.5442 201.641 4.84465 222.729C3.13478 228.999 5.98466 236.978 9.4044 242.678C18.5237 259.777 28.2128 276.305 38.472 292.834C47.0214 306.513 60.1304 316.202 73.2394 324.752C77.799 327.601 76.0892 328.741 73.2394 330.451C72.6694 330.451 72.6695 330.451 72.0996 331.021C64.1202 328.171 57.2807 323.612 51.0111 317.912C50.4412 317.342 49.8713 316.772 49.3013 316.202C49.8713 316.772 49.8712 316.772 50.4411 317.342C56.1407 323.042 62.9803 325.891 68.6798 330.451C73.2395 333.871 68.1098 337.291 64.6901 340.14C63.5501 340.14 62.9802 340.14 62.4103 339.57C57.8506 336.721 54.4308 332.161 49.8712 329.311C53.8609 331.591 56.1408 335.581 60.1305 338.43C61.2704 339 62.4103 340.14 63.5502 340.71C68.1099 340.71 67.5399 335.011 70.9596 334.441C72.6695 333.871 73.2394 333.871 73.8094 334.441Z" fill="#D8AF49"/>
<path d="M309.772 267.757C308.632 268.897 308.632 270.037 309.202 271.177C310.911 276.307 312.621 280.866 314.331 285.996C314.901 287.136 315.471 288.845 313.191 289.415C311.482 289.415 312.052 287.706 311.482 287.136C309.772 283.716 310.342 279.726 306.922 276.877C304.642 281.436 308.632 284.286 309.202 288.276C309.772 291.125 312.621 294.545 309.202 295.685C306.922 296.255 306.352 292.265 305.782 289.985C305.782 289.415 305.212 288.276 304.642 287.706C304.072 287.136 303.502 286.566 302.932 285.996C302.932 286.566 302.362 287.706 302.362 288.276C303.502 292.265 305.782 295.685 306.352 299.675C306.352 301.955 308.632 304.234 305.212 305.374C301.792 306.514 300.652 304.234 300.082 300.815C300.082 299.675 300.083 297.395 298.373 297.965C297.233 298.535 298.373 300.245 298.373 301.955C298.943 306.514 299.513 310.504 300.082 314.493C300.082 315.063 300.082 316.203 298.942 316.203C298.373 316.203 297.233 315.633 297.233 315.063C296.093 312.214 297.232 308.224 293.813 305.374C292.103 309.364 294.953 312.214 294.953 316.203C294.953 317.343 295.523 319.053 295.523 320.193C295.523 321.333 294.383 322.473 293.243 320.763C291.533 319.053 291.533 314.494 287.543 317.913C286.973 318.483 285.264 314.494 284.694 312.214C283.554 308.794 283.554 304.234 277.854 307.654C276.144 308.794 276.144 307.084 276.714 305.944C277.854 304.804 280.134 304.234 277.284 302.525C275.574 301.385 276.144 299.675 278.424 300.815C284.124 303.664 285.833 299.105 288.113 295.685C297.232 282.006 301.222 266.047 305.212 250.089C307.492 240.399 309.202 230.14 311.482 220.451C313.191 214.751 309.772 211.902 306.922 208.482C305.782 207.342 304.642 206.202 306.352 205.062C307.492 204.492 308.062 205.632 309.202 206.772C311.481 209.622 313.761 211.901 315.471 214.751C316.041 215.891 317.751 217.031 316.611 218.741C312.621 223.301 313.192 227.86 315.471 233.56C316.611 237.55 316.041 243.249 318.321 247.239C322.311 254.078 317.751 260.918 318.321 267.757C318.321 268.327 317.751 268.327 317.181 268.897C316.041 269.467 315.471 268.327 315.471 267.757C314.331 265.477 313.761 262.627 312.622 260.348C312.622 259.778 311.481 259.208 310.911 258.638C310.911 259.208 310.342 260.348 310.342 260.918C312.051 265.477 314.331 270.037 315.471 274.597C316.041 276.876 318.891 280.296 316.041 281.436C312.621 282.576 313.192 278.016 312.622 275.737C311.482 274.027 311.481 271.747 310.911 270.037C310.911 268.897 310.342 268.327 309.772 267.757Z" fill="#D8AF49"/>
<path d="M35.0521 259.208C35.0521 254.078 35.0521 249.518 35.0521 244.389C35.0521 242.679 33.9122 242.109 32.2023 241.539C32.2023 242.679 31.6323 243.819 31.6323 244.959C31.0624 251.798 31.6322 258.068 32.7722 264.907C32.7722 266.047 32.7723 267.757 31.6323 267.757C29.3525 268.327 29.9224 266.047 29.9224 264.907C29.9224 255.788 25.3629 246.668 26.5028 237.549C26.5028 235.269 25.9328 232.42 29.3526 231.85C32.7723 231.28 32.7723 234.13 34.4821 236.409C40.1817 244.389 47.0211 252.368 52.7206 260.917C59.5601 271.177 65.8296 282.006 75.5189 289.985C76.0888 290.555 77.7986 291.125 77.2287 292.265C76.6587 293.405 74.949 292.835 74.3791 292.265C71.5293 289.415 68.6795 286.565 65.8297 283.716C64.1199 282.006 62.41 282.006 62.9799 284.856C63.5499 288.845 61.8401 292.265 60.7001 296.255C60.1302 297.395 61.84 299.675 59.5602 299.675C57.8503 299.675 57.8503 297.395 57.2804 296.255C56.7104 294.545 56.1404 292.265 55.5704 290.555C55.0005 290.555 56.1405 287.705 54.4306 289.985C53.8606 291.125 54.4305 293.405 52.7206 292.835C50.4408 292.265 51.0108 289.985 51.0108 288.275C50.4409 279.726 48.1611 271.177 48.731 262.627C48.731 261.487 49.3009 260.347 47.5911 260.347C47.0211 260.347 47.0211 262.057 47.0211 262.627C47.0211 267.757 47.5911 272.317 47.5911 277.446C47.5911 279.726 48.731 283.716 45.8813 284.286C42.4615 284.286 44.1713 280.296 44.1713 278.016C43.6013 270.607 43.6015 263.197 43.6015 255.788C43.6015 254.648 43.6014 252.938 42.4615 252.938C40.1817 252.938 41.8915 255.218 41.3215 255.788C40.1816 262.057 42.4615 267.757 42.4615 274.027C42.4615 275.166 43.0314 277.446 41.3215 277.446C38.4717 278.016 39.0417 275.166 39.0417 273.457C38.4718 268.897 38.4719 264.337 37.9019 259.778C35.6221 259.208 35.6221 259.208 35.0521 259.208Z" fill="#D8AF49"/>
<path d="M259.615 524.806C264.174 525.376 265.314 521.387 268.164 519.677C268.734 519.107 270.444 517.967 271.014 519.677C271.584 521.387 269.304 522.526 269.874 523.666C270.444 526.516 271.584 523.666 272.154 523.096C273.294 522.526 274.434 521.387 275.574 520.817C276.144 520.817 277.283 521.387 277.853 521.957C278.423 529.936 271.014 531.646 267.024 535.636C263.604 538.485 260.185 542.475 253.345 539.625C251.065 538.485 245.366 544.755 240.236 544.755C240.806 544.755 241.946 544.755 242.516 544.755C255.055 546.465 264.744 540.195 274.434 534.496C278.423 532.216 281.273 527.086 286.973 529.936C286.973 530.506 286.972 531.646 286.403 532.216C276.143 542.475 263.034 548.175 249.355 552.164C243.656 553.874 237.386 556.724 231.117 556.154L230.547 555.584C229.977 555.014 228.837 554.444 228.837 553.874C228.267 551.024 232.827 553.874 232.257 551.024C232.257 550.454 228.267 551.024 226.557 549.884C224.277 547.605 224.847 545.325 227.697 544.185C231.117 542.475 234.537 541.335 237.956 540.195C239.096 539.625 240.806 539.055 240.806 537.345C239.666 537.345 238.526 537.345 237.386 536.775C236.247 536.775 234.537 536.775 234.537 535.636C234.537 534.496 236.247 534.496 237.386 534.496C256.765 529.366 251.065 532.786 253.915 514.547C255.055 508.848 253.915 503.718 252.205 498.588C251.635 497.448 251.065 496.309 252.205 495.739C253.915 495.169 255.055 496.309 255.055 498.018C257.905 505.428 258.475 512.837 256.765 520.817C257.905 521.387 256.195 523.666 259.615 524.806Z" fill="#D8AF49"/>
<path d="M92.6174 157.185C95.4671 153.765 100.027 153.195 104.016 152.625C108.576 152.055 111.426 156.045 109.716 159.465C109.146 160.605 108.006 161.175 109.146 162.314C109.146 162.314 110.286 161.174 110.856 160.605C112.566 157.185 114.846 154.905 119.405 156.615C120.545 157.185 123.395 155.475 124.535 154.335C127.385 152.055 128.525 149.775 123.965 147.496C113.706 142.936 102.877 139.516 91.4774 139.516C89.1976 139.516 86.918 140.086 84.6382 138.946C86.918 137.236 89.1976 137.806 91.4774 137.806C102.307 137.236 111.996 139.516 121.685 144.076C127.385 146.926 131.374 145.786 134.224 141.226C135.364 140.656 135.934 141.226 135.364 142.366C129.665 154.335 119.406 163.454 113.136 174.853C112.566 175.423 111.426 175.993 111.426 175.993C110.856 175.423 110.856 174.854 110.856 173.714C111.426 168.014 108.576 165.734 103.447 168.014C102.307 168.584 101.167 169.154 100.597 169.724C97.1772 168.584 95.4673 164.024 92.0475 162.884C91.4776 162.315 90.9076 161.744 90.9076 160.605C90.9076 160.035 90.9074 158.895 91.4774 158.325C92.0473 157.755 92.0474 157.755 92.6174 157.185Z" fill="#D8AF49"/>
<path d="M259.045 282.005C260.185 280.865 261.895 278.586 263.605 279.726C265.315 280.865 266.455 282.575 264.745 284.855C263.605 286.565 265.315 289.415 261.325 289.415C256.765 289.415 251.636 290.555 247.076 291.125L246.506 291.694V292.264C233.967 294.544 221.428 296.254 208.889 294.544L208.319 293.974C214.018 291.125 220.288 292.834 225.988 292.264C228.268 292.264 229.977 292.264 228.837 288.845C228.268 286.565 233.967 287.705 235.107 283.715C235.677 282.575 235.107 282.575 234.537 282.005C235.107 281.435 235.677 280.295 235.677 280.295C241.377 281.435 243.656 278.586 244.796 273.456C245.366 271.746 245.936 268.896 248.786 269.466C249.926 269.466 249.926 271.176 249.926 272.316C253.916 274.596 255.625 278.016 255.055 282.575C256.765 282.005 257.905 282.005 259.045 282.005Z" fill="#D8AF49"/>
<path d="M313.76 521.387C316.61 521.387 318.32 516.258 318.89 517.398C320.6 520.247 318.32 523.097 316.04 524.807C314.9 525.947 314.331 527.087 314.331 528.227C313.191 528.797 312.621 529.937 312.621 531.077C307.491 539.056 300.081 544.756 293.812 551.595C290.962 555.015 286.403 550.455 282.983 553.305C279.563 556.155 275.574 557.295 271.584 559.005C270.444 559.575 269.304 559.575 268.734 558.435C269.304 557.865 269.874 557.295 270.444 556.725C275.573 553.305 281.843 552.735 285.263 547.036C279.563 547.605 275.003 551.595 269.304 553.305C268.164 553.875 265.884 554.445 265.314 553.305C264.744 551.595 267.024 551.595 268.164 551.025C276.713 548.175 283.553 543.616 290.392 537.916C290.392 537.346 290.392 537.346 290.392 536.776C290.962 536.206 290.962 535.636 291.532 535.066C292.102 534.496 292.672 533.926 293.242 533.926C298.372 530.507 303.501 527.657 307.491 523.097C309.201 521.957 311.481 520.818 313.76 521.387Z" fill="#D8AF49"/>
<path d="M101.167 561.853C108.006 560.143 114.276 563.563 120.546 563.563C139.924 564.703 158.732 572.112 178.111 573.822C179.251 573.822 181.531 573.822 180.961 576.102C180.391 577.812 178.681 577.242 177.541 577.242C159.873 574.962 142.774 572.682 125.105 572.682C124.535 572.682 124.535 572.682 123.965 573.252C121.685 573.822 119.405 573.822 117.126 572.682C115.416 572.112 113.136 572.112 111.426 571.542C108.006 571.542 105.157 570.403 102.307 569.263C98.8871 566.983 97.1772 564.703 101.167 561.853Z" fill="#D8AF49"/>
<path d="M224.278 309.933C219.149 312.783 220.858 316.772 221.998 320.762C222.568 324.182 225.988 329.311 223.708 329.881C219.148 331.021 220.288 324.752 219.148 321.332C218.009 319.052 217.438 316.203 216.868 313.923C216.299 312.783 215.729 311.073 214.019 311.643C211.739 312.213 212.879 313.923 212.879 315.063C214.019 319.052 215.159 323.612 216.299 327.602C216.299 328.742 218.579 331.021 215.729 331.591C214.019 332.161 213.449 329.881 212.879 328.741C211.739 325.322 210.029 321.332 210.029 317.912C209.459 311.643 206.039 311.073 200.91 311.073C191.79 311.073 182.671 310.503 172.982 309.933C171.842 309.933 170.702 309.933 170.702 308.793C170.702 308.793 172.412 308.223 172.982 308.223C180.961 308.223 188.941 308.223 197.49 308.793C206.04 309.933 215.159 308.793 224.278 309.933Z" fill="#D8AF49"/>
<path d="M208.889 295.114C202.62 298.533 195.78 296.823 189.511 297.393C169.562 299.103 149.044 299.673 129.665 293.974C126.815 293.404 122.256 292.834 122.826 289.984C123.966 287.134 127.955 289.984 130.235 290.554C145.624 294.544 161.013 294.544 176.402 294.544C187.231 294.544 197.49 292.834 208.319 293.974C208.319 294.544 208.889 294.544 208.889 295.114Z" fill="#D8AF49"/>
<path d="M184.951 195.942C184.381 197.082 183.811 198.222 182.671 199.362C181.531 201.072 182.101 202.212 182.101 203.921C182.101 206.771 188.371 205.061 186.091 208.481C183.241 213.041 180.391 217.031 177.541 221.59C176.971 222.16 175.262 223.3 174.692 221.59C174.122 217.6 168.422 214.751 172.412 209.051C175.831 204.491 178.681 199.362 182.101 194.802C182.671 193.662 183.811 193.092 184.951 193.662C184.951 194.232 184.381 195.372 184.951 195.942Z" fill="#D8AF49"/>
<path d="M36.762 379.469C36.762 390.298 41.3216 399.987 44.7413 410.246C45.3113 411.386 45.8812 413.096 44.1713 414.236C42.4615 414.806 41.8915 413.096 41.3216 411.956C35.622 400.557 33.9122 388.018 31.6324 375.479C30.4925 369.779 29.9225 364.08 28.7826 358.38C28.7826 357.24 28.2126 354.961 29.9224 354.961C31.6323 354.391 32.2024 356.67 32.2024 357.81C33.3423 364.08 34.4822 370.919 35.0522 377.189C35.6221 377.189 36.192 378.329 36.762 379.469Z" fill="#D8AF49"/>
<path d="M43.0317 398.846C42.4617 398.276 41.8918 397.707 42.4617 396.567C43.6016 395.427 43.0317 393.717 43.0317 392.577C43.0317 391.437 42.4617 390.867 41.8917 389.727C41.3218 388.587 40.7518 386.877 42.4617 385.737C45.3115 385.737 44.7416 381.178 46.4515 382.318C48.1613 383.458 50.4411 386.307 50.4411 388.017C49.8711 399.416 55.5707 407.396 62.4102 415.375C63.5501 417.085 67.5398 418.795 65.26 421.075C63.5501 422.215 61.2703 418.795 59.5604 417.085C57.2806 413.665 55.5707 410.245 51.581 408.536C51.0111 408.536 51.011 407.966 50.4411 407.966C48.7312 406.256 48.7312 403.976 47.5913 402.266C47.0213 401.696 47.0214 401.126 46.4515 400.556C46.4515 399.986 45.8814 399.416 45.3115 399.416C44.1716 399.416 43.6017 398.846 43.0317 398.846Z" fill="#D8AF49"/>
<path d="M216.868 508.278C215.159 507.139 216.298 506.569 216.868 505.429C225.988 491.75 231.687 476.361 236.247 460.402C236.817 459.262 237.387 456.982 238.527 457.552C240.237 457.552 239.667 459.832 239.667 460.972C234.537 476.361 229.978 492.32 220.288 505.999C219.148 506.569 218.578 508.278 216.868 508.278Z" fill="#D8AF49"/>
<path d="M209.459 504.288C209.459 503.149 208.889 502.009 209.459 501.439C216.868 488.9 220.858 474.651 226.558 460.972C227.128 459.832 227.698 459.262 228.838 459.262C228.838 459.262 229.977 460.972 229.407 461.542C223.708 475.221 219.148 489.47 211.739 502.578C211.169 503.148 210.029 503.719 209.459 504.288Z" fill="#D8AF49"/>
<path d="M231.117 502.578C228.837 502.578 229.408 501.438 229.978 500.298C230.548 498.588 231.117 496.309 232.257 494.599C236.817 484.909 240.807 475.22 243.087 464.391C243.657 463.251 243.087 460.401 245.936 460.971C247.646 461.541 246.506 463.251 246.506 464.961C244.226 477.5 238.527 488.899 233.397 500.298C232.257 501.438 231.117 502.008 231.117 502.578Z" fill="#D8AF49"/>
<path d="M218.008 527.086C216.298 538.485 210.599 548.744 203.759 557.864C203.189 559.004 202.049 559.574 200.91 559.004C199.77 557.864 200.91 556.724 201.48 556.154C207.749 547.035 212.309 537.345 214.589 526.516C214.589 525.376 214.589 523.096 216.298 523.666C218.578 523.666 218.578 525.376 218.008 527.086Z" fill="#D8AF49"/>
<path d="M252.206 384.598C252.776 386.308 251.636 387.448 251.066 388.588C242.516 397.707 237.387 409.106 231.687 420.505C231.117 422.215 230.548 425.065 228.838 424.495C227.128 423.925 228.268 421.645 228.838 419.935C235.107 406.826 240.237 393.717 252.206 384.598Z" fill="#D8AF49"/>
<path d="M217.439 565.843C213.449 565.273 210.029 565.274 206.039 564.704C205.469 564.704 204.33 564.134 204.33 562.994C204.33 561.854 205.469 561.854 206.039 561.854C222.568 564.704 237.957 560.144 253.346 556.154H253.916C255.055 556.154 256.765 555.584 256.765 556.724C257.335 557.864 255.626 557.864 254.486 558.434C242.517 561.284 230.548 565.273 217.439 565.843Z" fill="#D8AF49"/>
<path d="M166.143 203.922C165.003 202.212 163.863 202.782 163.293 204.492C162.723 205.632 161.583 207.912 160.443 206.772C158.733 205.632 160.443 203.922 161.583 202.212C162.723 199.932 165.003 199.362 165.572 197.083C165.572 195.943 165.003 193.663 167.283 193.663C169.562 193.663 168.992 195.373 168.992 197.083C170.702 201.072 171.272 197.083 171.842 196.513C172.982 195.373 174.122 193.663 175.262 194.233C176.972 195.373 175.262 197.083 174.692 198.792C172.982 201.072 171.842 203.922 170.132 206.202C168.423 207.912 167.282 211.901 165.572 210.762C162.723 209.052 166.713 207.342 167.283 205.632C166.713 205.062 166.143 204.492 166.143 203.922Z" fill="#D8AF49"/>
<path d="M204.899 531.077C202.62 540.196 197.49 548.746 191.79 556.725C191.22 557.295 190.65 559.005 189.51 557.295C188.94 556.725 189.511 555.585 190.081 555.015C192.36 551.025 195.21 546.466 197.49 542.476C199.2 538.486 201.48 534.497 202.05 529.367C202.05 527.657 203.19 525.947 204.33 526.517C205.469 527.087 205.469 529.367 204.899 531.077Z" fill="#D8AF49"/>
<path d="M241.377 372.628C240.807 373.198 240.807 373.768 240.237 374.908C235.107 383.457 227.698 390.866 221.998 398.846C221.428 399.416 220.288 401.126 219.148 399.416C218.578 398.846 219.148 397.706 219.718 397.136C225.988 388.587 233.397 381.177 239.097 372.058C239.097 371.488 240.237 371.488 240.806 371.488C240.806 370.918 241.377 372.058 241.377 372.628Z" fill="#D8AF49"/>
<path d="M204.899 495.169C203.189 495.169 203.759 493.459 203.759 492.889C208.319 484.34 210.599 474.081 215.158 464.962C215.728 463.822 215.728 462.682 217.438 462.682C219.718 463.252 218.008 464.962 217.438 466.101C214.588 474.651 211.169 482.63 207.749 491.179C207.179 492.319 206.609 494.029 204.899 495.169Z" fill="#D8AF49"/>
<path d="M135.364 141.226C141.634 130.967 147.333 120.708 156.453 112.158C157.023 111.588 158.163 110.449 159.302 111.019C160.442 111.589 159.303 112.158 158.733 112.728C149.613 120.708 145.624 133.247 136.504 141.796C135.934 141.796 135.364 141.796 135.364 141.226Z" fill="#D8AF49"/>
<path d="M42.462 386.307C42.462 388.017 42.4619 389.157 44.1718 389.727C45.3117 390.867 45.3117 392.007 44.1718 393.147C44.1718 394.287 43.6019 395.996 42.462 396.566C40.7521 390.867 38.4723 385.167 36.7624 378.898C36.7624 376.618 36.1925 374.908 36.7624 372.628C36.7624 370.348 33.9127 366.359 37.9024 365.219C39.6123 364.649 39.6122 369.208 40.1822 371.488C41.3221 377.188 41.3221 381.747 42.462 386.307Z" fill="#D8AF49"/>
<path d="M224.278 309.933C235.107 306.514 246.506 308.223 257.335 305.944C257.905 305.944 259.045 305.944 259.615 306.514C260.185 307.654 259.045 308.224 257.905 308.224C246.506 309.363 235.677 312.783 224.278 309.933Z" fill="#D8AF49"/>
<path d="M43.0317 398.847C44.1717 398.847 44.7416 398.847 45.8815 398.847C47.0214 398.847 47.0214 399.987 47.5913 400.557C49.3012 403.407 49.3012 406.827 51.0111 409.676C50.4411 415.946 56.7106 417.656 58.9904 422.215C59.5604 423.355 62.4102 425.065 60.1304 426.205C58.4206 427.345 57.2806 424.495 56.1407 423.925C49.3012 416.516 44.7416 407.966 43.0317 398.847Z" fill="#D8AF49"/>
<path d="M74.3795 348.689C75.5194 342.42 77.2294 336.15 81.789 330.451C82.359 329.881 83.4987 329.311 84.0686 329.311C85.7785 329.881 84.6386 331.021 84.0686 332.161C80.6489 337.29 79.5091 342.99 77.7993 348.689C77.2293 349.829 78.3691 352.679 75.5193 352.109C73.8094 352.109 73.8095 350.399 74.3795 348.689Z" fill="#D8AF49"/>
<path d="M248.786 513.978C247.076 517.968 251.066 522.528 245.936 525.947C243.657 521.958 244.796 517.968 244.796 513.978C244.796 509.989 242.517 505.429 247.076 502.579C249.926 505.999 247.646 509.989 248.786 513.978Z" fill="#D8AF49"/>
<path d="M178.682 536.776C176.972 542.475 174.122 547.605 171.272 552.734C170.702 553.304 169.562 553.874 168.992 553.304C167.852 552.735 168.422 551.594 168.422 551.025C171.272 545.325 174.122 539.626 174.692 533.356C174.692 532.216 175.262 531.646 176.402 532.216C179.251 532.786 178.682 535.066 178.682 536.776Z" fill="#D8AF49"/>
<path d="M290.393 539.055C286.403 539.625 287.543 537.915 289.253 536.206C295.522 529.366 302.362 523.097 308.632 516.257C309.201 516.827 309.202 516.827 309.772 517.397C311.481 520.817 309.201 522.527 307.492 524.806C302.932 529.936 297.802 533.926 292.103 537.915C291.533 537.915 290.393 538.485 290.393 539.055Z" fill="#D8AF49"/>
<path d="M100.027 352.11C100.597 346.98 102.308 342.42 104.587 338.431C105.157 337.291 106.297 336.151 106.867 336.721C108.007 337.291 108.007 338.431 107.437 339.571C105.157 343.56 104.017 348.12 103.447 352.68C103.447 353.82 103.447 356.099 102.307 356.099C99.4576 356.099 100.027 353.82 100.027 352.11Z" fill="#D8AF49"/>
<path d="M271.584 459.262C271.015 463.821 267.595 466.671 265.315 470.661C263.605 473.51 262.465 477.5 258.476 479.21C257.336 474.65 261.325 472.37 263.035 468.951C264.745 465.531 267.025 462.111 268.735 458.692C269.305 458.122 269.874 457.552 271.014 458.122C271.584 458.122 271.584 458.692 271.584 459.262Z" fill="#D8AF49"/>
<path d="M238.527 257.497C236.247 263.766 233.967 269.466 231.687 275.166C231.118 275.736 231.118 276.876 229.978 276.876C228.838 276.876 228.838 275.736 229.408 275.166C231.687 269.466 232.827 263.196 236.247 257.497C236.817 256.927 237.387 256.357 237.957 255.787C237.957 256.357 237.957 256.927 238.527 257.497Z" fill="#D8AF49"/>
<path d="M205.469 470.661C204.899 476.361 202.049 480.921 198.63 485.48C198.06 486.05 197.489 486.62 196.919 486.05C195.779 485.48 196.349 484.34 196.919 483.77C199.199 479.211 202.049 475.221 202.049 469.521C202.049 468.382 202.619 467.242 204.329 467.242C205.469 467.812 205.469 468.952 205.469 470.661Z" fill="#D8AF49"/>
<path d="M255.055 214.75C252.775 220.449 249.926 226.149 245.936 231.279C245.366 231.849 244.226 232.419 243.656 231.279C243.086 231.279 243.086 230.139 243.656 229.569C247.076 224.439 249.356 219.31 252.205 213.61C252.775 213.04 253.345 212.47 254.485 213.04C254.485 213.04 254.485 214.18 255.055 214.75Z" fill="#D8AF49"/>
<path d="M227.698 257.497C227.698 261.487 225.988 265.477 224.848 268.896C224.278 270.036 223.138 271.176 222.568 270.606C220.858 270.036 221.998 268.326 222.568 267.186C223.708 263.767 224.848 260.917 225.418 257.497C225.418 255.787 225.418 253.508 227.698 254.078C228.268 253.508 227.698 255.787 227.698 257.497Z" fill="#D8AF49"/>
<path d="M212.309 254.647C210.599 258.637 211.739 263.767 208.889 267.757C204.329 263.197 209.459 258.637 208.319 254.647V254.078C208.319 252.368 208.319 250.088 210.599 250.088C212.879 250.088 211.739 252.938 212.309 254.647Z" fill="#D8AF49"/>
<path d="M205.469 355.53C202.619 360.089 198.629 364.649 196.919 369.779C196.35 370.918 195.78 372.058 194.64 371.488C192.36 370.918 193.5 369.209 194.07 368.069C196.35 362.369 198.63 357.24 204.329 353.82C204.899 354.96 205.469 355.53 205.469 355.53Z" fill="#D8AF49"/>
<path d="M269.304 319.052C270.444 315.063 267.594 308.223 270.444 308.223C275.004 308.223 271.584 315.063 273.864 317.912C275.004 319.052 275.574 322.472 273.294 323.042C269.874 324.182 271.584 319.622 269.304 319.052Z" fill="#D8AF49"/>
<path d="M240.806 498.019C239.666 497.449 239.666 496.879 239.666 495.739C241.376 490.609 243.086 486.049 244.796 480.92C244.796 480.35 245.936 479.21 247.076 479.78C248.216 479.78 248.785 480.92 248.215 481.49C246.505 486.619 244.226 491.749 242.516 496.879C242.516 498.018 241.376 498.019 240.806 498.019Z" fill="#D8AF49"/>
<path d="M253.346 409.104C257.335 411.384 261.325 423.353 257.905 425.633C256.195 426.773 255.625 425.063 255.056 423.353C255.056 418.224 254.486 413.664 253.346 409.104Z" fill="#D8AF49"/>
<path d="M269.305 318.483C268.735 320.192 269.305 322.472 267.595 323.042C265.885 323.612 265.315 321.332 265.315 320.192C264.175 316.203 263.035 308.793 264.175 308.793C269.875 309.363 265.885 316.203 269.305 318.483Z" fill="#D8AF49"/>
<path d="M249.926 323.042C250.496 324.182 249.926 325.892 248.786 326.462C247.076 327.602 246.506 325.322 245.936 324.182C244.796 320.762 243.087 317.343 244.227 313.923C244.227 313.353 245.366 313.353 245.936 313.353C249.926 315.633 247.646 320.192 249.926 323.042Z" fill="#D8AF49"/>
<path d="M253.915 409.106C251.066 406.826 250.496 408.536 248.786 410.816C247.646 412.526 245.936 416.515 244.226 415.375C242.517 414.235 245.936 411.386 247.076 409.106C247.646 407.966 248.216 406.826 248.786 406.256C249.926 404.546 250.496 401.126 253.346 402.836C255.625 403.976 255.625 406.826 253.915 409.106Z" fill="#D8AF49"/>
<path d="M229.407 319.053C229.977 317.343 228.837 314.493 231.117 314.493C233.397 314.493 232.257 317.343 232.827 318.483L233.397 319.053C233.397 321.903 235.677 324.753 235.107 328.172C235.107 328.742 233.967 328.742 233.397 328.742C229.407 325.893 229.977 321.903 229.407 319.053Z" fill="#D8AF49"/>
<path d="M57.851 433.043C57.281 434.753 56.1409 434.753 55.571 433.613C54.4311 432.473 52.7213 430.763 51.5814 429.053C49.8715 426.203 46.4518 425.064 45.8818 421.074C45.8818 421.074 47.0217 420.504 47.5916 420.504C50.4414 421.644 58.4209 431.333 57.851 433.043Z" fill="#D8AF49"/>
<path d="M190.081 531.076C191.221 531.076 191.22 532.216 191.22 532.786C191.22 535.066 190.651 536.776 190.081 538.486C188.371 541.335 187.801 544.755 184.951 547.035C183.241 543.615 186.661 541.335 187.231 538.486C187.801 536.776 187.801 534.496 188.37 532.786C188.37 532.216 188.941 531.076 190.081 531.076Z" fill="#D8AF49"/>
<path d="M247.076 216.46C244.796 221.589 242.516 226.149 239.667 231.279C239.097 232.418 238.527 231.848 237.387 231.848C236.817 231.278 236.817 231.278 237.387 230.709C239.667 226.149 241.377 221.019 244.226 217.03C244.796 216.46 245.366 216.46 246.506 215.89C246.506 215.32 246.506 215.89 247.076 216.46Z" fill="#D8AF49"/>
<path d="M214.588 265.477C215.728 261.487 215.158 256.357 219.148 252.938C221.428 257.497 217.438 261.487 217.438 266.046C217.438 267.186 217.438 269.466 215.728 268.896C214.018 269.466 214.588 267.756 214.588 265.477Z" fill="#D8AF49"/>
<path d="M55.5706 438.743C55.5706 439.313 55.5707 439.883 55.0008 440.453C54.4308 441.023 53.2907 441.023 52.7208 440.453C50.441 437.603 48.1612 434.753 44.7414 433.044C44.1715 432.474 44.1715 431.334 44.7414 430.764C45.3114 430.764 45.8814 430.194 46.4514 430.764C50.4411 432.474 52.7208 435.893 55.5706 438.743Z" fill="#D8AF49"/>
<path d="M244.796 431.335C242.516 435.894 239.667 440.454 237.387 445.014C237.387 445.014 236.247 445.584 235.677 445.014C235.107 445.014 235.107 443.874 235.107 443.874C236.817 438.744 239.097 434.185 242.516 430.765C243.086 430.195 243.656 430.195 244.226 430.195C244.796 430.195 244.796 430.765 244.796 431.335Z" fill="#D8AF49"/>
<path d="M160.443 550.455C159.873 549.885 159.303 549.885 159.303 549.315C161.013 544.755 162.152 540.766 163.862 536.206C163.862 535.636 165.002 535.636 165.002 535.636C165.572 535.636 166.142 536.206 166.142 536.776C165.572 541.336 164.432 545.895 161.583 549.315C161.583 549.885 161.013 550.455 160.443 550.455Z" fill="#D8AF49"/>
<path d="M231.117 555.014C225.987 557.294 220.858 557.864 215.728 557.864C215.158 557.864 212.878 558.434 213.448 556.154C213.448 555.584 214.588 555.014 215.158 555.014C220.857 554.444 225.987 554.444 231.117 555.014Z" fill="#D8AF49"/>
<path d="M239.667 516.827C239.667 518.537 239.667 520.247 239.667 521.387C239.667 522.527 239.667 523.666 237.957 523.666C236.247 523.666 236.247 522.527 236.247 521.387C236.247 520.247 235.677 518.537 236.247 517.397C236.817 515.117 235.677 511.697 237.957 511.697C241.377 512.267 239.667 515.687 239.667 516.827Z" fill="#D8AF49"/>
<path d="M229.407 230.14C231.687 225.58 234.537 221.591 236.817 217.031C237.387 215.891 237.957 215.321 239.097 214.751C239.667 215.891 240.236 217.031 239.097 217.601C236.247 222.161 236.247 229 229.407 230.14Z" fill="#D8AF49"/>
<path d="M173.552 258.067C171.842 258.067 171.842 256.927 172.412 255.787C174.691 251.798 178.111 248.378 182.101 246.098C182.671 246.098 183.241 246.668 183.811 246.668C180.961 250.088 178.111 254.077 174.692 257.497C174.692 258.067 174.122 258.067 173.552 258.067Z" fill="#D8AF49"/>
<path d="M51.0112 444.444C50.4412 445.014 50.4412 446.153 50.4412 446.153C49.8712 446.153 49.3014 446.153 49.3014 445.583C47.5915 443.874 45.8815 442.164 45.3116 440.454C44.1717 438.174 39.612 437.034 42.4618 434.754C44.1717 433.044 46.4515 437.034 48.1614 438.744C48.7313 441.024 49.8712 443.304 51.0112 444.444Z" fill="#D8AF49"/>
<path d="M228.267 532.787C227.127 535.636 225.988 538.486 224.848 541.336C224.278 542.476 223.708 543.046 221.998 542.476C220.858 541.906 221.428 540.766 221.998 540.196C223.138 537.346 224.278 534.496 225.988 531.647C226.558 531.077 227.128 530.507 227.698 529.937C227.698 531.077 227.697 531.647 228.267 532.787Z" fill="#D8AF49"/>
<path d="M102.307 188.533C102.877 190.242 101.737 190.242 101.167 189.672C99.457 189.102 97.1772 188.532 95.4674 187.393C93.7575 186.253 90.9077 184.543 92.6176 182.263C94.3274 179.983 95.4673 183.973 97.1771 184.543C98.887 185.683 101.167 186.823 102.307 188.533Z" fill="#D8AF49"/>
<path d="M39.612 342.99C41.3219 344.7 44.1717 347.55 46.4515 350.4C47.5914 351.54 46.4515 352.11 45.3116 352.11C44.1716 352.11 36.7622 345.27 36.7622 344.13C37.3322 342.99 37.3322 341.85 39.612 342.99Z" fill="#D8AF49"/>
<path d="M87.4886 157.184C86.9187 157.754 86.3484 158.324 85.7785 159.464C85.2085 160.604 84.0686 161.744 82.9287 161.174C82.3587 161.174 82.3589 158.894 82.3589 158.324C82.9288 156.614 82.9287 154.335 85.7785 154.335C87.4884 154.335 86.9187 156.045 87.4886 157.184Z" fill="#D8AF49"/>
<path d="M92.0481 160.604C92.0481 161.174 92.0481 162.314 92.0481 162.884C88.0584 163.454 86.3484 161.744 86.9184 157.755C88.6283 158.324 90.3383 153.195 92.0481 157.755C91.4782 158.324 91.4782 159.464 92.0481 160.604Z" fill="#D8AF49"/>
<path d="M52.7212 557.864H52.1514C49.8716 557.864 47.5917 557.864 45.3119 557.294C44.7419 557.294 44.7419 557.294 45.8819 556.724C48.1617 555.584 50.4414 556.154 52.7212 557.864Z" fill="#D8AF49"/>
<path d="M73.2398 331.021C74.3797 330.451 75.5196 330.451 76.0895 331.591C76.6595 333.301 74.9497 334.441 73.8098 335.011C73.2398 334.441 73.2397 334.441 72.6698 333.871C72.0998 332.731 72.0999 331.591 73.2398 331.021Z" fill="#D8AF49"/>
<path d="M77.2295 141.795C77.7994 140.656 78.9396 140.086 80.6494 140.086C80.6494 140.086 81.2193 140.656 81.2193 141.226C79.5094 141.226 78.3694 141.795 77.2295 141.795Z" fill="#D8AF49"/>
<path d="M76.6592 141.796C76.0892 142.936 74.9493 143.506 73.2394 143.506C73.2394 143.506 72.6694 142.936 72.6694 142.366C74.3793 142.366 75.5193 141.796 76.6592 141.796Z" fill="#D8AF49"/>
<path d="M97.7471 171.433C98.317 169.723 99.4568 169.723 101.167 169.723C100.597 171.433 98.887 170.863 97.7471 171.433Z" fill="#D8AF49"/>
<path d="M284.123 564.704L283.553 564.134H284.123V564.704Z" fill="#D8AF49"/>
<path d="M241.376 263.197C241.376 262.627 241.946 262.057 242.516 262.057L243.086 262.627C243.086 263.197 242.516 263.197 241.376 263.197C241.946 263.197 241.376 263.197 241.376 263.197Z" fill="#D8AF49"/>
<path d="M286.973 531.076C286.973 530.506 286.973 529.366 286.973 528.796C287.543 528.226 288.113 528.226 288.683 528.796C288.683 529.936 287.543 530.506 286.973 531.076Z" fill="#D8AF49"/>
<path d="M277.854 8.42676C282.414 1.58728 294.953 -0.122623 300.652 5.00698C303.502 7.28681 300.082 8.42669 299.512 10.1366C293.243 8.99664 297.803 14.1263 296.663 15.2662C289.253 15.8362 296.093 19.8258 295.523 21.5357C295.523 22.1056 295.523 22.6757 296.093 22.6757L294.953 22.1057C292.103 18.116 290.393 22.1057 288.113 23.2456C284.694 24.9554 287.543 26.6653 288.113 27.8052C288.113 28.9451 289.254 29.5151 289.823 30.655C290.393 31.7949 292.673 34.0747 290.393 34.6447C288.683 35.2146 288.683 32.9348 288.113 31.7949C286.973 31.225 285.264 28.9451 285.264 30.085C285.833 33.5048 281.844 33.5048 281.844 35.7846C281.844 36.9245 282.984 38.6344 283.554 39.7743C284.124 41.4842 286.404 43.194 284.694 44.3339C282.984 45.4738 282.414 42.6241 281.274 41.4841C280.704 40.9142 279.564 40.3443 278.994 40.9142C277.854 41.4842 278.424 42.6241 278.994 43.194C279.564 44.3339 280.134 46.0438 280.704 47.1837C281.274 48.3236 281.274 49.4635 280.704 50.0335C279.564 51.1734 278.994 50.0335 277.854 49.4636C276.714 48.3237 276.714 45.4738 273.864 47.1837C277.284 50.0335 269.875 51.7434 272.725 54.5932C273.865 55.7331 275.004 56.873 273.864 58.0129C272.155 59.7228 272.155 56.873 270.445 56.303C268.735 55.7331 268.165 56.303 268.165 58.5828C267.595 62.5725 265.885 63.7124 262.465 64.2824C258.476 64.2824 259.046 69.412 256.196 70.552L255.626 69.982C256.766 66.5622 258.476 63.7125 260.755 60.8627C263.035 58.0129 260.755 55.7331 259.616 54.0233C257.336 51.7434 256.766 55.1631 255.626 56.303C253.916 57.443 253.346 61.4326 251.636 60.2927C249.926 59.1528 252.206 56.3031 253.346 54.0233C260.186 39.2044 267.025 24.9554 278.424 12.9863C279.564 11.2765 279.564 10.7066 277.854 8.42676Z" fill="white"/>
<path d="M288.683 528.796H288.113L287.543 529.366C280.134 533.926 273.294 539.625 264.745 543.615C256.765 547.035 249.356 551.025 240.807 547.035C237.957 545.895 235.677 548.175 233.397 548.175C232.827 548.175 231.687 547.605 231.117 547.605C231.687 547.035 231.687 545.895 232.257 545.895C240.807 541.905 249.926 539.625 257.905 533.926C258.475 533.926 259.045 533.356 259.615 533.926C260.755 535.066 259.615 535.066 259.045 535.636C258.475 536.206 257.335 536.776 256.765 537.346C256.195 537.915 254.485 538.485 255.055 539.625C255.625 540.765 257.335 539.625 257.905 539.055C265.315 534.496 272.154 529.366 277.854 523.097C281.843 520.817 278.424 527.656 281.274 525.946C282.983 524.806 284.123 522.527 284.123 519.677C285.263 513.407 284.693 507.138 284.693 501.438C284.693 496.879 288.683 495.739 289.823 492.319C289.823 491.749 290.393 491.749 290.963 491.749C290.963 492.319 291.533 493.459 291.533 494.029C289.823 498.588 294.952 504.288 288.683 508.278C293.813 513.977 286.973 520.247 289.823 525.946C290.393 525.946 288.113 527.086 288.683 528.796Z" fill="white"/>
<path d="M281.843 381.178C276.144 378.328 278.424 372.629 277.284 368.069C276.144 364.65 275.004 361.8 273.294 358.38C275.574 357.81 276.714 356.67 275.004 354.39C272.724 352.11 273.864 350.401 275.004 348.121C280.133 348.121 277.854 352.68 278.994 354.96C280.703 358.38 278.423 365.219 282.413 365.219C285.263 365.219 281.273 358.38 281.843 354.96C282.413 350.97 278.424 347.551 281.273 343.561C284.693 346.411 283.553 350.401 284.693 353.82C285.833 358.38 286.403 362.94 287.543 367.499C288.113 368.639 286.973 371.489 289.253 371.489C290.963 370.919 290.393 368.639 289.823 366.929C288.113 357.81 286.403 348.121 284.693 339.001C284.693 337.862 283.553 335.582 285.263 335.582C286.973 335.012 286.973 337.292 287.543 339.001C290.393 349.831 292.672 360.66 293.242 372.059C293.242 375.479 294.382 378.898 296.092 381.748C292.672 388.588 291.532 396.567 289.253 403.976C289.253 404.546 289.823 406.826 287.543 405.686C286.973 405.686 286.973 403.976 286.973 403.406C288.113 397.707 290.393 392.007 290.393 385.738C290.393 383.458 290.393 381.178 290.393 378.898C290.393 378.328 290.393 377.188 288.683 377.188C287.543 377.188 287.543 378.328 287.543 378.898C286.973 383.458 288.113 388.588 286.403 393.717C285.833 395.427 285.833 398.277 284.693 398.277C282.983 398.277 281.843 395.427 281.843 393.147C281.843 390.867 282.413 388.018 282.983 385.738C282.983 382.888 282.983 381.748 281.843 381.178Z" fill="white"/>
<path d="M281.273 497.449C281.273 501.439 281.273 505.429 281.273 509.418C281.273 512.268 279.563 513.408 277.854 513.408C275.004 512.838 277.854 510.558 277.284 509.418C275.574 502.579 276.714 495.739 275.004 489.47C273.864 486.62 273.864 483.77 273.864 480.921C273.864 478.641 274.434 475.791 277.284 474.081C278.424 476.361 278.994 478.071 280.133 480.351C281.843 486.05 281.843 491.75 281.273 497.449Z" fill="white"/>
<path d="M265.885 351.54C260.755 354.39 264.175 359.52 263.605 363.509C263.035 366.359 266.455 371.489 261.895 372.059C257.335 372.629 259.615 367.499 259.045 364.649C257.335 358.95 257.335 353.82 259.615 348.69C260.755 345.841 257.905 347.55 257.905 346.411C257.335 344.701 255.626 342.421 258.475 341.281C260.755 340.141 261.895 341.851 262.465 343.561C261.895 346.98 264.175 349.26 265.885 351.54Z" fill="white"/>
<path d="M265.885 396.566C267.025 392.576 264.745 389.156 262.465 386.306C260.755 384.027 260.185 381.747 260.185 379.467C260.185 377.757 258.475 374.907 261.895 374.907C265.315 374.907 264.175 377.757 264.175 379.467C264.175 381.747 264.745 382.887 267.025 384.027C272.154 386.306 272.724 390.866 271.584 395.996C269.875 400.555 267.595 397.136 265.885 396.566Z" fill="white"/>
<path d="M220.858 352.11C220.858 350.97 218.578 348.691 221.998 347.551C223.708 346.981 225.418 346.981 227.127 348.121C228.837 349.261 228.267 351.54 228.267 353.82C228.267 356.1 225.987 357.24 224.847 358.38C224.277 359.52 223.708 360.66 221.998 360.09C220.288 359.52 220.858 357.81 220.858 356.67C220.858 356.1 220.858 354.39 220.858 352.11Z" fill="white"/>
<path d="M231.117 356.1C232.257 353.82 229.408 349.26 232.827 348.69C236.817 348.69 234.537 353.25 235.107 355.53C235.107 356.1 235.677 356.67 235.107 357.24C234.537 360.09 236.247 364.079 232.257 364.079C229.977 364.079 231.687 359.52 231.117 357.24C231.117 357.24 231.117 356.67 231.117 356.1Z" fill="white"/>
<path d="M278.424 413.096C277.854 415.376 278.424 418.795 275.574 419.365C273.294 419.935 273.864 417.086 273.864 415.376C273.294 412.526 273.864 410.246 276.713 408.536C277.853 410.246 278.424 411.956 278.424 413.096Z" fill="white"/>
<path d="M285.834 491.749C285.264 490.039 284.694 489.469 284.694 488.899C284.124 485.479 286.973 483.199 288.113 480.35C288.113 479.78 289.253 478.64 289.823 480.35C290.963 482.629 289.253 484.909 288.113 486.619C287.543 488.329 286.974 489.469 285.834 491.749Z" fill="white"/>
<path d="M265.885 351.54C272.155 348.69 268.735 355.53 271.015 356.67C269.875 357.24 269.875 358.38 269.875 359.52C269.875 360.659 269.875 361.799 268.165 361.799C267.025 361.799 267.025 360.659 267.025 360.089C268.165 356.67 265.885 354.39 265.885 351.54Z" fill="white"/>
<path d="M255.625 71.1217C255.055 74.5415 252.205 76.8213 251.065 80.241C251.065 80.811 249.355 81.3809 249.355 81.3809C248.785 80.8109 248.785 79.6711 249.355 79.1011C251.065 76.2513 252.205 72.8316 255.055 70.5518C255.625 70.5518 255.625 70.5518 255.625 71.1217Z" fill="white"/>
<path d="M221.998 342.42C223.138 342.99 223.708 342.99 224.278 343.56C223.138 344.7 221.428 344.13 220.288 344.7C219.718 344.7 218.578 344.7 218.578 343.56C219.718 342.99 221.428 342.99 221.998 342.42Z" fill="white"/>
<path d="M274.434 348.12C273.294 346.981 272.154 346.411 273.864 344.701C274.434 344.701 275.004 344.701 275.574 344.701C276.714 346.411 274.434 346.981 274.434 348.12Z" fill="white"/>
<path d="M267.595 348.12C267.025 348.12 266.455 348.12 266.455 347.55L267.025 346.98C267.595 346.98 268.164 347.55 268.164 347.55C268.164 347.55 268.165 348.12 267.595 348.12Z" fill="white"/>
<path d="M281.273 381.177C281.273 381.747 280.703 381.748 280.703 382.317C280.133 381.178 280.704 381.177 281.273 381.177Z" fill="white"/>
<path d="M271.014 356.669L272.724 358.379C272.154 358.379 271.014 357.809 271.014 356.669Z" fill="white"/>
<path d="M214.019 172.003C214.019 173.143 214.019 174.283 214.019 175.423C214.019 177.703 214.589 181.693 211.739 181.693C209.459 181.693 210.599 177.703 210.029 175.993C208.32 164.594 206.04 153.765 203.19 142.936C202.62 141.226 202.62 137.806 199.77 138.946C197.49 140.086 199.2 142.366 199.77 144.076C203.76 153.765 205.47 164.594 207.18 174.853C207.18 175.993 207.749 177.133 206.609 177.703C206.039 177.703 205.47 176.563 204.9 175.993C199.2 169.154 193.5 162.884 196.92 152.625C198.63 146.355 195.78 139.516 194.07 133.247C193.5 132.107 192.931 130.397 194.641 129.257C195.21 128.687 196.92 129.827 198.06 129.827C208.889 133.246 210.599 143.506 212.879 152.055C213.449 159.464 214.019 165.734 214.019 172.003Z" fill="white"/>
<path d="M184.381 112.159C185.521 112.729 186.661 112.729 187.801 113.299C184.381 119.568 191.221 118.998 193.5 121.278C194.07 121.848 195.78 122.418 196.92 122.418C210.029 126.408 216.299 135.527 217.439 149.206C218.009 154.905 218.009 160.605 221.428 166.305C222.568 168.014 220.288 171.434 218.008 172.004C215.729 172.574 216.299 169.724 216.299 168.014C216.869 157.185 212.309 147.496 211.739 137.237C211.739 134.387 207.179 133.247 204.33 131.537C198.63 128.118 191.79 126.978 186.661 122.418C183.241 118.998 181.531 116.718 184.381 112.159Z" fill="white"/>
<path d="M213.449 129.827C218.578 129.257 220.858 130.967 221.998 136.097C224.278 144.646 223.138 153.195 224.848 161.745C224.848 162.315 224.278 163.455 223.708 163.455C221.998 164.024 221.998 162.885 221.998 161.745C220.858 156.045 220.288 150.346 219.148 144.646C218.008 139.516 216.868 134.387 213.449 129.827Z" fill="white"/>
<path d="M185.52 128.687C184.95 127.547 184.95 126.977 185.52 126.977C186.66 126.977 187.23 126.977 187.23 128.117C190.08 133.816 191.22 140.086 192.36 145.785C192.36 146.355 191.79 147.495 191.79 148.065C191.22 147.495 190.65 146.925 190.08 146.355C188.94 140.086 187.23 133.816 185.52 128.687Z" fill="white"/>
<path d="M214.019 129.826C213.449 129.256 212.879 129.256 212.879 128.686C214.019 128.116 214.019 128.686 214.019 129.826Z" fill="white"/>
<path d="M271.584 244.958C271.584 246.097 271.584 247.807 270.444 247.807C267.595 247.807 266.455 245.527 266.455 243.248C266.455 241.538 267.025 238.688 268.735 239.258C270.444 239.828 271.014 243.248 271.584 244.958Z" fill="white"/>
<path d="M282.984 211.331C282.414 211.901 282.414 211.901 281.844 211.901C281.274 210.761 280.704 210.191 280.134 209.051C280.134 208.481 280.704 207.912 280.704 207.912C281.274 209.052 282.414 210.191 282.984 211.331Z" fill="white"/>
<path d="M277.284 200.502L276.714 201.072V200.502C277.284 199.932 277.284 199.932 277.284 200.502Z" fill="white"/>
<path d="M271.014 197.082C272.154 197.651 272.154 198.221 272.154 198.791C272.154 199.361 271.584 199.361 271.014 199.361C271.014 198.791 271.584 197.651 271.014 197.082Z" fill="white"/>
<path d="M278.994 205.631C278.994 205.631 278.424 205.061 278.994 205.631C278.424 205.061 278.994 204.491 278.994 204.491C278.994 204.491 279.564 205.061 278.994 205.631C279.564 205.061 278.994 205.631 278.994 205.631Z" fill="white"/>
<path d="M17.3835 507.708C22.5131 514.547 24.2229 523.096 27.0726 531.076C28.7825 536.205 25.3628 539.055 22.5131 539.625C19.6633 540.195 15.6737 539.625 15.1037 534.495C12.8239 520.817 12.8237 507.138 12.8237 493.459C12.8237 491.749 13.3938 489.469 13.9637 487.759C13.9637 487.189 14.5336 486.049 15.6735 486.619C16.8134 486.619 17.3835 487.189 17.3835 488.329C17.3835 491.179 19.6632 493.459 19.0933 496.878C17.9534 496.308 16.2436 495.169 15.1037 495.739C12.8239 496.308 14.5337 498.018 14.5337 499.158C16.2436 500.868 18.5234 504.288 17.3835 507.708C13.3938 513.977 17.9534 519.107 19.0933 524.806C19.0933 525.376 19.0933 525.946 19.6633 526.516C19.6633 525.946 19.6632 525.376 19.0933 524.806C18.5233 519.107 13.9637 513.977 17.3835 507.708Z" fill="white"/>
<path d="M31.6326 529.366C31.6326 530.506 31.6326 531.646 31.0626 532.786C29.3528 532.786 29.3528 531.076 28.7828 529.366C27.6429 523.667 26.503 517.397 25.3631 511.697C25.3631 510.558 24.2232 508.848 26.5031 508.848C28.2129 508.848 29.3528 509.988 29.3528 511.697C30.4927 516.827 30.4927 523.097 31.6326 529.366Z" fill="white"/>
<path d="M21.3738 551.595C22.5138 547.035 24.2237 541.905 28.2134 538.486C28.7833 537.916 29.9233 536.776 31.0632 537.346C32.2031 538.486 31.0631 539.056 30.4932 540.196C28.2134 544.185 25.9335 548.175 24.7936 552.735C24.7936 553.875 24.7937 556.154 23.0838 555.584C20.804 555.584 21.3738 553.305 21.3738 551.595Z" fill="white"/>
<path d="M111.426 570.403L96.0376 566.983C96.6076 564.134 98.3172 562.424 101.167 561.854C99.4571 564.134 98.8872 565.843 102.307 566.413C105.727 567.553 109.717 568.123 113.136 568.693C112.566 569.263 111.996 569.833 111.426 570.403Z" fill="white"/>
<path d="M27.6433 503.148C24.2236 499.158 23.0836 494.028 21.3738 489.469C20.8038 488.329 21.3738 487.189 21.9438 486.049C22.5137 486.619 23.6536 487.759 24.2236 488.329C26.5034 492.888 28.2134 496.878 28.7833 502.008C28.7833 502.578 28.7833 503.148 29.3533 503.148C28.7833 503.148 28.2133 503.148 27.6433 503.148Z" fill="white"/>
<path d="M29.9229 466.101C29.9229 469.52 29.9229 473.51 29.9229 476.93C29.9229 478.07 29.3531 478.64 29.3531 479.779C29.3531 479.21 28.7831 478.07 28.7831 477.5C28.7831 474.08 27.6431 469.52 29.9229 466.101Z" fill="white"/>
<path d="M5.41455 554.444C6.55446 553.874 7.69438 553.875 8.26433 553.305C9.40424 552.735 8.83432 549.315 11.6841 551.025C12.2541 551.025 11.6841 553.304 11.6841 553.874C11.6841 556.724 9.9742 556.154 8.26433 556.154C7.12442 556.154 5.98451 555.584 5.41455 554.444Z" fill="white"/>
<path d="M31.6329 455.272C32.2028 459.262 32.2027 462.682 29.9229 466.101C29.9229 462.682 28.7831 458.692 31.6329 455.272Z" fill="white"/>
<path d="M19.664 495.74C20.2339 496.309 20.8038 496.879 21.3738 497.449C21.9437 498.589 23.6536 500.869 21.3738 501.439C19.6639 502.009 20.2339 499.729 19.664 498.019C19.094 497.449 19.664 496.309 19.664 495.74Z" fill="white"/>
<path d="M28.7824 502.008C29.9223 503.148 29.9223 503.718 29.3524 504.858C28.7824 504.288 28.2124 503.718 28.2124 502.578C28.2124 502.578 28.2124 502.578 28.7824 502.008Z" fill="white"/>
<path d="M47.5913 188.532C44.7415 187.392 43.6016 181.123 41.8917 182.263C39.042 184.543 43.0316 187.962 44.1715 190.812C45.3114 193.662 46.4515 196.512 48.7313 198.791C52.151 202.211 48.7312 205.631 47.0213 208.481C46.4514 209.621 45.3115 209.051 44.7415 209.051C39.042 206.201 37.3321 199.931 33.9124 194.802C31.6326 191.952 33.9123 189.672 35.6222 187.392L36.1922 186.822C38.472 190.242 39.6119 194.802 41.8917 198.221C40.1819 194.802 38.472 190.812 36.7622 187.392L36.1922 186.822C36.1922 182.263 39.042 178.843 41.8917 175.993C44.7415 179.983 47.5913 183.973 47.5913 188.532Z" fill="white"/>
<path d="M47.0211 188.532C48.161 188.532 51.5808 191.382 50.4408 186.822C49.3009 182.262 47.0211 178.273 45.3113 174.283C44.7413 173.143 43.6014 172.003 45.3113 171.433C45.8812 171.433 47.0211 172.003 47.0211 172.573C48.7309 178.843 55.0006 183.972 52.1508 191.382C51.5809 193.092 51.5807 195.371 49.8709 195.941C48.161 195.941 48.161 193.092 47.5911 191.952C47.5911 190.812 47.591 189.672 47.0211 188.532Z" fill="white"/>
<path d="M45.3115 168.014C45.8815 168.014 47.0214 168.014 47.5913 168.014C48.7312 168.014 49.8711 168.014 50.4411 169.154C50.4411 169.724 50.4411 170.294 50.4411 170.864C49.3012 170.294 48.1613 170.294 47.5913 169.724C46.4514 169.154 45.8815 168.014 45.3115 168.014Z" fill="white"/>
<path d="M61.2703 223.87C60.7003 224.44 60.1305 225.58 59.5605 225.01C58.9905 224.44 59.5606 223.87 60.7005 223.3C61.2704 223.3 61.2703 223.3 61.2703 223.87Z" fill="white"/>
<path d="M73.2396 331.022L72.6696 333.872C70.3898 335.581 69.8199 338.431 68.68 340.711C67.5401 342.991 66.4001 341.851 64.6903 340.711C64.1203 340.141 63.5503 340.141 64.1203 340.141L64.6903 339.571C66.9701 337.861 67.5401 335.581 68.11 332.732C68.11 332.162 68.68 331.022 67.5401 330.452C66.4001 329.882 65.8303 331.022 65.8303 331.592C64.6903 333.871 62.4104 333.871 61.2705 332.162C59.5606 329.312 62.9805 331.592 63.5505 330.452C64.1204 328.172 62.4104 328.172 61.2705 327.602C55.001 323.612 49.3014 318.483 44.1718 313.353C43.0319 312.213 40.7521 310.503 42.462 309.363C44.1719 307.653 44.7419 310.503 45.8818 311.643C53.8612 320.192 62.9804 326.462 73.2396 331.022Z" fill="white"/>
<path d="M64.6899 339.571C64.6899 340.141 64.6899 340.141 64.6899 340.711C54.4307 339.001 49.8711 329.882 43.0317 323.613C42.4617 323.043 41.8918 321.903 43.0317 321.333C43.0317 321.333 44.1715 321.903 44.7415 321.903C51.5809 328.172 57.8505 333.872 64.6899 339.571Z" fill="white"/>
<path d="M289.823 309.934C289.823 311.074 289.823 312.784 289.253 312.214C287.543 309.934 286.973 307.084 286.403 304.234C286.403 303.664 286.973 302.525 286.973 301.955C289.253 304.234 289.823 307.084 289.823 309.934Z" fill="white"/>
<path d="M247.076 534.495H247.646C247.076 534.495 247.076 535.065 246.506 535.065C246.506 535.065 246.506 535.065 245.936 534.495C246.506 534.495 246.506 534.495 247.076 534.495Z" fill="white"/>
<path d="M92.0482 160.604C89.7684 159.464 91.4782 158.324 92.0482 157.184C92.6181 158.324 92.0482 159.464 92.0482 160.604Z" fill="white"/>
<path d="M103.447 154.335H104.017V154.905L103.447 154.335Z" fill="white"/>
<path d="M255.626 282.006C255.056 283.146 253.916 283.715 252.776 283.145C252.776 281.436 254.486 283.146 255.626 282.006Z" fill="#D8AF49"/>
<path d="M259.045 282.006C259.045 282.576 259.615 282.576 259.045 282.006C259.615 283.146 259.045 283.146 259.045 282.006Z" fill="#D8AF49"/>
<path d="M248.216 273.457L247.646 274.027C247.646 274.027 247.646 274.026 248.216 273.457Z" fill="#D8AF49"/>
<path d="M285.263 547.605C285.263 547.035 285.833 547.035 285.833 546.465C285.833 547.035 285.833 547.035 285.263 547.605Z" fill="white"/>
<path d="M51.0111 409.106C48.1613 406.826 47.5913 403.406 47.5913 399.986C49.3012 402.836 51.0111 405.686 51.0111 409.106Z" fill="white"/>
<path d="M47.5916 400.556C47.0217 399.987 46.4518 399.417 45.8818 398.847C45.8818 398.277 45.8817 397.137 47.0216 397.137C47.0216 397.707 47.0217 398.847 47.5916 400.556Z" fill="white"/>
<path d="M44.1719 393.146C44.1719 392.007 44.172 390.867 43.6021 389.727C44.742 389.157 45.3118 389.157 45.3118 390.297C45.3118 391.437 45.8817 392.576 44.1719 393.146Z" fill="white"/>
<path d="M17.3838 507.707C17.9538 515.687 20.2336 522.526 22.5134 529.936C23.0833 531.075 23.0833 533.355 21.9434 533.925C20.2335 534.495 19.6636 532.785 19.0936 531.075C17.3838 525.376 15.6739 519.676 13.9641 513.977C13.9641 511.697 12.8242 507.707 17.3838 507.707Z" fill="#D8AF49"/>
<path d="M36.7622 186.823C43.6017 189.672 42.4618 197.652 46.4515 202.781C45.8816 203.351 45.3115 203.921 45.3115 203.351C44.7416 202.781 43.6017 202.781 43.0318 202.211C40.182 197.652 37.3322 192.522 36.7622 186.823Z" fill="#D8AF49"/>
</g>
</svg>
