<svg width="266" height="267" viewBox="0 0 266 267" fill="none" xmlns="http://www.w3.org/2000/svg">
<path opacity="0.1" d="M142.543 80.9047C143.375 81.3443 145.454 83.1028 144.622 80.0257C143.375 76.0694 142.127 71.6733 140.88 67.717C140.464 66.8378 140.048 65.9587 140.88 65.5191C141.711 65.0795 142.127 66.3985 142.543 66.8381C145.038 70.3548 146.701 73.8715 147.949 77.8278C148.78 80.0257 149.196 83.1027 152.107 83.9818C150.443 78.7068 148.364 73.8713 146.701 68.5962C146.285 67.7171 146.285 67.2775 146.701 66.3983C147.117 66.8379 147.533 67.2774 147.949 67.717C150.859 71.6733 152.107 76.5089 154.186 80.4652C155.017 81.784 155.433 83.5423 156.265 84.8611C156.681 85.3007 157.096 85.7403 157.512 85.7403C158.344 85.3007 157.928 84.4214 157.512 83.9818C155.849 80.0255 154.186 76.5089 152.938 72.5527C152.522 71.6735 152.107 70.7942 152.522 70.7942C153.354 70.3546 153.77 71.6733 154.186 72.1129C156.265 73.4317 156.681 75.6298 157.928 77.8278C159.591 81.3445 161.254 84.4215 162.918 87.9382C163.334 88.8174 163.749 89.6965 164.581 89.257C165.828 88.3778 164.581 87.4986 164.165 87.059C161.254 82.6631 159.175 78.2672 157.928 72.9921C157.928 72.113 157.096 71.2339 157.928 70.3547C157.928 70.3547 159.175 71.2339 159.591 71.2339C160.007 71.6735 160.839 72.1131 161.254 71.2339C161.67 70.3548 160.839 70.3545 160.423 69.915C157.512 66.3983 155.017 62.442 154.186 57.6065C154.186 56.7274 153.77 55.4088 152.938 55.8484C151.691 56.2879 152.107 57.6066 152.522 58.4858C152.938 60.2441 153.77 62.0024 154.602 63.3211C155.017 64.2003 155.433 65.0797 155.433 65.9588C155.433 66.838 155.433 68.1567 155.017 68.5962C154.186 69.0358 153.77 67.7171 153.354 67.2775C151.275 63.7608 149.196 60.2442 149.196 55.8484C149.196 54.9692 149.196 53.2107 147.949 53.2107C146.285 53.2107 147.117 54.9691 147.117 56.2878C147.117 57.167 147.117 58.0461 147.533 58.9253C147.949 60.244 149.196 62.0025 147.533 62.8817C147.117 63.3212 145.869 60.6837 145.454 59.8045C144.622 58.0461 143.79 55.8484 143.375 53.6504C142.959 52.7712 142.959 51.4524 144.622 51.8919C147.117 52.3315 145.87 51.4524 145.038 50.5732C144.206 49.2545 142.959 48.3752 142.543 46.6168C142.543 45.7377 143.375 46.1772 144.206 45.7376L144.622 45.2981C142.127 41.7814 140.048 38.2647 135.474 36.5064C132.979 35.6272 131.732 31.671 129.653 29.4731C127.574 26.8355 125.911 23.7584 123 22C123 25.9563 126.326 27.275 128.405 29.9125C132.564 36.0668 136.722 41.7814 140.88 47.4961C141.296 47.9357 142.543 48.8148 141.296 49.694C140.464 50.1336 139.632 49.2544 139.217 48.8148C137.969 47.0564 136.306 45.7378 135.058 43.9794C134.643 44.419 134.227 44.8584 135.058 45.7376C137.553 48.8147 139.217 52.771 137.137 56.7273C136.306 58.0461 137.553 59.3649 137.969 60.6837C138.801 68.1567 141.711 74.3108 142.543 80.9047Z" fill="#D8AF49"/>
<path opacity="0.1" d="M146.23 68.3084C148.725 64.7917 148.309 61.2752 145.814 57.7585C144.983 56.4397 143.735 56 142.488 56C140.825 56.4396 141.24 57.7584 141.24 59.0772C140.409 63.9126 141.656 66.1105 146.23 68.3084Z" fill="#D8AF49"/>
<path opacity="0.1" d="M130.237 36C126.911 36 124 39.0773 124 43.0336C124 46.1107 126.495 48.3087 129.822 48.3087C133.148 48.3087 135.643 44.7919 135.227 40.8356C135.227 37.7585 133.564 36 130.237 36Z" fill="#D8AF49"/>
<path opacity="0.1" d="M69 90.11C71.9062 91.3473 74.8125 91.3473 72.4875 96.2965C71.9062 97.5338 72.4875 99.3898 73.0688 100.627C73.65 101.246 74.2312 102.483 75.3937 102.483C76.5562 102.483 76.5561 101.245 76.5561 100.008C77.1373 99.3896 75.9749 96.9152 77.7186 97.5338C78.8811 97.5338 78.8812 98.7709 78.8812 100.008V100.627C80.0437 102.483 79.4624 107.432 81.7874 106.814C84.6936 105.576 81.2061 103.102 81.2061 100.627C81.2061 99.3898 80.0437 98.1525 81.7874 97.5338C83.5311 96.9152 83.5311 98.7709 84.1123 100.008C84.1123 103.101 84.6936 106.195 87.0185 108.669C87.5998 109.288 88.7622 110.525 89.3435 109.907C90.5059 109.288 89.3434 108.051 88.7622 107.432C87.0185 104.339 87.5998 101.245 87.5998 98.7708C87.5998 97.5335 87.5997 96.2962 89.3435 95.6776C91.0872 95.6776 91.6684 96.915 91.6684 98.1523C92.2496 101.864 92.8308 105.576 93.9933 109.288C95.1558 113.618 99.8059 109.907 102.131 113C102.131 113 102.131 111.762 101.55 111.144C98.6434 106.195 98.062 101.246 100.387 95.0591C102.712 89.4913 102.131 83.3049 105.618 77.7371C106.199 77.1184 106.2 75.8812 105.037 75.8812C104.456 75.8812 103.293 75.8811 103.293 76.4997C102.131 78.3557 100.968 80.2117 100.387 82.0677C99.2245 84.5423 98.0621 85.7793 95.7372 84.542C92.2497 83.3047 93.9934 81.449 94.5746 78.9744C95.1558 77.7372 97.4809 76.4996 95.7372 75.2623C94.5747 74.6437 93.4122 76.4998 92.2497 77.7371C91.0872 78.9744 91.0872 80.8302 89.9247 82.6862C88.181 85.1608 85.2748 84.5422 83.531 83.9235C80.6248 83.3049 82.9498 80.8302 83.531 79.5929C85.856 74.6438 80.6248 75.8809 79.4623 74.025C78.2998 71.5504 76.5562 74.0251 75.3937 76.4997C74.8125 78.3557 74.2312 80.2115 72.4875 81.4488C71.325 85.1607 72.4875 87.0166 75.975 86.3979C77.1375 86.3979 77.7187 85.1608 78.2999 83.9235C78.2999 85.7795 77.1375 86.3981 75.975 87.0168C73.0688 85.7795 69 85.1608 69 90.11Z" fill="#D8AF49"/>
<path opacity="0.1" d="M167.557 127.336C167.852 131.15 169.907 133.205 161.224 138.601C159.053 139.949 156.824 143 155.475 145.171C155.006 146.462 153.658 148.633 154.48 149.455C155.302 150.277 157.061 148.517 158.821 146.757C160.112 146.288 162.81 141.947 163.163 144.059C163.985 144.881 162.225 146.641 160.465 148.401L159.585 149.281C157.767 152.743 150.317 159.371 152.841 160.135C156.656 160.43 157.71 154.445 161.229 150.925C162.989 149.165 163.927 146.583 166.04 146.937C168.153 147.29 165.513 149.929 164.164 152.1C159.765 156.499 155.776 161.31 153.9 166.474C153.432 167.765 152.494 170.346 153.785 169.878C155.486 169.82 156.424 167.238 156.893 165.947C160.06 160.314 164.871 156.326 168.39 152.806C170.15 151.046 171.91 149.286 174.023 149.639C175.256 150.872 173.907 153.043 172.147 154.803C167.278 160.494 162.41 166.184 157.953 172.285C152.615 179.267 161.183 177.276 158.427 183.319C158.427 183.319 160.187 181.559 160.656 180.268C165.64 171.174 172.268 163.724 182.711 156.569C192.275 150.293 200.662 141.084 211.048 135.63C212.339 135.162 214.098 133.402 213.276 132.58C212.865 132.169 212.043 131.347 211.164 132.227C207.702 134.044 204.24 135.862 201.189 138.091C196.848 140.788 194.266 141.726 194.382 138.322C193.676 134.096 197.548 132.69 201.479 129.581C203.65 128.233 207.054 128.116 207.581 125.124C207.638 123.422 204.176 125.24 201.595 126.177C199.013 127.115 196.373 129.755 192.912 131.573C188.159 133.859 186.984 130.924 186.631 128.812C185.456 125.877 190.619 124.001 192.79 122.652C201.473 117.257 196.015 115.317 197.832 111.856C200.53 107.514 195.777 109.801 191.436 112.499C188.385 114.727 185.334 116.956 182.341 117.483C176.24 121.94 174.422 125.402 177.768 126.988C178.59 127.81 180.761 126.461 182.932 125.113C180.292 127.752 178.59 127.81 176.888 127.868C176.593 124.053 174.596 120.296 167.557 127.336Z" fill="#D8AF49"/>
<path d="M85.7206 122.757C84.3718 121.515 83.6976 120.272 81.6744 121.515C81 121.515 81 122.136 81 122.757C82.3488 123.379 83.6976 123.379 85.0464 124C85.7208 124 86.395 124 85.7206 122.757Z" fill="white"/>
<path opacity="0.1" d="M131.005 18.0444L131.014 18.0423L131.023 18.0402C131.991 17.8082 133.002 17.8462 133.946 18.1484C134.888 18.45 135.727 19.0033 136.374 19.7481C136.376 19.7498 136.377 19.7515 136.379 19.7532L237.947 138.318L171.443 204.822L51.6858 104.485C51.6843 104.484 51.6828 104.483 51.6813 104.481C50.9214 103.836 50.3552 102.992 50.0453 102.043C49.7348 101.091 49.6937 100.07 49.928 99.0919L47.4969 98.5094L49.9321 99.0748C55.0535 77.0155 64.3741 59.3349 77.8122 45.9038C91.2504 32.4726 108.938 23.1589 131.005 18.0444Z" stroke="#D8AF49" stroke-width="5"/>
<path opacity="0.1" d="M192.874 159.233C173.517 178.59 163.54 199.997 170.59 207.047C177.639 214.096 199.046 204.119 218.403 184.763C237.76 165.406 247.737 143.999 240.687 136.949C233.637 129.899 212.231 139.876 192.874 159.233Z" fill="#D8AF49"/>
<path opacity="0.1" d="M182.177 203.922C187.65 172.742 205.39 155.002 235.399 150.7L255.615 170.916L202.393 224.138L182.177 203.922Z" fill="#D8AF49"/>
<path opacity="0.1" d="M219.052 187.575C204.355 202.272 196.994 218.739 202.61 224.355C208.225 229.97 224.692 222.609 239.389 207.912C254.086 193.215 261.447 176.748 255.832 171.133C250.216 165.517 233.749 172.878 219.052 187.575Z" fill="#D8AF49"/>
<path opacity="0.1" d="M227.922 198.609C226.489 200.043 225.907 201.786 226.624 202.503C227.341 203.22 229.085 202.639 230.519 201.205C231.952 199.771 232.534 198.028 231.817 197.311C231.1 196.594 229.356 197.175 227.922 198.609Z" fill="#D8AF49"/>
<path opacity="0.1" d="M215.807 210.725C214.373 212.158 213.792 213.902 214.509 214.619C215.225 215.336 216.969 214.755 218.403 213.321C219.837 211.887 220.418 210.143 219.701 209.427C218.984 208.71 217.24 209.291 215.807 210.725Z" fill="#D8AF49"/>
<path opacity="0.1" d="M218.836 201.638C217.402 203.072 216.821 204.815 217.538 205.532C218.255 206.249 219.998 205.668 221.432 204.234C222.866 202.8 223.447 201.057 222.73 200.34C222.013 199.623 220.27 200.204 218.836 201.638Z" fill="#D8AF49"/>
<path opacity="0.1" d="M229.653 188.224C228.219 189.658 227.638 191.402 228.355 192.119C229.072 192.836 230.816 192.254 232.25 190.821C233.683 189.387 234.265 187.643 233.548 186.926C232.831 186.209 231.087 186.791 229.653 188.224Z" fill="#D8AF49"/>
</svg>
