<svg width="88" height="49" viewBox="0 0 88 49" fill="none" xmlns="http://www.w3.org/2000/svg">
<path d="M19.4321 27.363C15.0258 27.363 11.4787 23.7939 11.4787 19.4096C11.4787 15.0033 15.0478 11.4562 19.4321 11.4562C21.5692 11.4562 23.53 12.3155 24.962 13.6814L28.0024 10.4428C25.7772 8.30572 22.7589 7.00586 19.4321 7.00586C12.5803 7.00586 7.02832 12.5578 7.02832 19.4096C7.02832 26.2615 12.5803 31.8134 19.4321 31.8134C22.6928 31.8134 25.645 30.5576 27.8482 28.5087L24.8078 25.27C23.3978 26.5699 21.5031 27.363 19.4321 27.363Z" fill="white"/>
<path d="M38.8197 19.4098C38.4672 8.76857 30.1392 0 19.4098 0C8.68045 0 0 8.68044 0 19.4098C0 25.0058 2.37941 30.0731 6.19088 33.5982L9.18717 30.4036C6.23494 27.6717 4.38428 23.75 4.38428 19.4098C4.38428 11.1259 11.1039 4.38428 19.4098 4.38428C27.7157 4.38428 34.171 10.7514 34.5015 19.0353C34.7879 26.2176 27.8039 33.8405 21.4808 39.0179V34.3693H17.3389V42.1685V42.9175V48.1831C24.7635 41.5516 39.2162 31.1306 38.8197 19.4098Z" fill="#D8AF49"/>
<path d="M43.5558 37.9167H43.8863L43.5338 39.2386H45.2523L45.6048 37.9167H45.9352L45.1421 40.913H44.7896L45.1641 39.5691H43.4677L43.0932 40.913H42.7627L43.5558 37.9167Z" fill="white"/>
<path d="M46.3988 39.9661V40.0102C46.3988 40.2085 46.4649 40.3627 46.5751 40.4949C46.6852 40.605 46.8615 40.6711 47.0598 40.6711C47.192 40.6711 47.3242 40.6491 47.4343 40.605C47.5445 40.561 47.6326 40.4949 47.7428 40.4068L47.919 40.6271C47.8089 40.7152 47.6987 40.8033 47.5445 40.8694C47.4123 40.9355 47.236 40.9576 47.0377 40.9576C46.8835 40.9576 46.7513 40.9355 46.6412 40.8915C46.531 40.8474 46.4209 40.7813 46.3327 40.6932C46.2446 40.605 46.1785 40.5169 46.1345 40.4068C46.0904 40.2966 46.0684 40.1644 46.0684 40.0322C46.0684 39.856 46.0904 39.7017 46.1565 39.5255C46.2226 39.3713 46.3107 39.2171 46.4209 39.0849C46.531 38.9527 46.6632 38.8425 46.8395 38.7764C47.0157 38.7103 47.1699 38.6663 47.3462 38.6663C47.4784 38.6663 47.6106 38.6883 47.7207 38.7324C47.8309 38.7764 47.919 38.8425 47.9851 38.9086C48.0512 38.9747 48.1173 39.0849 48.1393 39.173C48.1834 39.2831 48.2054 39.3933 48.2054 39.5035C48.2054 39.5696 48.2054 39.6577 48.1834 39.7238C48.1614 39.7899 48.1614 39.856 48.1173 39.9221H46.3988C46.3988 39.9441 46.3988 39.9441 46.3988 39.9661ZM47.8529 39.6797C47.875 39.6357 47.8749 39.5696 47.8749 39.5035C47.8749 39.4153 47.875 39.3492 47.8529 39.2831C47.8309 39.2171 47.8089 39.151 47.7428 39.1069C47.6987 39.0628 47.6326 39.0188 47.5665 38.9747C47.5004 38.9527 47.4123 38.9306 47.3242 38.9306C47.214 38.9306 47.1038 38.9527 47.0157 38.9967C46.9276 39.0408 46.8395 39.0849 46.7513 39.151C46.6852 39.2171 46.6191 39.3052 46.5531 39.3933C46.487 39.4814 46.4649 39.5696 46.4209 39.6797H47.8529Z" fill="white"/>
<path d="M49.0191 38.7102H49.3496L49.1954 39.283C49.2615 39.1949 49.3276 39.1067 49.4157 39.0186C49.4818 38.9305 49.5699 38.8644 49.658 38.8203C49.7462 38.7763 49.8343 38.7322 49.9444 38.6881C50.0326 38.6661 50.1427 38.6441 50.2529 38.6661L50.1648 39.0186H50.1427C50.0326 39.0186 49.9004 39.0407 49.7902 39.0847C49.6801 39.1288 49.5699 39.1949 49.4597 39.283C49.3496 39.3711 49.2615 39.4813 49.1954 39.6135C49.1072 39.7457 49.0632 39.8778 49.0191 40.0541L48.7768 40.9354H48.4463L49.0191 38.7102Z" fill="white"/>
<path d="M50.6288 39.9661V40.0102C50.6288 40.2085 50.6949 40.3627 50.8051 40.4949C50.9152 40.605 51.0915 40.6711 51.2898 40.6711C51.422 40.6711 51.5541 40.6491 51.6643 40.605C51.7745 40.561 51.8626 40.4949 51.9727 40.4068L52.149 40.6271C52.0388 40.7152 51.9287 40.8033 51.7745 40.8694C51.6423 40.9355 51.466 40.9576 51.2677 40.9576C51.1135 40.9576 50.9813 40.9355 50.8712 40.8915C50.761 40.8474 50.6508 40.7813 50.5627 40.6932C50.4746 40.605 50.4085 40.5169 50.3644 40.4068C50.3204 40.2966 50.2983 40.1644 50.2983 40.0322C50.2983 39.856 50.3204 39.7017 50.3865 39.5255C50.4526 39.3713 50.5407 39.2171 50.6508 39.0849C50.761 38.9527 50.8932 38.8425 51.0694 38.7764C51.2457 38.7103 51.3999 38.6663 51.5762 38.6663C51.7084 38.6663 51.8406 38.6883 51.9507 38.7324C52.0609 38.7764 52.149 38.8425 52.2151 38.9086C52.2812 38.9747 52.3473 39.0849 52.3693 39.173C52.4134 39.2831 52.4354 39.3933 52.4354 39.5035C52.4354 39.5696 52.4354 39.6577 52.4134 39.7238C52.3913 39.7899 52.3913 39.856 52.3473 39.9221H50.6288C50.6288 39.9441 50.6288 39.9441 50.6288 39.9661ZM52.0829 39.6797C52.1049 39.6357 52.1049 39.5696 52.1049 39.5035C52.1049 39.4153 52.1049 39.3492 52.0829 39.2831C52.0609 39.2171 52.0388 39.151 51.9727 39.1069C51.9287 39.0628 51.8626 39.0188 51.7965 38.9747C51.7304 38.9527 51.6423 38.9306 51.5541 38.9306C51.444 38.9306 51.3338 38.9527 51.2457 38.9967C51.1576 39.0408 51.0694 39.0849 50.9813 39.151C50.9152 39.2171 50.8491 39.3052 50.783 39.3933C50.7169 39.4814 50.6949 39.5696 50.6508 39.6797H52.0829Z" fill="white"/>
<path d="M54.5946 38.9968H54.2862L54.3523 38.7104H54.6607L54.7268 38.446C54.7929 38.2257 54.881 38.0495 55.0132 37.9614C55.1454 37.8512 55.2996 37.8071 55.4979 37.8071C55.6742 37.8071 55.8284 37.8292 55.9385 37.8953L55.8725 38.1817C55.8064 38.1596 55.7403 38.1376 55.6962 38.1156C55.6301 38.0935 55.586 38.0935 55.5199 38.0935C55.4098 38.0935 55.3217 38.1376 55.2556 38.2037C55.1895 38.2698 55.1234 38.38 55.0793 38.5121L55.0132 38.7325H55.7403L55.6521 39.0189H54.9251L54.4184 40.9356H54.0879L54.5946 38.9968Z" fill="white"/>
<path d="M56.2676 40.8907C56.1355 40.8466 56.0473 40.7805 55.9592 40.6924C55.8711 40.6042 55.805 40.4941 55.7609 40.3839C55.7169 40.2738 55.6948 40.1416 55.6948 39.9874C55.6948 39.8111 55.7389 39.6569 55.805 39.5027C55.8711 39.3485 55.9592 39.1942 56.0914 39.0841C56.2016 38.9739 56.3558 38.8638 56.51 38.7977C56.6642 38.7316 56.8405 38.6875 57.0167 38.6875C57.1709 38.6875 57.3031 38.7095 57.4353 38.7536C57.5675 38.7977 57.6556 38.8638 57.7438 38.9519C57.8319 39.04 57.898 39.1502 57.942 39.2603C57.9861 39.3925 58.0081 39.5027 58.0081 39.6569C58.0081 39.8331 57.9641 40.0094 57.898 40.1636C57.8319 40.3178 57.7217 40.4721 57.6116 40.5822C57.5014 40.6924 57.3472 40.8025 57.193 40.8686C57.0388 40.9347 56.8625 40.9788 56.7083 40.9788C56.532 40.9568 56.3998 40.9347 56.2676 40.8907ZM57.0608 40.5822C57.1709 40.5161 57.2811 40.45 57.3692 40.3619C57.4574 40.2738 57.5234 40.1636 57.5675 40.0314C57.6116 39.8992 57.6336 39.7891 57.6336 39.6569C57.6336 39.4366 57.5675 39.2603 57.4353 39.1281C57.3031 38.9959 57.1489 38.9519 56.9286 38.9519C56.7964 38.9519 56.6862 38.9739 56.5761 39.04C56.4659 39.1061 56.3558 39.1722 56.2676 39.2603C56.1795 39.3484 56.1134 39.4586 56.0694 39.5908C56.0253 39.723 56.0033 39.8331 56.0033 39.9653C56.0033 40.1857 56.0694 40.3619 56.2016 40.4941C56.3337 40.6263 56.488 40.6703 56.7083 40.6703C56.8405 40.6703 56.9506 40.6263 57.0608 40.5822Z" fill="white"/>
<path d="M58.8682 38.7102H59.1987L59.0445 39.283C59.1106 39.1949 59.1767 39.1067 59.2648 39.0186C59.3309 38.9305 59.419 38.8644 59.5071 38.8203C59.5953 38.7763 59.6834 38.7322 59.7936 38.6881C59.8817 38.6661 59.9918 38.6441 60.102 38.6661L60.0139 39.0186H59.9918C59.8817 39.0186 59.7495 39.0407 59.6393 39.0847C59.5292 39.1288 59.419 39.1949 59.3089 39.283C59.1987 39.3711 59.1106 39.4813 59.0445 39.6135C58.9564 39.7457 58.9123 39.8778 58.8682 40.0541L58.6259 40.9354H58.2954L58.8682 38.7102Z" fill="white"/>
<path d="M62.1296 37.9167H62.46L62.1075 39.2386H63.804L64.1785 37.9167H64.509L63.7158 40.913H63.3633L63.7379 39.5691H62.0194L61.6669 40.913H61.3364L62.1296 37.9167Z" fill="white"/>
<path d="M65.2125 40.8907C65.0803 40.8466 64.9921 40.7805 64.904 40.6924C64.8159 40.6042 64.7498 40.4941 64.7057 40.3839C64.6617 40.2738 64.6396 40.1416 64.6396 39.9874C64.6396 39.8111 64.6837 39.6569 64.7498 39.5027C64.8159 39.3485 64.904 39.1942 65.0362 39.0841C65.1684 38.9739 65.3006 38.8638 65.4548 38.7977C65.609 38.7316 65.7853 38.6875 65.9615 38.6875C66.1158 38.6875 66.2479 38.7095 66.3801 38.7536C66.5123 38.7977 66.6005 38.8638 66.6886 38.9519C66.7767 39.04 66.8428 39.1502 66.8869 39.2603C66.9309 39.3925 66.953 39.5027 66.953 39.6569C66.953 39.8331 66.9089 40.0094 66.8428 40.1636C66.7767 40.3178 66.6665 40.4721 66.5564 40.5822C66.4462 40.6924 66.292 40.8025 66.1378 40.8686C65.9836 40.9347 65.8073 40.9788 65.6531 40.9788C65.4768 40.9568 65.3447 40.9347 65.2125 40.8907ZM66.0056 40.5822C66.1158 40.5161 66.2259 40.45 66.314 40.3619C66.4022 40.2738 66.4683 40.1636 66.5123 40.0314C66.5564 39.8992 66.5784 39.7891 66.5784 39.6569C66.5784 39.4366 66.5123 39.2603 66.3801 39.1281C66.2479 38.9959 66.0937 38.9519 65.8734 38.9519C65.7412 38.9519 65.6311 38.9739 65.5209 39.04C65.4108 39.1061 65.3006 39.1722 65.2125 39.2603C65.1243 39.3484 65.0582 39.4586 65.0142 39.5908C64.9701 39.723 64.9481 39.8331 64.9481 39.9653C64.9481 40.1857 65.0142 40.3619 65.1464 40.4941C65.2786 40.6263 65.4328 40.6703 65.6531 40.6703C65.7853 40.6703 65.8954 40.6263 66.0056 40.5822Z" fill="white"/>
<path d="M67.8132 38.7099H68.1436L68.0555 39.0624C68.1657 38.9522 68.2538 38.8421 68.386 38.776C68.4962 38.6879 68.6283 38.6658 68.8046 38.6658C68.8927 38.6658 68.9809 38.6879 69.0469 38.7099C69.113 38.7319 69.1791 38.776 69.2232 38.82C69.2673 38.8641 69.3113 38.9082 69.3554 38.9743C69.3774 39.0404 69.4215 39.1065 69.4215 39.1505C69.5316 38.9963 69.6418 38.8861 69.796 38.776C69.9502 38.6879 70.1265 38.6438 70.3027 38.6438C70.4129 38.6438 70.501 38.6658 70.5671 38.6879C70.6552 38.7099 70.7213 38.776 70.7874 38.82C70.8535 38.8861 70.8976 38.9522 70.9196 39.0404C70.9417 39.1285 70.9637 39.2166 70.9637 39.3268C70.9637 39.3708 70.9637 39.4369 70.9417 39.503C70.9196 39.5691 70.9196 39.6132 70.8976 39.6793L70.5671 40.913H70.2366L70.5671 39.6572C70.5892 39.6132 70.5892 39.5691 70.5892 39.5251C70.5892 39.481 70.5892 39.4369 70.5892 39.3929C70.5892 39.2387 70.5451 39.1285 70.479 39.0624C70.3909 38.9743 70.2807 38.9522 70.1485 38.9522C70.0604 38.9522 69.9943 38.9743 69.9062 38.9963C69.818 39.0183 69.752 39.0844 69.6859 39.1505C69.6198 39.2166 69.5537 39.2827 69.5096 39.3708C69.4655 39.459 69.4215 39.5471 69.3994 39.6572L69.069 40.891H68.7385L69.069 39.6352C69.091 39.5912 69.091 39.5471 69.091 39.503C69.091 39.459 69.091 39.4149 69.091 39.3708C69.091 39.2166 69.0469 39.1065 68.9588 39.0404C68.8707 38.9522 68.7605 38.9302 68.6283 38.9302C68.5402 38.9302 68.4741 38.9522 68.386 38.9743C68.2979 39.0183 68.2318 39.0624 68.1657 39.1285C68.0996 39.1946 68.0335 39.2607 67.9894 39.3488C67.9454 39.4369 67.9013 39.5251 67.8572 39.6352L67.5268 40.869H67.1963L67.8132 38.7099Z" fill="white"/>
<path d="M71.7343 39.9661V40.0102C71.7343 40.2085 71.8004 40.3627 71.9105 40.4949C72.0207 40.605 72.1969 40.6711 72.3952 40.6711C72.5274 40.6711 72.6596 40.6491 72.7698 40.605C72.8799 40.561 72.9681 40.4949 73.0782 40.4068L73.2545 40.6271C73.1443 40.7152 73.0341 40.8033 72.8799 40.8694C72.7477 40.9355 72.5715 40.9576 72.3732 40.9576C72.219 40.9576 72.0868 40.9355 71.9766 40.8915C71.8665 40.8474 71.7563 40.7813 71.6682 40.6932C71.5801 40.605 71.514 40.5169 71.4699 40.4068C71.4259 40.2966 71.4038 40.1644 71.4038 40.0322C71.4038 39.856 71.4258 39.7017 71.4919 39.5255C71.558 39.3713 71.6462 39.2171 71.7563 39.0849C71.8665 38.9527 71.9987 38.8425 72.1529 38.7764C72.3071 38.6883 72.4834 38.6663 72.6596 38.6663C72.7918 38.6663 72.924 38.6883 73.0342 38.7324C73.1443 38.7764 73.2324 38.8425 73.2985 38.9086C73.3646 38.9747 73.4307 39.0849 73.4528 39.173C73.4968 39.2831 73.5188 39.3933 73.5188 39.5035C73.5188 39.5696 73.5188 39.6577 73.4968 39.7238C73.4748 39.7899 73.4748 39.856 73.4307 39.9221H71.7123C71.7343 39.9441 71.7343 39.9441 71.7343 39.9661ZM73.2104 39.6797C73.2324 39.6357 73.2324 39.5696 73.2324 39.5035C73.2324 39.4153 73.2324 39.3492 73.2104 39.2831C73.1884 39.2171 73.1663 39.151 73.1002 39.1069C73.0562 39.0628 72.9901 39.0188 72.924 38.9747C72.8579 38.9527 72.7698 38.9306 72.6817 38.9306C72.5715 38.9306 72.4613 38.9527 72.3732 38.9967C72.2851 39.0408 72.1969 39.0849 72.1088 39.151C72.0427 39.2171 71.9766 39.3052 71.9105 39.3933C71.8445 39.4814 71.8224 39.5696 71.7783 39.6797H73.2104Z" fill="white"/>
<path d="M76.1388 40.8687C75.9846 40.8026 75.8524 40.7365 75.7422 40.6264C75.6321 40.5162 75.5439 40.384 75.4778 40.2298C75.4117 40.0756 75.3677 39.8993 75.3677 39.7011C75.3677 39.4587 75.4117 39.2164 75.4999 38.996C75.588 38.7757 75.7202 38.5774 75.8744 38.4012C76.0286 38.2249 76.2269 38.0928 76.4472 37.9826C76.6675 37.8724 76.8879 37.8284 77.1522 37.8284C77.4387 37.8284 77.659 37.8945 77.8573 38.0046C78.0555 38.1148 78.1877 38.269 78.2979 38.4673L78.0115 38.6435C77.9233 38.4893 77.8132 38.3571 77.681 38.269C77.5488 38.1809 77.3726 38.1368 77.1522 38.1368C76.954 38.1368 76.7777 38.1809 76.6015 38.269C76.4252 38.3571 76.271 38.4673 76.1608 38.5995C76.0286 38.7317 75.9405 38.9079 75.8524 39.0842C75.7863 39.2604 75.7422 39.4587 75.7422 39.657C75.7422 39.8112 75.7642 39.9214 75.8083 40.0536C75.8524 40.1637 75.9185 40.2739 76.0066 40.34C76.0947 40.4281 76.1828 40.4722 76.293 40.5162C76.4032 40.5603 76.5354 40.5823 76.6675 40.5823C76.8658 40.5823 77.0421 40.5383 77.1963 40.4722C77.3505 40.4061 77.4827 40.2959 77.5929 40.1858L77.8132 40.4061C77.7471 40.4722 77.659 40.5383 77.5929 40.6044C77.5047 40.6704 77.4166 40.7145 77.3285 40.7586C77.2404 40.8026 77.1302 40.8467 77.02 40.8687C76.9099 40.8908 76.7777 40.9128 76.6455 40.9128C76.4472 40.9569 76.293 40.9348 76.1388 40.8687Z" fill="white"/>
<path d="M79.0486 37.7847H79.3791L79.0486 39.0625C79.1588 38.9523 79.2689 38.8422 79.3791 38.7761C79.5113 38.688 79.6435 38.6659 79.8197 38.6659C80.04 38.6659 80.1943 38.732 80.3265 38.8422C80.4586 38.9744 80.5247 39.1286 80.5247 39.3489C80.5247 39.393 80.5247 39.4591 80.5027 39.5252C80.4807 39.5913 80.4807 39.6353 80.4587 39.7014L80.1282 40.9352H79.7977L80.1282 39.6794C80.1502 39.6353 80.1502 39.5913 80.1502 39.5472C80.1502 39.5031 80.1502 39.4591 80.1502 39.415C80.1502 39.2608 80.1061 39.1506 80.018 39.0845C79.9299 38.9964 79.7977 38.9744 79.6655 38.9744C79.5774 38.9744 79.4893 38.9964 79.4011 39.0184C79.313 39.0625 79.2469 39.1066 79.1588 39.1727C79.0927 39.2388 79.0266 39.3049 78.9605 39.393C78.9164 39.4811 78.8724 39.5692 78.8283 39.6794L78.4978 40.9132H78.2114L79.0486 37.7847Z" fill="white"/>
<path d="M81.2758 39.9661V40.0102C81.2758 40.2085 81.3419 40.3627 81.452 40.4949C81.5622 40.605 81.7384 40.6711 81.9367 40.6711C82.0689 40.6711 82.2011 40.6491 82.3113 40.605C82.4214 40.561 82.5095 40.4949 82.6197 40.4068L82.796 40.6271C82.6858 40.7152 82.5756 40.8033 82.4214 40.8694C82.2892 40.9355 82.113 40.9576 81.9147 40.9576C81.7605 40.9576 81.6283 40.9355 81.5181 40.8915C81.408 40.8474 81.2978 40.7813 81.2097 40.6932C81.1216 40.605 81.0555 40.5169 81.0114 40.4068C80.9673 40.2966 80.9453 40.1644 80.9453 40.0322C80.9453 39.856 80.9673 39.7017 81.0334 39.5255C81.0995 39.3713 81.1877 39.2171 81.2978 39.0849C81.408 38.9527 81.5402 38.8425 81.6944 38.7764C81.8486 38.6883 82.0248 38.6663 82.2011 38.6663C82.3333 38.6663 82.4655 38.6883 82.5756 38.7324C82.6858 38.7764 82.7739 38.8425 82.84 38.9086C82.9061 38.9747 82.9722 39.0849 82.9942 39.173C83.0383 39.2831 83.0603 39.3933 83.0603 39.5035C83.0603 39.5696 83.0603 39.6577 83.0383 39.7238C83.0163 39.7899 83.0163 39.856 82.9722 39.9221H81.2537C81.2758 39.9441 81.2758 39.9441 81.2758 39.9661ZM82.7519 39.6797C82.7739 39.6357 82.7739 39.5696 82.7739 39.5035C82.7739 39.4153 82.7739 39.3492 82.7519 39.2831C82.7299 39.2171 82.7078 39.151 82.6417 39.1069C82.5977 39.0628 82.5316 39.0188 82.4655 38.9747C82.3994 38.9527 82.3113 38.9306 82.2231 38.9306C82.113 38.9306 82.0028 38.9527 81.9147 38.9967C81.8266 39.0408 81.7384 39.0849 81.6503 39.151C81.5842 39.2171 81.5181 39.3052 81.452 39.3933C81.3859 39.4814 81.3639 39.5696 81.3198 39.6797H82.7519Z" fill="white"/>
<path d="M83.9608 38.9968H83.6524L83.7185 38.7104H84.0269L84.093 38.446C84.1591 38.2257 84.2472 38.0495 84.3794 37.9614C84.5116 37.8512 84.6658 37.8071 84.8641 37.8071C85.0404 37.8071 85.1946 37.8292 85.3048 37.8953L85.2387 38.1817C85.1726 38.1596 85.1065 38.1376 85.0624 38.1156C84.9963 38.0935 84.9522 38.0935 84.8862 38.0935C84.776 38.0935 84.6879 38.1376 84.6218 38.2037C84.5557 38.2698 84.4896 38.38 84.4455 38.5121L84.3794 38.7325H85.1065L85.0184 39.0189H84.2913L83.7846 40.9356H83.4541L83.9608 38.9968Z" fill="white"/>
<path d="M85.2834 40.8694C85.1072 40.8033 84.975 40.7152 84.8428 40.583L85.0631 40.3627C85.1732 40.4729 85.3054 40.561 85.4376 40.605C85.5698 40.6491 85.702 40.6711 85.8342 40.6711C85.9003 40.6711 85.9664 40.6711 86.0105 40.6491C86.0766 40.6271 86.1206 40.605 86.1647 40.583C86.2087 40.561 86.2528 40.5169 86.2748 40.4729C86.2969 40.4288 86.3189 40.3847 86.3189 40.3186C86.3189 40.2525 86.2969 40.1864 86.2308 40.1203C86.1647 40.0543 86.0545 40.0102 85.9003 39.9441C85.702 39.878 85.5478 39.7899 85.4376 39.7017C85.3275 39.6136 85.2834 39.5035 85.2834 39.3492C85.2834 39.2611 85.3054 39.173 85.3495 39.0849C85.3936 38.9967 85.4376 38.9306 85.5258 38.8645C85.5919 38.7985 85.68 38.7544 85.7901 38.7103C85.9003 38.6663 86.0105 38.6663 86.1426 38.6663C86.2969 38.6663 86.4511 38.6883 86.6053 38.7544C86.7595 38.8205 86.8697 38.8866 86.9578 38.9747L86.7595 39.195C86.6714 39.1289 86.5612 39.0628 86.4511 39.0188C86.3409 38.9747 86.2308 38.9527 86.0986 38.9527C85.9444 38.9527 85.8342 38.9967 85.7461 39.0628C85.658 39.1289 85.6139 39.2171 85.6139 39.3052C85.6139 39.3492 85.6139 39.3713 85.6359 39.4153C85.658 39.4374 85.68 39.4814 85.702 39.5035C85.724 39.5255 85.7901 39.5696 85.8342 39.5916C85.9003 39.6136 85.9664 39.6577 86.0545 39.6797C86.2528 39.7678 86.407 39.8339 86.4951 39.9441C86.6053 40.0322 86.6494 40.1424 86.6494 40.2966C86.6494 40.4068 86.6273 40.4949 86.5833 40.583C86.5392 40.6711 86.4731 40.7372 86.407 40.8033C86.3409 40.8694 86.2308 40.9135 86.1426 40.9355C86.0325 40.9796 85.9223 40.9796 85.8122 40.9796C85.6139 40.9575 85.4376 40.9135 85.2834 40.8694Z" fill="white"/>
<path d="M45.2955 12.7787H44.3701V8.39439H42.7178V7.53516H46.9699V8.39439H45.2955V12.7787Z" fill="white"/>
<path d="M50.6499 10.5753V12.7784H49.7246V7.53491H50.6499V9.71604H53.1615V7.53491H54.0648V12.7784H53.1615V10.5753H50.6499Z" fill="white"/>
<path d="M61.0919 8.37211H58.1176V9.71604H60.7394V10.5532H58.1176V11.9412H61.1139V12.7784H57.2144V7.53491H61.0919V8.37211Z" fill="white"/>
<path d="M47.2133 21.3266C47.059 21.4367 46.9048 21.5469 46.7286 21.613C46.5523 21.7011 46.3761 21.7672 46.1778 21.8113C45.9795 21.8553 45.7592 21.8774 45.5168 21.8774C45.1423 21.8774 44.7678 21.8113 44.4593 21.657C44.1288 21.5248 43.8645 21.3266 43.6221 21.0842C43.3798 20.8419 43.2035 20.5555 43.0713 20.225C42.9391 19.8945 42.873 19.542 42.873 19.1675C42.873 18.7929 42.9391 18.4404 43.0713 18.1099C43.2035 17.7795 43.3798 17.4931 43.6221 17.2507C43.8645 17.0084 44.1509 16.8101 44.4814 16.6559C44.8118 16.5016 45.1643 16.4355 45.5829 16.4355C45.8253 16.4355 46.0456 16.4576 46.2439 16.5016C46.4422 16.5457 46.6184 16.5898 46.7947 16.6779C46.9489 16.744 47.1031 16.8321 47.2573 16.9423C47.3895 17.0524 47.5217 17.1626 47.6539 17.2728L47.059 17.9557C46.8387 17.7574 46.6184 17.6032 46.3981 17.4931C46.1558 17.3829 45.8914 17.3168 45.605 17.3168C45.3626 17.3168 45.1203 17.3609 44.922 17.471C44.7017 17.5592 44.5254 17.6913 44.3712 17.8676C44.217 18.0439 44.1068 18.2201 44.0187 18.4625C43.9306 18.6828 43.8865 18.9251 43.8865 19.1895C43.8865 19.4539 43.9306 19.6962 44.0187 19.9165C44.1068 20.1369 44.217 20.3351 44.3712 20.5114C44.5254 20.6876 44.7017 20.8198 44.922 20.908C45.1423 20.9961 45.3626 21.0622 45.605 21.0622C45.9354 21.0622 46.1998 20.9961 46.4201 20.8859C46.6404 20.7537 46.8828 20.5995 47.1031 20.3792L47.698 20.9741C47.4997 21.0842 47.3675 21.1944 47.2133 21.3266Z" fill="white"/>
<path d="M51.312 19.5648V21.7679H50.4087V16.5244H51.312V18.7055H53.8456V16.5244H54.7489V21.7679H53.8456V19.5648H51.312Z" fill="white"/>
<path d="M61.778 17.3616H58.8037V18.7055H61.4475V19.5427H58.8037V20.9307H61.822V21.7679H57.9004V16.5244H61.778V17.3616Z" fill="white"/>
<path d="M68.6056 17.3616H65.6314V18.7937H68.2752V19.6309H65.6314V21.7679H64.7061V16.5244H68.6056V17.3616Z" fill="white"/>
<path d="M43.0933 25.0498H43.9966V29.4782H46.7505V30.2933H43.0933V25.0498Z" fill="white"/>
<path d="M54.5297 30.2937H53.5604L53.0316 29.0379H50.542L50.0133 30.2937H49.0659L51.3792 25.0061H52.2385L54.5297 30.2937ZM51.7978 26.1297L50.8945 28.2227H52.7011L51.7978 26.1297Z" fill="white"/>
<path d="M60.8716 25.0498H61.7969V30.2933H61.0258L58.1397 26.57V30.2933H57.2144V25.0498H58.0736L60.8716 28.685V25.0498Z" fill="white"/>
<path d="M68.8014 25.887H65.8492V27.2309H68.4709V28.0681H65.8492V29.4782H68.8454V30.2933H64.9238V25.0498H68.8014V25.887Z" fill="white"/>
<path d="M87.2018 34.8542H42.6099V35.5372H87.2018V34.8542Z" fill="white"/>
</svg>
