<svg width="264" height="278" viewBox="0 0 264 278" fill="none" xmlns="http://www.w3.org/2000/svg">
<g opacity="0.1">
<path d="M342.797 83.1529C339.69 90.4016 336.584 98.1682 332.959 104.899C326.746 115.772 324.675 127.681 325.193 140.107C325.711 155.64 325.711 171.173 323.639 186.706C322.086 198.615 321.051 210.524 318.462 222.432C317.944 224.503 317.426 226.574 316.391 228.128C309.66 236.93 303.447 246.249 294.644 252.98C291.538 249.874 288.949 252.463 286.36 254.016C283.772 256.087 281.183 259.711 277.04 256.605C276.523 256.087 276.005 255.051 276.005 254.534C276.005 253.498 276.523 252.98 277.04 251.945C276.523 252.463 276.523 253.498 276.005 254.016C275.487 255.051 276.523 256.087 277.04 256.605C276.005 261.782 271.345 264.371 267.721 267.478C265.132 270.067 262.025 267.478 262.025 263.854C262.025 262.3 263.061 260.229 264.096 259.194C268.238 256.087 263.061 256.087 262.543 254.534C261.508 250.391 262.025 246.767 264.096 243.143C265.132 241.59 265.65 240.036 266.167 238.483C265.132 240.036 264.614 241.072 264.096 242.625C260.472 249.874 260.99 258.676 256.848 265.925C256.33 266.96 256.33 269.031 255.294 270.067C254.777 270.584 254.777 271.102 254.259 271.62C253.223 272.138 252.705 272.655 251.67 272.655C250.634 272.655 250.117 272.138 249.599 271.102C251.152 264.371 254.777 258.676 254.259 251.427C254.259 249.874 254.777 248.321 255.294 247.285C254.777 248.321 254.259 249.356 254.259 250.909C254.777 257.64 252.188 264.371 249.599 270.585C249.599 271.102 249.599 271.62 250.117 272.138C250.117 272.138 250.117 272.655 250.634 272.655C250.634 273.173 250.634 273.691 250.117 273.691C250.117 274.209 249.599 274.209 249.599 274.727C249.599 275.244 249.081 275.244 249.081 275.762C249.081 276.28 249.081 276.28 248.563 276.798C246.492 277.316 244.421 278.351 242.35 278.351C236.655 280.94 233.03 286.635 227.335 289.742C220.086 293.884 211.802 294.402 204.035 291.295C205.589 291.295 207.142 291.295 208.695 291.295C209.731 291.295 211.802 292.331 212.32 290.26C212.32 289.742 209.731 289.224 212.32 288.706C213.873 288.706 214.391 287.671 213.873 286.118C213.355 285.082 212.837 284.046 211.802 283.011C210.249 280.422 209.213 276.798 211.802 275.762C214.908 274.209 214.391 272.138 214.391 269.549C213.355 257.64 214.909 246.25 215.944 234.341C217.497 211.559 216.98 188.26 218.533 165.478C218.533 162.371 218.533 158.747 218.015 155.64C218.015 155.122 217.497 154.087 217.497 153.569C217.497 154.605 216.98 155.122 216.98 156.158C216.462 160.818 216.462 165.996 214.391 170.138H213.873C214.391 158.229 213.873 146.838 221.122 136.483C222.675 134.412 224.746 132.341 223.193 128.716C222.157 126.127 224.228 124.056 226.299 122.503C240.797 113.701 238.726 99.2037 229.406 88.3306C217.497 74.8686 201.964 68.6554 185.914 63.9955C177.629 61.4066 168.827 58.818 160.025 56.7469C158.472 56.2292 156.919 56.7467 156.401 55.1934C161.579 53.1223 165.721 57.2646 170.381 57.2646C170.898 57.2646 171.416 57.2646 171.416 57.2646C170.898 57.2646 170.381 57.2646 170.381 57.2646C165.721 56.229 160.543 54.6757 155.883 53.6401C155.365 53.6401 154.33 53.1225 153.812 53.1225C154.33 53.6403 155.365 53.6403 156.401 54.1581C157.436 54.6759 157.436 55.1934 157.436 56.229C150.705 56.229 144.492 52.6047 137.761 50.5337C119.122 45.356 101 40.696 81.3247 40.696C78.2181 40.696 75.6292 38.6248 72.5226 39.6604C72.0048 37.5893 73.0403 37.0715 75.1114 37.0715C75.6292 38.6248 77.1825 38.6251 78.218 38.6251C96.3399 38.6251 113.426 42.2493 131.03 45.8736C150.188 50.0158 169.345 53.6403 187.467 60.889C203 66.5844 216.462 74.8686 229.924 84.7061C242.868 93.5082 241.315 105.417 240.797 117.843C240.797 119.914 239.244 121.985 236.655 123.021C235.101 123.539 233.548 125.092 231.477 126.127C229.924 126.645 229.924 127.681 230.959 129.234C231.995 130.788 232.513 130.27 233.548 129.752C240.797 125.092 249.599 124.574 256.33 119.397C257.365 118.361 259.436 117.326 260.472 118.879C262.025 120.95 262.025 120.95 262.543 120.432H263.061C264.096 116.808 267.203 118.361 269.274 118.879C276.005 120.95 281.183 119.914 285.843 114.737C288.431 112.148 291.02 110.077 294.127 108.006C295.162 105.935 296.716 104.899 298.787 106.452C299.822 108.523 299.304 111.63 302.929 113.183C306.035 114.737 302.929 118.879 302.929 121.985C302.929 123.539 301.893 124.574 301.893 126.127C301.893 124.574 302.929 123.021 302.929 121.468C302.929 118.361 304.482 115.254 304.482 112.148C304.482 110.077 305.518 108.006 308.624 109.041C311.213 112.148 308.106 115.255 308.106 118.879C308.106 119.397 308.106 119.914 308.106 119.914C308.106 119.396 308.106 119.397 308.106 118.879C308.106 115.255 311.213 112.148 308.624 108.524C308.624 108.006 308.624 107.488 309.142 106.97C310.178 105.417 311.731 104.381 313.284 104.381C318.98 105.417 320.533 101.792 321.568 97.6503C322.086 95.0615 323.122 92.4728 323.639 89.3662C323.122 91.955 322.086 94.5437 321.568 97.6503C321.568 98.1681 321.568 98.686 321.051 99.7215C320.015 101.793 319.497 105.417 315.873 103.864C313.284 102.31 314.837 99.7214 315.873 97.6503C316.391 96.097 316.909 95.0615 317.426 93.5082C317.944 91.9549 317.944 90.4015 317.426 88.8482C317.944 89.8837 317.944 91.4371 317.426 92.4726C316.909 94.0259 316.908 96.0971 315.355 97.1327C313.802 98.686 311.731 100.757 309.142 99.7215C306.035 98.686 308.106 96.097 308.624 94.0259C309.142 90.9193 310.695 87.8127 310.695 84.7061V85.2241C310.178 90.4018 307.589 95.0615 307.589 100.239C307.589 102.31 306.553 104.381 303.964 103.864C301.376 103.346 303.447 101.275 303.447 99.7215C303.447 98.686 303.447 98.1682 303.447 97.1327C303.447 96.6149 303.964 96.6148 303.964 96.0971C304.482 95.0615 304.482 94.026 304.482 93.5082C304.482 94.5438 304.482 95.0615 303.964 96.0971C302.929 97.1326 303.447 98.686 302.929 99.7215C302.411 102.31 300.858 104.899 305.518 104.899C307.071 104.899 308.624 106.453 307.071 108.524C304.482 109.041 301.376 110.077 299.305 107.488C297.751 105.935 296.198 104.381 297.233 102.31C300.858 94.5438 299.304 87.2949 293.609 81.0817C296.716 77.9751 294.127 75.904 292.573 73.3152C292.056 72.7974 290.502 71.7619 292.056 70.7264C292.573 70.2086 293.609 71.2442 294.127 71.762C294.645 72.2797 295.68 72.7976 296.716 73.8332C298.269 75.3865 298.787 75.3865 298.787 74.8688C300.34 72.2799 301.375 75.9043 302.929 74.8688C303.964 73.8332 303.964 72.7976 303.447 71.2443C302.929 69.691 302.411 68.1376 302.411 66.5843C302.411 66.0665 302.411 65.5488 302.929 65.0311C303.447 65.0311 303.964 65.5487 303.964 65.5487C303.964 69.1731 308.624 71.2443 307.589 75.3864C307.589 75.9042 308.106 76.422 308.624 76.422C309.66 76.422 309.66 75.9042 309.66 75.3864C308.624 69.691 312.249 62.4422 304.482 58.8178C304.482 58.8178 303.964 58.3 303.964 57.7822C304.482 57.2644 305 57.2646 305.518 57.2646C308.624 58.8179 310.178 61.4066 311.731 63.9955C312.249 65.031 312.249 67.1021 314.32 66.5843C316.391 66.0665 315.873 63.9955 315.355 62.4422C314.32 59.3356 312.249 56.2292 310.177 54.1581C309.66 53.6403 309.142 53.1223 309.66 52.6045C310.695 51.569 311.213 52.6047 311.731 53.1225C315.355 56.2291 317.426 60.3713 319.497 64.5134C325.193 65.0312 327.782 68.6554 327.782 74.3508C327.782 76.4219 327.782 78.493 327.782 80.5641C327.782 81.5996 327.782 82.635 327.782 83.6705C327.782 82.635 328.299 82.1172 328.299 81.0817C329.335 79.0106 328.817 76.9397 330.371 75.3864C335.03 75.3864 335.548 76.4219 333.477 80.5641C332.959 82.1174 332.959 83.6707 332.959 85.7417C332.959 86.2595 332.442 86.7772 332.442 87.295C332.442 87.295 332.442 86.7773 332.959 86.7773C333.477 85.224 332.959 83.153 333.477 81.5997C338.655 76.422 340.726 77.4575 342.797 83.1529Z" fill="#D8AF49"/>
<path d="M342.797 83.1523C340.208 81.599 339.173 77.9747 335.031 80.5635C334.513 80.5635 333.995 80.0457 333.477 79.5279C332.442 77.9746 337.619 74.868 332.442 74.3502C330.371 75.9035 332.442 81.0812 327.264 79.5279C327.782 75.9035 325.711 72.2791 326.228 68.137C326.746 64.5126 321.569 65.5481 320.533 62.9593C323.122 62.9593 323.64 61.9239 323.122 59.8528C322.086 55.7107 320.015 52.0865 316.909 48.9799C316.391 48.4621 315.873 47.4263 316.391 47.4263C316.909 46.3908 317.944 46.9085 318.462 47.4263C321.051 50.0151 323.122 52.604 324.157 56.2284C324.675 57.2639 325.193 59.335 326.228 58.8172C327.264 58.2995 326.746 56.2283 326.746 55.1928C325.711 51.5684 324.675 47.9441 321.569 44.8375C321.051 44.3197 319.498 43.2844 320.015 42.7666C321.051 41.7311 322.604 42.7665 323.122 43.2842C325.711 45.3553 326.746 47.9441 327.782 51.0507C328.3 53.1218 328.817 54.6753 329.335 56.7464C329.853 58.2997 330.888 58.8174 332.96 58.2996C335.031 57.7818 333.477 56.2283 333.477 55.1928C332.959 52.0862 331.406 49.4974 329.335 47.4263C328.817 46.3908 326.746 45.8731 328.299 44.3198C329.335 43.2843 330.371 44.8375 331.406 45.8731C331.924 46.3908 332.442 46.9085 332.96 47.4263C333.995 47.9441 334.513 51.0507 336.066 48.4619C337.102 46.9086 339.69 45.8731 338.137 43.2842C335.548 38.1066 330.371 36.0357 326.228 33.4468C310.695 23.6093 293.091 19.4669 275.487 16.3603C267.721 15.3248 260.99 10.665 253.223 9.11174C238.726 6.00514 224.228 3.93395 209.213 1.86288C208.178 1.86288 207.142 2.38078 207.142 1.34524C207.142 -0.208059 208.695 -0.208122 209.213 0.309645C216.462 1.34518 223.711 2.38059 230.442 3.41612C258.919 8.07602 286.878 15.8427 314.32 24.6448C319.498 26.1981 324.675 28.2692 329.335 30.858C339.69 37.0712 343.833 47.4264 346.939 58.8172C349.01 67.6193 347.457 75.3858 342.797 83.1523Z" fill="#D8AF49"/>
<path d="M63.7208 182.563C66.3096 190.847 65.2741 199.649 66.3096 207.934C66.8274 213.629 67.3451 219.325 68.8984 225.02C69.4162 226.573 70.4518 228.126 70.9696 229.68C72.0051 231.751 76.1472 232.786 73.0406 236.411C73.0406 236.411 74.0761 237.964 75.1116 239C79.7715 243.659 84.9492 247.284 92.1979 248.32C94.269 248.32 95.8223 249.355 97.3756 250.39C105.66 255.568 114.462 259.71 123.782 262.299C135.69 266.441 147.081 271.619 157.954 278.35C158.472 278.868 158.99 279.386 158.99 279.386C158.472 279.386 157.954 279.903 157.437 279.386C145.01 274.726 132.066 271.619 119.64 266.441C107.213 261.264 96.3401 251.944 83.3959 246.766C73.0406 242.624 66.8274 233.304 64.7563 221.913C62.1675 210.005 61.6497 198.096 61.1319 185.67C61.1319 184.116 60.0964 182.045 62.1675 181.01H62.6853C63.203 181.01 63.203 181.527 63.7208 182.045C63.7208 182.563 63.7208 182.563 63.7208 182.563Z" fill="#D8AF49"/>
<path d="M280.665 40.6954C285.843 41.2132 288.949 42.2489 292.056 46.3911L292.574 46.9087C296.198 50.0153 296.198 50.0152 293.091 53.6396C289.985 57.264 286.878 60.8883 283.772 63.995C283.254 64.5127 282.218 65.0307 281.7 64.5129C280.665 63.4774 281.7 62.9595 282.218 62.4417C284.807 59.3351 287.396 55.7106 290.503 52.604C292.056 51.0507 293.091 50.0154 290.503 47.9443C287.914 46.391 286.878 48.462 286.878 49.4975C285.325 54.6752 279.112 55.1929 277.558 60.3705C277.558 60.8883 276.523 60.8885 276.005 60.8885C274.97 60.3707 275.487 59.335 276.005 58.8173C276.523 57.7817 278.076 56.7463 278.594 55.7108C279.629 54.1575 282.736 53.1218 280.665 51.0508C278.594 48.9797 277.558 52.0864 276.005 53.122C274.97 53.6397 274.452 54.6753 273.416 54.1576C272.899 53.6398 272.898 52.604 272.898 52.604C272.381 52.0863 271.863 53.1218 271.863 53.6396C271.345 54.6751 271.345 56.2285 272.381 57.264C272.381 59.3351 273.934 60.8883 274.97 62.9594C275.487 63.4771 275.487 64.5129 274.452 64.5129C273.934 64.5129 272.898 64.5127 272.898 63.995C271.863 61.9239 270.827 59.8528 269.274 57.7817C268.756 57.2639 268.756 55.7107 267.203 56.2284C266.167 56.7462 265.65 57.7817 266.167 58.8173C267.203 60.3706 267.721 62.4417 268.756 63.995C269.274 64.5127 270.31 65.5483 268.756 66.5838C267.721 67.1016 267.203 66.066 266.685 65.5482C264.096 60.8883 261.508 56.7463 259.437 52.0864C258.919 51.5686 258.401 50.5329 259.954 50.0152C260.472 49.4974 260.99 50.0154 261.508 50.5331C261.508 51.0509 262.025 51.051 262.025 51.5687C263.061 52.6043 263.061 55.1931 264.614 54.1576C267.203 53.122 266.168 51.0508 265.132 49.4975C264.614 48.462 264.096 47.9442 265.132 46.9087C265.65 45.8732 268.238 44.8378 266.167 43.8022C264.614 42.7667 263.579 44.8376 262.543 45.8731C262.025 46.3909 261.508 47.9442 260.472 46.9087C260.472 46.9087 260.99 45.8732 260.99 45.3555C260.99 44.3199 263.579 43.802 261.508 42.2487C259.436 41.2131 257.883 41.2133 256.33 42.7666C254.777 44.8377 253.741 46.9088 252.188 48.9799C251.67 49.4977 251.152 50.0153 250.634 49.4975C250.117 48.9798 250.117 48.4621 250.634 47.9443C253.223 42.7666 256.848 38.6244 260.99 33.9645C262.025 32.929 263.061 32.4112 263.579 32.9289C268.238 37.0711 276.005 36.0355 280.665 40.6954C280.665 41.2132 280.665 41.7309 280.147 42.2487C280.665 41.7309 280.665 41.2132 280.665 40.6954Z" fill="#D8AF49"/>
<path d="M272.381 97.1323C269.792 98.1679 267.203 98.1679 269.274 102.31C269.792 103.346 269.274 104.899 268.756 105.934C268.239 106.452 267.721 107.488 266.685 107.488C265.65 107.488 265.65 106.452 265.65 105.416C265.132 104.899 266.168 102.828 264.614 103.346C263.579 103.346 263.579 104.381 263.579 105.416V105.934C262.543 107.488 263.061 111.63 260.99 111.112C258.401 110.077 261.508 108.006 261.508 105.934C261.508 104.899 262.543 103.863 260.99 103.346C259.437 102.828 259.437 104.381 258.919 105.416C258.919 108.005 258.401 110.594 256.33 112.665C255.812 113.183 254.777 114.219 254.259 113.701C253.223 113.183 254.259 112.148 254.777 111.63C256.33 109.041 255.812 106.452 255.812 104.381C255.812 103.345 255.812 102.31 254.259 101.792C252.706 101.792 252.188 102.828 252.188 103.863C251.67 106.97 251.152 110.076 250.117 113.183C249.081 116.807 244.939 113.701 242.868 116.29C242.868 116.29 242.868 115.254 243.386 114.736C245.975 110.594 246.492 106.452 244.421 101.274C242.35 96.6145 242.868 91.4369 239.762 86.777C239.244 86.2592 239.244 85.2238 240.279 85.2238C240.797 85.2238 241.833 85.2236 241.833 85.7414C242.868 87.2947 243.904 88.8481 244.421 90.4014C245.457 92.4725 246.492 93.5078 248.563 92.4723C251.67 91.4368 250.117 89.8837 249.599 87.8126C249.081 86.7771 247.01 85.7413 248.563 84.7058C249.599 84.188 250.635 85.7415 251.67 86.777C252.706 87.8125 252.706 89.3658 253.741 90.9191C255.294 92.9901 257.883 92.4724 259.437 91.9547C262.025 91.4369 259.954 89.3658 259.437 88.3302C257.366 84.1881 262.026 85.2235 263.061 83.6702C264.097 81.5991 265.65 83.6703 266.685 85.7414C267.203 87.2947 267.721 88.8479 269.274 89.8835C270.31 92.9901 269.274 94.5433 266.168 94.0256C265.132 94.0256 264.614 92.9902 264.096 91.9547C264.096 93.508 265.132 94.0257 266.168 94.5435C268.756 93.508 272.381 92.9902 272.381 97.1323Z" fill="#D8AF49"/>
<path d="M272.381 97.1321C271.863 95.5788 269.792 96.6142 268.756 95.0609C267.721 93.5076 264.614 96.0966 264.097 92.99C263.579 90.919 263.061 88.3299 263.579 86.2588C263.579 85.741 263.579 84.7058 264.097 85.2235C264.614 85.2235 265.132 85.741 265.132 86.2588C265.65 86.7766 265.65 87.2946 265.65 87.8124C265.65 89.3657 264.614 90.9188 267.203 90.9188C269.274 90.9188 268.756 88.8479 269.792 87.8124C270.828 87.2946 271.863 86.7768 272.899 86.7768C278.076 88.3301 281.701 83.1525 286.878 82.6347C287.396 82.1169 288.949 82.1167 289.467 81.0811C290.503 79.0101 293.091 79.5278 294.645 78.4923C296.198 78.4923 298.787 76.4214 298.269 80.5635C298.269 81.0813 297.234 82.1167 298.787 82.1167C304.482 81.599 302.411 85.7412 302.411 88.33C302.929 94.0254 299.822 98.6852 299.822 104.381C298.269 104.898 296.198 105.416 294.645 105.934C294.645 104.899 292.574 103.345 294.127 102.31C295.163 102.31 295.68 101.274 295.68 100.757C297.234 98.1677 297.751 94.0256 296.716 92.99C294.127 91.4367 291.538 94.5432 289.467 96.0965C287.914 96.6143 286.36 96.6143 284.807 97.1321C283.772 96.6143 283.254 96.6143 282.736 97.1321C282.218 97.6499 282.218 98.1677 281.183 98.1677L280.665 97.6497L280.147 98.1677C280.147 99.2032 279.629 100.239 279.112 100.757C276.523 99.2032 272.381 101.274 272.381 97.1321Z" fill="white"/>
<path d="M263.061 255.568C265.132 256.086 266.685 252.462 267.721 253.497C269.274 255.051 267.203 257.639 266.685 259.193C266.167 260.746 265.132 262.299 264.096 263.335C263.061 264.888 262.543 265.924 263.578 266.959C264.614 267.995 266.167 266.959 266.685 266.442C270.309 263.335 265.65 265.923 265.65 264.888C265.132 263.335 266.167 262.817 267.203 262.299C270.31 260.746 273.416 259.193 276.005 256.086C280.665 255.568 284.807 252.462 286.36 249.355C288.431 245.731 292.056 248.837 293.609 245.731C293.609 245.731 295.162 246.766 294.127 247.802C292.574 249.355 290.502 250.908 294.127 252.462C280.147 262.817 265.132 272.137 249.081 279.386C248.046 279.903 245.975 281.457 244.939 279.903C244.421 278.35 246.492 278.35 248.045 277.314C248.563 276.797 249.081 276.797 249.599 276.279L250.117 275.761V276.279H249.599C249.081 276.279 248.563 276.279 248.045 275.761C247.528 275.243 247.528 275.243 247.01 274.726C246.492 274.208 246.492 273.69 247.01 273.172C247.01 272.655 247.528 272.137 248.563 272.137C249.081 272.655 249.599 272.137 249.599 272.137C250.117 271.101 251.67 271.619 252.188 270.584C252.188 270.066 252.705 269.548 253.741 269.548C254.259 269.548 254.777 269.548 254.777 269.03C253.741 267.995 252.705 266.441 254.777 265.406C258.919 264.888 257.365 260.746 259.436 258.675C259.954 258.675 259.436 255.05 263.061 255.568Z" fill="#D8AF49"/>
<path d="M62.1671 181.01C59.5783 177.386 60.6139 172.726 60.0961 168.584C59.5783 144.767 58.5428 121.467 58.5428 97.6497C58.5428 91.4365 55.4362 85.7412 55.9539 79.0102C55.9539 77.9747 55.4362 76.4214 56.9895 76.4214C58.5428 75.9036 58.025 77.9745 59.0606 78.4923C60.6139 79.01 60.6139 81.0812 60.6139 82.1167C63.7205 109.558 63.2027 137 63.7204 164.442C63.7204 170.655 65.2737 176.35 63.7204 182.564C63.2027 182.046 63.2027 182.046 62.6849 181.528C62.6849 181.528 62.1671 181.528 62.1671 181.01Z" fill="#D8AF49"/>
<path d="M77.7006 264.37C73.0406 262.817 68.8986 264.888 64.2387 264.888C55.4366 264.888 47.6701 261.264 39.9036 258.157C33.6904 255.568 25.9239 256.086 22.8173 261.781C21.264 264.37 19.7107 265.923 17.1219 267.477C14.0153 269.03 11.4265 271.101 8.83763 273.172C6.2488 275.243 3.14213 277.832 0.0355325 279.903C-0.482234 280.421 -0.999969 281.456 -2.0355 280.421C-2.55327 279.903 -2.55327 278.868 -2.0355 278.35C-1.51774 277.832 -0.482234 277.315 0.0355325 276.797C2.1066 274.208 7.28433 273.69 6.2488 268.512C12.9798 262.817 19.1929 256.086 28.5127 254.533C35.2437 253.497 41.4569 254.533 47.1523 257.639C51.8122 260.228 56.4721 262.299 62.6853 260.746C67.3452 259.71 72.0051 262.299 76.665 263.335C78.2183 263.852 78.2183 263.853 77.7006 264.37C78.2183 264.37 77.7006 264.37 77.7006 264.37Z" fill="#D8AF49"/>
<path d="M119.122 217.254C118.604 221.914 117.05 226.056 112.908 228.127C108.766 230.198 109.802 232.787 111.355 235.376C113.944 239.518 117.568 243.142 121.193 246.249C122.746 247.802 124.817 249.355 125.853 251.426C126.37 251.944 126.888 252.98 125.853 253.498C125.335 254.015 124.817 253.497 124.299 252.98C116.533 245.213 108.766 237.447 103.589 227.609C103.071 226.574 103.071 225.538 103.589 224.503C104.624 221.396 105.142 217.772 107.213 215.183C108.766 213.629 109.802 210.523 112.391 211.558C114.979 212.594 115.497 215.183 113.944 217.772C113.426 218.807 113.426 220.36 114.462 220.36C114.979 220.36 116.015 218.807 116.015 217.772C116.015 217.254 116.015 216.736 116.015 216.736C116.015 215.183 115.497 211.558 117.05 211.558C120.157 212.076 118.086 215.183 119.122 217.254Z" fill="#D8AF49"/>
<path d="M173.487 10.1481C164.685 10.1481 156.401 13.2547 148.117 15.3257C145.01 15.8435 142.939 15.8433 140.35 14.8078C145.528 11.7012 151.741 11.1836 157.954 10.1481C171.416 7.04146 184.878 4.45256 198.34 1.34596C199.375 0.828193 200.929 0.828003 201.964 0.828003C202.482 0.828003 203 1.34596 203.518 1.34596C203 1.86373 202.482 2.38156 201.964 2.38156C199.893 2.89932 197.822 3.93467 195.751 4.45243C194.716 4.9702 194.716 4.97014 195.751 6.00567C196.787 7.0412 196.269 8.07686 193.68 8.07686C184.36 9.1124 176.076 12.2189 167.274 13.7722C158.99 15.3255 151.223 17.9144 143.457 19.9854C142.421 19.9854 141.386 20.5033 141.386 19.4678C141.386 18.4323 142.421 18.4322 143.457 18.4322C152.777 15.8434 162.096 13.2545 171.416 10.6657C171.934 11.1835 172.969 10.6658 173.487 10.1481Z" fill="#D8AF49"/>
<path d="M149.152 216.737C152.776 212.595 151.741 207.417 152.776 202.757C153.294 201.721 152.776 200.168 152.776 199.133C152.776 198.097 152.259 196.026 154.33 196.544C155.883 196.544 155.365 198.615 155.365 199.651C155.365 202.239 154.848 204.828 154.33 207.417C154.33 208.453 153.812 210.524 154.848 210.524C156.401 211.041 156.401 208.97 156.401 207.935C157.436 202.757 158.472 198.097 159.507 192.92C159.507 191.884 160.025 190.331 161.579 190.848C163.132 191.366 162.096 192.402 161.579 193.437C160.543 197.062 160.025 200.686 158.99 204.828C158.99 205.346 158.472 206.382 159.507 206.899C160.025 206.899 160.543 206.899 161.061 206.381C165.721 202.239 172.452 199.65 175.558 193.437C176.594 190.848 179.7 194.473 181.771 192.402C182.289 191.884 182.289 193.437 181.771 193.955C174.523 197.062 175.04 204.31 172.452 210.524C171.934 210.524 171.934 210.524 171.416 210.524C169.345 210.524 169.863 205.864 167.274 207.935C164.167 210.006 160.543 211.559 159.507 215.701C158.99 218.808 158.99 221.397 157.954 224.503C157.436 226.057 156.401 227.092 154.848 227.092C153.294 227.092 152.259 226.057 151.741 224.503C151.741 223.468 151.741 222.95 151.741 221.914C151.741 222.432 151.741 222.95 151.741 223.986C151.741 226.057 151.223 228.645 148.634 228.128C145.528 227.61 146.045 224.503 146.563 222.432C146.563 221.397 147.081 220.361 147.599 219.326C149.152 217.772 149.152 217.255 149.152 216.737Z" fill="#D8AF49"/>
<path d="M213.355 170.137C214.908 170.655 214.391 171.691 214.391 172.726C212.32 201.203 210.249 230.198 210.249 258.676C210.249 259.193 210.249 259.711 210.249 260.747C210.249 261.782 210.248 263.335 208.695 262.818C207.66 262.818 207.66 261.782 207.66 260.747C207.66 257.122 207.66 254.016 207.66 250.391C207.66 227.092 209.731 203.792 210.766 181.011C211.284 177.386 210.766 173.244 213.355 170.137Z" fill="#D8AF49"/>
<path d="M163.132 243.661C165.721 240.554 169.345 238.483 172.452 236.412C176.594 233.823 178.147 230.199 179.183 225.539C180.218 222.95 174.005 221.914 178.665 219.326C181.254 217.772 180.736 214.148 181.772 211.559C182.807 208.97 181.254 206.382 182.807 203.275C184.878 199.651 186.431 200.168 189.02 200.686C185.914 203.793 183.325 207.935 184.36 211.559C185.914 215.701 183.843 217.772 182.807 220.879C182.289 221.397 182.289 222.432 182.289 223.468C182.289 225.021 180.736 227.092 182.289 228.128C183.843 229.681 184.878 227.092 186.431 226.057C191.609 222.432 197.304 219.326 201.964 214.666C202.482 214.148 204.035 212.595 204.553 213.63C205.589 214.666 204.036 215.183 203 215.701C196.787 220.361 190.574 225.021 184.36 229.681C180.218 232.788 179.7 235.894 182.289 240.036V240.554C180.218 241.59 179.183 243.661 177.112 243.661C177.112 242.107 178.665 240.554 178.665 238.483C178.665 237.448 179.183 235.894 178.147 235.894C177.629 235.376 176.076 236.412 175.558 236.93C171.934 239.519 168.827 241.59 165.203 244.178C162.614 244.696 162.614 244.696 163.132 243.661Z" fill="#D8AF49"/>
<path d="M140.35 98.6857C140.35 99.7213 139.315 101.274 139.832 101.792C142.939 105.417 138.797 103.864 138.279 103.346C133.619 101.275 133.101 96.6146 132.584 92.4725C132.066 88.3303 134.137 84.706 137.761 82.1171C138.279 82.1171 138.797 82.1171 138.797 82.1171C139.315 83.1527 138.279 83.1528 137.761 84.1883C137.244 85.2239 135.69 86.2593 136.208 87.2948C137.244 88.8481 138.279 86.777 139.315 86.2592C139.832 85.7414 140.868 85.2238 141.386 85.7416C143.974 87.2949 144.492 86.2592 142.939 83.6704C142.421 83.1526 141.386 82.635 142.421 81.5995C142.939 81.0817 143.975 81.5994 144.492 82.1171C148.634 85.7415 149.152 97.6503 144.492 100.757C143.975 101.275 143.457 101.792 142.939 100.239C142.421 98.1679 140.868 96.6147 140.868 94.5437C140.868 94.0259 141.386 91.9548 139.832 91.9548C138.797 91.9548 138.797 93.5081 138.797 94.5437C140.35 96.6147 140.35 97.6502 140.35 98.6857Z" fill="#D8AF49"/>
<path d="M266.685 286.118C270.827 282.493 272.898 277.315 277.041 273.691C277.558 273.173 278.076 272.138 279.112 273.173C279.112 273.691 279.112 274.209 278.594 274.727C267.203 286.117 263.579 302.168 255.294 315.63C254.777 316.666 254.259 318.219 253.223 318.737C251.152 320.29 251.152 318.219 251.152 317.184C253.741 311.488 256.848 306.31 258.919 300.615C258.919 300.097 258.919 299.579 258.919 299.579L259.437 300.097C258.919 300.097 258.919 300.615 258.919 301.133C256.33 306.828 254.259 312.524 250.634 317.184C249.599 317.701 249.081 319.772 248.046 319.254C246.492 318.219 248.046 317.183 248.563 316.148C253.741 307.346 257.883 297.508 262.543 288.188C263.579 286.117 264.614 284.564 265.65 282.493C266.168 281.458 266.685 279.904 267.721 280.422C269.274 281.457 267.721 282.493 267.203 283.529C267.721 284.046 267.203 285.082 266.685 286.118C267.203 286.118 266.685 286.635 266.685 286.118C266.685 286.635 266.685 286.635 266.685 286.118Z" fill="#D8AF49"/>
<path d="M185.914 25.1622C190.056 25.1622 194.198 25.1622 198.858 25.1622C199.893 25.1622 200.929 25.1622 200.929 26.1978C200.929 26.7155 199.893 27.2334 198.858 27.2334C191.609 27.2334 184.878 26.7154 177.629 26.7154C176.594 26.7154 175.041 26.1978 175.041 27.2334C175.041 28.2689 176.594 28.2688 177.629 28.7866C178.147 28.7866 178.665 28.7865 179.701 29.3042C180.218 29.3042 180.736 29.8221 181.254 30.3398C181.772 31.3754 180.736 31.8931 179.701 31.8931C176.594 32.9286 174.523 34.4819 172.452 37.0707C170.898 39.1418 167.274 39.6597 164.168 39.1419C157.954 38.1064 152.259 37.5886 146.046 35.5175C145.01 35.5175 144.492 34.9997 143.975 34.4819C145.01 34.4819 145.528 33.9643 146.563 33.9643C152.259 34.9998 157.954 36.0353 163.65 36.5531C166.239 36.5531 170.898 37.5886 170.898 35.5175C170.898 31.8931 166.756 33.4464 164.168 32.9287C163.132 32.9287 161.061 33.4464 161.061 31.8931C161.061 30.3398 163.132 30.3398 164.168 30.3398C165.721 29.8221 165.721 29.8223 165.721 28.269C165.721 26.7157 167.274 26.7155 168.31 26.1978C174.005 24.6445 180.218 25.1622 185.914 25.1622Z" fill="#D8AF49"/>
<path d="M139.315 244.178C133.619 242.624 131.03 237.447 127.924 233.305C127.406 232.269 127.406 231.233 129.477 231.233C135.173 231.233 141.904 225.02 143.457 218.807C144.492 213.629 145.01 208.969 146.046 203.792C146.046 202.756 146.563 201.203 147.599 201.721C148.635 201.721 148.117 203.274 148.117 204.31C147.599 208.452 146.563 212.076 146.046 216.218C145.528 220.878 148.117 216.736 149.152 217.254L149.67 217.772C147.599 222.431 146.046 227.609 151.741 231.233C151.741 231.751 151.741 232.269 151.741 232.787C151.741 233.305 151.223 233.822 151.223 234.34C150.706 234.858 150.706 235.376 150.188 235.376C149.152 236.411 148.117 237.447 147.081 238.482C146.563 239 146.046 239 145.528 239.518C143.975 240.036 142.421 240.035 141.386 239C140.868 238.482 140.35 237.965 139.832 237.965C138.797 237.447 138.279 235.893 136.726 236.929C136.208 237.447 137.761 238.482 138.279 239.518C139.315 240.553 139.833 242.107 139.315 243.66C139.315 243.66 139.315 243.66 139.315 244.178Z" fill="#D8AF49"/>
<path d="M102.036 171.173C108.767 170.655 113.944 175.315 113.426 181.528C112.909 186.706 107.213 189.295 102.553 186.706C98.929 184.117 96.3402 178.939 96.858 174.797C97.3757 171.173 99.9646 171.173 102.036 171.173C102.036 171.173 102.553 171.173 102.036 171.173C102.553 171.173 102.553 171.173 102.036 171.173C102.553 171.691 102.036 171.691 102.036 171.173C102.036 171.691 102.036 171.173 102.036 171.173Z" fill="#D8AF49"/>
<path d="M71.4871 38.106C70.4516 39.1415 67.8628 39.1416 68.3806 41.7304C68.8983 43.8015 67.345 44.8369 66.3095 44.8369C57.5074 45.8724 56.9897 52.6036 56.4719 58.299C55.9542 60.3701 55.4364 62.9589 55.4364 65.0299C55.4364 67.6188 52.8476 68.1365 51.2943 69.172C50.2587 69.6898 49.7409 67.1009 49.2231 65.5476C46.6343 57.7811 50.7764 48.4615 59.5785 43.8016C62.6851 42.2483 66.3095 41.7304 68.3806 38.106C68.8983 37.5882 70.4516 38.6238 71.4871 38.106Z" fill="#D8AF49"/>
<path d="M114.98 91.4368C114.98 94.0256 114.462 96.6146 113.427 98.6857C112.909 99.7212 113.944 102.31 111.355 102.31C108.767 102.31 107.213 101.792 105.66 100.239C103.071 96.6145 103.589 85.7416 106.178 82.635C106.696 82.1173 107.213 82.1171 107.213 82.1171C108.767 82.6348 107.731 83.6704 107.731 84.7059C107.731 85.2237 106.696 86.2593 107.731 86.7771C108.767 87.2949 109.284 86.777 109.284 85.7415C109.802 84.1882 110.32 82.6349 112.391 83.1527C113.944 83.6704 113.944 85.7416 114.462 86.7771C114.98 88.3304 114.98 89.8835 114.98 91.4368Z" fill="#D8AF49"/>
<path d="M120.157 122.503C124.3 122.503 127.924 126.128 127.924 130.788C127.924 134.412 124.817 137.001 120.675 137.001C116.533 137.001 113.426 132.859 113.944 128.199C113.944 124.574 116.015 122.503 120.157 122.503Z" fill="#D8AF49"/>
<path d="M287.396 269.548C286.878 270.066 286.878 271.102 286.36 271.619C278.076 286.117 269.792 300.614 260.99 315.112C260.472 316.147 259.954 316.665 259.436 317.7C258.919 318.218 258.401 318.218 257.883 317.7C256.848 317.183 257.883 316.665 257.883 316.147C257.883 316.147 257.883 315.629 258.401 315.629C267.203 300.614 276.005 285.081 284.807 270.066C285.325 269.03 285.842 267.995 286.878 267.995C286.878 268.513 286.878 269.03 287.396 269.548Z" fill="#D8AF49"/>
<path d="M265.132 318.219C264.096 318.737 263.579 318.737 263.579 318.219C263.579 317.701 263.579 317.183 264.096 317.183C265.65 314.595 267.721 312.006 269.274 309.417C276.523 298.026 282.218 285.6 287.914 273.173C288.431 271.62 289.467 270.584 289.985 269.031C290.503 268.513 291.02 267.478 292.056 267.996C293.091 268.513 292.574 269.549 292.056 270.066C289.467 275.762 286.878 280.94 283.772 286.635C278.594 296.473 273.416 306.31 267.203 315.63C266.685 316.666 265.65 317.701 265.132 318.219Z" fill="#D8AF49"/>
<path d="M177.629 119.914C174.523 115.772 175.04 111.63 178.147 107.488C179.182 105.935 180.736 105.417 182.289 105.417C184.36 105.934 183.842 107.488 183.842 109.041C184.878 114.736 183.325 117.325 177.629 119.914Z" fill="#D8AF49"/>
<path d="M182.289 127.68C186.431 128.716 187.467 131.823 187.467 135.965C187.467 139.072 184.878 138.554 183.842 139.589C182.289 141.143 181.254 139.071 180.736 138.036C179.182 135.447 177.629 132.341 179.182 129.234C179.7 127.163 180.736 125.609 182.289 127.68Z" fill="#D8AF49"/>
<path d="M99.9641 120.431C100.482 123.02 99.9641 125.091 101.517 127.162C102.553 129.233 102.035 130.787 99.9641 131.822C97.3753 133.376 95.822 131.822 94.7864 129.751C92.1976 125.091 93.7509 120.431 98.9286 117.843C99.9641 117.843 99.9641 119.396 99.9641 120.431Z" fill="#D8AF49"/>
<path d="M89.0913 83.6706C89.0913 83.1528 89.0913 82.1175 89.0913 81.5997C89.6091 79.5286 90.1268 76.9397 92.1979 76.9397C94.2689 76.4219 94.7867 79.0108 95.8222 80.5641C96.8577 82.6352 98.4111 85.2239 96.8578 87.295C95.8223 88.8483 93.7512 89.8838 91.6801 88.8482C89.6091 88.3305 89.0913 85.7416 89.0913 83.6706Z" fill="#D8AF49"/>
<path d="M110.837 272.137C111.355 272.137 111.873 271.619 112.391 271.619C125.335 274.208 138.797 276.279 151.741 280.939C152.259 280.939 152.259 281.456 152.259 281.456C152.259 281.974 151.741 281.974 151.741 281.974C138.797 278.868 126.37 276.279 113.426 273.172C112.908 273.172 111.873 273.172 110.837 272.137Z" fill="#D8AF49"/>
<path d="M140.35 15.3243C140.35 16.3599 141.904 17.3954 140.35 17.9132C134.137 19.4665 127.924 22.5731 121.193 23.0908C120.675 22.0553 119.64 22.0552 118.604 22.0552C118.086 22.0552 117.569 21.5373 117.051 21.5373C117.569 21.0195 118.086 21.0198 118.604 20.502C125.853 18.4309 132.584 15.3243 140.35 15.3243Z" fill="#D8AF49"/>
<path d="M211.802 119.914C208.178 121.985 207.66 125.61 205.071 128.716C204.553 129.234 204.036 130.269 203 130.269C201.447 129.752 202.482 128.716 203 127.681C204.553 124.574 207.142 122.503 208.178 118.879C212.32 114.737 214.391 109.559 216.98 104.381C218.015 103.345 218.533 101.792 219.051 100.239C219.569 99.7212 220.086 98.6856 221.122 99.2034C222.157 99.7211 221.64 100.757 221.122 101.275C218.533 105.934 215.944 110.594 213.355 115.254C212.838 116.808 211.802 118.361 211.802 119.914Z" fill="#D8AF49"/>
<path d="M161.579 163.406C159.508 163.406 158.472 161.853 158.472 159.264C158.472 155.122 161.061 153.051 164.168 153.051C167.274 153.569 167.792 155.64 167.792 157.711C167.792 161.335 165.203 163.924 161.579 163.406Z" fill="#D8AF49"/>
<path d="M182.807 167.031C185.396 167.031 187.467 166.513 187.467 169.62C187.467 172.209 182.807 175.315 179.701 175.315C177.629 175.315 175.558 174.28 176.076 172.209C177.629 169.102 179.7 167.031 182.807 167.031Z" fill="#D8AF49"/>
<path d="M105.66 247.285C105.142 247.803 104.106 248.32 103.589 247.285C101.517 245.214 99.4464 243.143 97.3753 240.554C93.751 235.894 90.6444 230.716 87.5378 225.539C87.02 225.021 86.5023 223.985 87.5378 223.467C88.5733 222.95 89.0911 223.468 89.6088 223.985C94.2687 231.752 98.9286 239.001 105.142 245.732C105.142 246.767 105.142 246.767 105.66 247.285Z" fill="#D8AF49"/>
<path d="M96.34 225.02C96.8577 225.538 96.8577 226.573 97.3755 227.091C102.553 233.822 108.249 240.035 113.426 246.766C113.944 247.284 114.98 248.319 114.462 248.837C113.426 249.873 112.391 248.837 111.873 247.802C106.178 241.071 99.9643 234.858 95.3044 227.609C94.7867 227.091 93.7511 226.056 96.34 225.02Z" fill="#D8AF49"/>
<path d="M208.178 118.878C206.624 118.878 206.106 121.467 204.553 120.431C203 119.396 204.553 117.843 205.589 116.289C208.695 110.076 212.32 103.863 215.426 98.1674C215.944 97.1319 216.98 94.5429 218.015 95.0606C219.568 96.0962 218.015 98.1672 216.98 99.2027C214.391 104.38 211.284 110.076 208.178 115.254C208.178 116.807 208.178 117.843 208.178 118.878Z" fill="#D8AF49"/>
<path d="M170.898 282.492C171.934 281.974 175.041 283.01 172.452 279.903C171.934 279.385 171.934 278.35 172.452 277.832C172.97 277.314 174.523 276.796 174.523 277.832C178.147 286.116 187.467 285.599 193.68 289.223C186.431 287.67 178.147 286.116 170.898 282.492Z" fill="#D8AF49"/>
<path d="M159.507 235.376C158.472 237.447 155.883 238.483 154.33 240.036C153.294 241.072 150.705 241.589 152.777 244.178C153.812 245.731 151.741 245.732 151.223 245.214C149.152 243.143 147.599 245.732 145.528 245.732C145.01 245.732 144.492 245.214 144.492 244.696C143.975 242.107 143.975 240.036 145.528 237.965C148.117 237.965 149.152 236.412 149.67 233.823C150.188 233.305 150.706 232.787 151.223 232.27C154.33 231.234 156.919 232.787 160.025 234.341C159.508 234.859 159.507 234.859 159.507 235.376Z" fill="#D8AF49"/>
<path d="M77.7002 264.371C77.7002 263.853 77.7002 263.853 77.7002 263.335C87.02 265.407 96.3398 267.995 106.177 269.549C107.731 270.066 110.32 269.549 110.837 272.138C99.9642 270.584 88.5733 268.513 77.7002 264.371Z" fill="#D8AF49"/>
<path d="M147.599 130.268C148.117 133.375 146.563 134.929 144.492 134.929C141.386 134.929 140.35 132.857 140.35 129.751C140.35 126.644 144.492 124.056 145.528 124.056C148.634 125.091 146.563 129.233 147.599 130.268Z" fill="#D8AF49"/>
<path d="M98.4111 217.254C97.3755 215.701 97.3756 214.148 97.8933 212.594C99.4466 206.899 101 201.203 101.518 194.99C101.518 193.954 101.518 192.401 103.071 192.919C104.624 192.919 104.107 194.472 104.107 195.508C102.553 202.757 101.518 210.006 98.4111 217.254Z" fill="#D8AF49"/>
<path d="M132.583 250.391C136.726 251.427 136.726 251.427 136.726 246.249C137.243 246.767 137.761 246.767 138.279 247.285C138.797 247.802 139.314 248.838 140.35 247.802C141.903 246.767 140.35 246.249 139.832 245.213C139.314 244.696 139.314 244.178 139.314 243.66C141.903 241.589 143.457 242.625 145.528 244.696L146.045 245.213C145.528 246.249 146.045 247.284 146.563 247.802C147.081 248.32 148.116 248.838 147.599 249.873C146.563 250.909 145.528 249.873 145.01 249.355C142.939 247.802 141.385 246.767 142.421 250.909C142.421 251.427 142.421 251.427 142.421 251.944C139.832 251.427 137.761 251.427 135.172 252.98C134.655 254.015 133.101 251.944 132.583 250.391Z" fill="#D8AF49"/>
<path d="M266.167 72.7969C266.167 72.7969 266.167 73.3145 265.65 73.3145C265.132 73.8323 264.614 73.3146 264.096 72.7969C260.472 66.5837 256.33 60.3704 252.705 53.6394C252.188 53.1217 252.187 52.0862 253.223 52.0862C253.741 52.0862 254.259 52.6038 254.776 52.6038C258.919 57.7815 262.025 62.9593 264.614 68.6548C265.132 70.7258 265.649 71.7613 266.167 72.7969Z" fill="#D8AF49"/>
<path d="M138.797 187.741C137.761 187.741 136.726 186.706 136.726 185.152C136.208 182.046 137.761 180.492 139.832 178.939C140.868 178.421 141.903 177.904 142.421 178.939C144.492 181.01 145.01 183.081 144.492 185.67C143.457 188.777 142.421 188.259 141.386 185.67C140.868 186.188 138.279 182.564 139.315 186.706C140.35 187.223 140.35 187.741 138.797 187.741Z" fill="#D8AF49"/>
<path d="M0.552955 295.955C7.28392 289.224 14.0149 281.975 21.7814 276.28C22.2992 275.762 23.3347 274.727 23.8525 275.762C24.3702 276.28 23.8525 277.315 22.8169 277.833C15.0504 283.529 8.83726 291.295 1.07075 296.991C0.552986 296.991 0.552923 296.991 0.0351562 297.508C0.552923 296.991 0.552955 296.473 0.552955 295.955Z" fill="#D8AF49"/>
<path d="M173.487 209.488C174.523 209.488 175.558 209.488 176.594 208.97C177.112 208.452 177.629 208.452 178.147 208.97C178.147 208.97 177.629 209.488 177.629 210.006C172.452 213.112 174.005 218.29 174.523 222.95C174.523 225.021 175.041 227.092 171.934 226.574C171.416 226.574 170.898 226.057 170.381 225.539C168.31 222.95 168.827 219.326 168.31 216.219C167.274 212.595 170.381 210.524 173.487 209.488Z" fill="#D8AF49"/>
<path d="M136.726 246.249C135.69 246.249 134.655 246.767 134.137 246.767C128.959 242.625 123.782 237.965 120.157 232.27C119.64 231.234 119.122 230.198 120.157 229.681C121.193 229.163 122.229 230.198 122.746 231.234C126.371 237.447 131.548 241.589 136.726 246.249Z" fill="#D8AF49"/>
<path d="M248.045 54.6752C249.081 54.6752 249.081 55.193 249.081 55.7108C251.152 61.4062 254.777 66.0661 257.883 71.2438C258.401 72.2793 259.954 73.8325 258.401 74.3502C257.365 74.868 256.33 73.3149 255.812 72.2794C252.705 67.6195 249.081 62.9593 247.01 57.7816C246.492 56.7461 245.974 55.1929 248.045 54.6752Z" fill="#D8AF49"/>
<path d="M83.9138 227.092C84.4316 227.61 84.9493 227.61 84.9493 228.127C87.0204 233.823 90.127 237.965 94.2692 242.107C94.7869 242.625 95.3047 243.66 94.2692 244.178C93.7514 244.696 93.2336 244.178 92.7158 243.66C88.5737 239.518 84.4315 234.858 82.8782 229.163C82.8782 228.645 82.3605 227.61 83.9138 227.092Z" fill="#D8AF49"/>
<path d="M166.238 230.199C163.649 232.788 163.649 235.894 163.132 239.519C163.132 240.554 163.132 241.59 162.096 241.59C161.061 241.59 161.061 240.554 161.061 239.519C161.061 237.965 161.578 236.412 160.025 235.377L159.507 234.859C157.954 229.681 161.061 225.539 162.614 220.879C163.132 219.326 164.167 218.29 165.721 218.29C167.792 218.808 167.792 220.361 168.309 222.432C168.309 225.021 166.756 227.092 166.756 229.163C166.238 229.163 166.238 229.681 166.238 230.199Z" fill="#D8AF49"/>
<path d="M211.802 119.913C214.909 118.36 214.909 113.7 218.015 111.629C219.051 111.111 219.051 111.629 219.051 112.665C214.909 120.431 210.767 128.198 206.624 135.964C206.107 136.482 206.107 138.553 204.553 137.518C204.036 137 204.553 135.964 205.071 135.446C207.66 130.269 210.249 125.609 211.802 119.913Z" fill="#D8AF49"/>
<path d="M253.223 73.8322C253.223 74.35 253.223 74.8678 252.706 74.8678C252.188 75.3856 251.67 74.8676 251.152 74.3498C247.528 68.1366 244.421 62.4412 240.797 56.228C240.797 55.7102 240.797 55.1924 240.797 55.1924C241.315 54.6746 241.833 54.6746 242.35 55.1924C247.01 61.4056 250.117 67.619 253.223 73.8322Z" fill="#D8AF49"/>
<path d="M247.01 73.3147C247.01 73.8325 247.01 74.3503 246.492 74.3503C245.975 74.8681 245.457 74.3504 244.939 73.8327C243.904 72.2794 243.386 70.7261 242.35 69.6906C240.797 66.584 239.761 63.4771 238.208 60.3705C237.69 58.8172 234.584 58.2995 236.655 56.2285C237.173 55.7107 239.244 57.7818 239.761 58.8173C243.904 63.4772 243.904 69.1726 247.01 73.3147Z" fill="#D8AF49"/>
<path d="M212.837 97.6491C212.32 99.2024 211.802 101.273 210.766 102.827C209.213 105.933 207.66 109.04 205.071 111.111C203.518 112.665 203.518 115.771 200.929 114.735C199.893 114.218 201.964 111.629 203 110.076C206.106 105.934 208.695 101.791 209.731 96.6135C209.731 96.0958 210.249 95.5782 210.766 95.5782C212.837 96.096 212.837 96.6136 212.837 97.6491Z" fill="#D8AF49"/>
<path d="M91.6802 207.935C92.7157 202.239 93.7512 196.544 95.8222 191.366C96.34 190.331 96.8578 189.813 97.3756 189.813C97.8933 190.331 97.8934 191.366 97.8934 191.884C96.3401 197.062 94.7868 202.757 94.269 207.935C94.269 208.97 94.7867 211.041 93.2334 210.524C91.6801 211.041 92.1979 208.97 91.6802 207.935Z" fill="#D8AF49"/>
<path d="M132.584 250.39C126.888 246.766 122.229 241.071 117.569 235.893C116.533 234.857 116.015 233.304 115.498 231.751C115.498 231.233 115.498 230.715 116.015 230.198C116.533 230.198 117.051 230.198 117.051 230.715C121.193 238.482 128.96 243.142 132.584 250.39Z" fill="#D8AF49"/>
<path d="M37.3145 280.939C35.2435 280.939 33.6902 280.939 33.1724 279.386C32.6546 277.832 33.6902 276.797 34.7257 275.761C35.2435 275.243 36.279 274.725 36.7967 275.243C37.3145 275.761 36.2789 276.797 36.2789 277.314C35.2434 279.385 36.7968 279.386 38.3501 279.386C40.9389 279.386 41.4566 277.832 40.4211 274.726C40.4211 274.208 40.4211 273.69 40.9389 273.172C42.4922 272.655 44.0455 272.137 45.081 273.172C46.1166 274.208 46.1165 275.243 45.5988 276.279C43.5277 279.385 40.4211 280.939 37.3145 280.939Z" fill="#D8AF49"/>
<path d="M85.9845 202.756C87.02 197.061 88.5733 191.366 91.6799 186.706C92.1977 186.188 92.7154 185.67 93.2332 186.188C94.2687 186.706 93.7509 187.224 93.2332 187.741C91.1621 192.919 89.6088 198.097 88.5733 203.274C88.5733 204.31 88.5733 206.381 86.5023 205.345C85.9845 204.827 85.4667 203.274 85.9845 202.756Z" fill="#D8AF49"/>
<path d="M76.147 33.964C79.7713 30.3396 83.9134 29.822 88.5733 28.2687C89.0911 28.2687 90.1266 28.2687 91.1622 28.2687C91.1622 29.822 89.6089 29.304 89.0911 29.304C88.5734 29.304 88.0555 29.8219 88.0555 29.8219C87.5378 30.3397 85.4667 29.8219 85.9845 31.3752C85.9845 31.8929 87.5378 32.4106 88.5733 32.9284C84.949 34.9995 81.3246 34.4816 77.1825 34.4816C76.6647 34.4816 76.6647 34.4816 76.147 34.4816C76.147 34.4816 76.147 34.4818 76.147 33.964Z" fill="#D8AF49"/>
<path d="M91.1625 104.381C90.6447 104.899 90.6448 104.899 90.127 105.417C84.9493 109.041 82.3605 114.737 79.2539 119.914C78.7361 120.432 78.2184 121.468 77.1828 121.468C76.1473 120.95 76.6651 119.914 77.1828 119.397C80.2894 114.219 83.396 108.524 88.5737 104.899C89.0914 104.382 89.6092 104.381 90.127 104.381C90.6448 103.864 91.1625 104.381 91.1625 104.381Z" fill="#D8AF49"/>
<path d="M136.726 220.36C137.761 215.7 138.279 211.558 139.315 207.416C139.315 206.38 139.833 205.863 140.868 205.863C141.386 205.863 141.386 206.898 141.386 207.416C140.868 211.558 140.35 216.218 139.315 220.36C139.315 221.396 138.797 222.949 137.761 222.431C136.208 222.949 136.726 221.396 136.726 220.36Z" fill="#D8AF49"/>
<path d="M79.2538 229.681C80.2893 229.681 80.2893 230.199 80.2893 230.716C81.8426 234.859 84.9492 237.965 87.5381 241.072C88.0558 241.589 88.5736 242.625 87.5381 243.143C87.0203 243.661 86.5025 244.178 85.9848 243.143C83.3959 239.519 79.2538 236.93 78.2183 231.752C78.736 231.234 78.736 230.199 79.2538 229.681Z" fill="#D8AF49"/>
<path d="M198.858 111.112C197.822 110.594 198.34 110.076 198.34 109.041C200.411 104.899 202.482 100.757 204.553 96.6144C205.071 96.0966 205.589 95.0614 206.624 95.5791C208.177 96.0969 207.142 97.1324 206.624 98.168C204.553 102.31 202.482 105.934 200.411 110.077C200.411 110.077 199.893 110.594 198.858 111.112Z" fill="#D8AF49"/>
<path d="M82.8778 200.686C81.8423 200.686 81.3245 199.65 81.8423 199.132C82.8778 194.472 84.4311 189.812 85.9844 185.153C85.9844 184.635 87.02 184.635 87.5378 184.117C87.5378 184.635 88.0555 185.152 88.0555 185.67C87.0199 190.33 85.4667 195.508 83.9134 200.168C83.9134 200.685 83.3956 201.203 82.8778 200.686Z" fill="#D8AF49"/>
<path d="M247.01 38.6249C242.868 43.8026 238.208 48.9802 234.066 54.1579C233.548 54.6757 233.03 55.7111 231.995 54.6755C231.477 54.1578 231.995 53.1221 232.513 52.6043C236.655 47.4267 240.797 42.2491 246.492 38.1069C246.492 38.1069 246.492 38.6249 247.01 38.6249Z" fill="#D8AF49"/>
<path d="M238.726 73.3149C238.726 73.8327 238.726 74.8684 237.69 74.8684C236.655 74.8684 236.137 73.8327 236.137 73.3149C236.137 69.1728 234.066 66.0663 232.513 62.4419C231.995 61.9241 231.995 60.8885 232.513 60.3707C233.548 59.853 234.066 60.8886 234.584 61.4063C237.173 65.0307 239.244 68.655 238.726 73.3149Z" fill="#D8AF49"/>
<path d="M227.853 71.761C227.853 72.7966 227.853 73.8322 226.817 73.8322C225.782 73.8322 225.782 72.7966 225.782 71.761C225.264 69.1722 224.746 66.5835 223.711 64.5125C223.193 63.9947 222.675 62.959 223.711 62.4413C224.746 61.9235 225.264 62.9591 225.782 63.4769C227.335 66.0657 227.335 68.6544 227.853 71.761Z" fill="#D8AF49"/>
<path d="M75.1116 77.9748C75.6293 76.9393 77.1827 76.4214 78.2182 76.9392C79.2537 77.457 78.736 79.0105 78.736 80.046C77.7005 83.1526 75.1116 85.2237 73.5583 87.8125C73.0406 88.3303 72.5228 88.3301 72.005 88.3301C71.4872 87.8124 72.005 87.2947 72.5227 86.7769C73.5583 85.2236 74.5939 83.1525 76.1472 81.5992C76.6649 80.0459 76.1471 79.0103 75.1116 77.9748Z" fill="#D8AF49"/>
<path d="M163.65 244.696C160.025 247.285 156.401 249.873 153.294 252.462C152.776 252.98 151.741 253.498 151.223 252.98C150.705 251.944 151.741 251.944 152.259 251.427C155.883 248.838 158.99 245.731 163.132 244.178C163.132 243.66 163.65 244.178 163.65 244.696Z" fill="#D8AF49"/>
<path d="M75.1114 77.9742C74.5936 79.5275 73.0403 79.0099 72.0048 80.0454C70.9693 80.5632 69.9337 81.081 68.8982 80.0454C67.8626 79.0099 68.8982 77.9744 69.9337 77.4566C70.4515 76.4211 71.487 75.9032 72.0048 75.3854C73.0403 74.3499 74.0758 72.2788 75.1114 72.7966C76.6647 74.3499 74.0759 74.8675 73.5581 75.9031C72.5226 77.9741 74.0758 77.4565 75.1114 77.9742Z" fill="#D8AF49"/>
<path d="M248.046 45.3556C245.975 47.9445 243.904 50.5333 241.315 53.1221C240.797 53.6399 240.279 53.6398 239.761 53.6398C238.726 53.122 239.761 52.0866 240.279 51.5689C242.868 48.98 245.457 45.8733 248.046 43.2844C248.563 43.8022 248.563 44.8379 248.046 45.3556Z" fill="#D8AF49"/>
<path d="M232.513 70.2087C232.513 71.2442 232.513 72.2799 231.995 72.2799C230.442 72.7977 230.442 71.2442 230.442 70.2087C229.924 69.1732 229.924 68.1377 229.924 67.1022C229.406 65.5489 226.817 62.96 228.371 62.4422C231.477 61.9244 231.477 65.0311 232.513 67.1022C232.513 68.1377 232.513 69.1732 232.513 70.2087Z" fill="#D8AF49"/>
<path d="M248.045 45.3556C248.045 44.8379 248.045 43.8022 248.045 43.2844C249.599 40.6956 252.188 38.6246 253.741 36.5535C254.259 36.0358 254.777 35.5181 255.294 36.0359C255.812 36.5537 255.294 37.0714 254.776 37.5891C252.705 40.178 250.116 42.7668 248.045 45.3556Z" fill="#D8AF49"/>
<path d="M181.254 240.036C182.289 237.965 183.843 236.412 186.432 236.412C185.396 238.483 183.325 239.518 181.254 240.036Z" fill="#D8AF49"/>
<path d="M171.416 226.573C169.863 228.127 168.31 229.68 165.721 230.198C165.721 226.573 166.756 225.02 170.381 226.055C170.898 226.055 171.416 226.573 171.416 226.573Z" fill="#D8AF49"/>
<path d="M88.0557 33.4466C89.609 31.8933 91.1623 31.8932 93.2333 32.411C93.7511 32.9287 94.2689 32.4108 93.7511 32.9286C91.6801 33.4464 89.609 33.4466 88.0557 33.4466Z" fill="#D8AF49"/>
<path d="M218.015 112.147C218.533 111.112 219.051 109.041 220.604 109.559C221.64 110.594 220.086 111.63 219.051 112.665C218.533 112.665 218.015 112.147 218.015 112.147Z" fill="#D8AF49"/>
<path d="M121.193 23.0911C120.675 24.1266 119.639 24.1263 118.604 24.1263L118.086 23.6087C119.639 23.0909 120.157 23.0911 121.193 23.0911Z" fill="#D8AF49"/>
<path d="M26.9591 262.818C26.4413 262.818 26.4412 263.335 25.9235 263.335C25.9235 263.335 25.9235 263.335 25.4058 262.818C25.9235 262.3 26.4413 262.3 26.9591 262.818C26.9591 262.3 26.9591 262.3 26.9591 262.818Z" fill="#D8AF49"/>
<path d="M189.02 200.685C189.538 200.168 190.056 199.65 191.091 199.65V200.168L189.02 200.685Z" fill="#D8AF49"/>
<path d="M186.431 236.411C186.949 235.893 187.467 235.375 187.984 235.375C187.984 235.375 187.985 235.893 188.502 235.893C187.985 235.893 186.949 236.411 186.431 236.411Z" fill="#D8AF49"/>
<path d="M76.6647 35.0007C75.6291 36.0363 75.1114 36.0363 73.5581 36.0363C73.5581 34.483 74.5936 34.4828 75.6291 34.4828C76.6647 34.4828 76.6647 34.483 76.6647 35.0007Z" fill="#D8AF49"/>
<path d="M247.528 37.0711C248.046 36.0356 248.563 35.518 249.081 36.0358C249.599 37.0713 248.563 37.0713 248.045 37.589C248.045 37.0713 248.046 37.0711 247.528 37.0711Z" fill="#D8AF49"/>
<path d="M98.411 217.253C98.411 217.771 97.8933 217.771 97.8933 218.289L97.3755 217.771C97.3755 217.253 97.8932 217.253 98.411 217.253Z" fill="#D8AF49"/>
<path d="M246.492 38.1071C246.492 37.5894 247.01 37.0715 247.528 37.0715L248.045 37.5895C247.528 38.1073 247.01 38.625 246.492 39.1427C246.492 38.625 246.492 38.1071 246.492 38.1071Z" fill="#D8AF49"/>
<path d="M177.63 119.914C177.63 120.432 177.63 120.95 177.112 120.432C177.112 120.95 177.112 120.432 177.63 119.914C177.112 120.432 177.112 120.432 177.63 119.914Z" fill="#D8AF49"/>
<path d="M277.041 150.979C283.771 150.462 288.949 146.32 294.127 142.178C295.68 142.695 296.198 141.66 297.751 140.624C298.787 140.106 299.304 138.553 300.34 140.106C300.34 140.106 299.305 142.178 298.787 142.178C295.68 143.731 301.376 145.802 298.269 147.355C297.233 148.391 295.162 149.944 297.751 152.015C298.787 153.051 299.822 154.604 297.233 155.639C295.162 156.675 293.091 158.228 291.02 159.781C289.985 161.853 288.949 163.406 287.396 164.959C279.112 170.655 270.31 175.832 259.954 178.421C259.437 178.421 258.919 178.939 258.401 178.939C257.883 178.939 256.848 179.457 256.33 179.457C255.812 179.457 255.294 179.975 254.777 179.975C252.706 181.528 251.152 183.081 250.117 185.67C249.599 186.188 249.599 186.705 249.081 187.223C244.939 191.365 241.832 196.543 237.69 200.685C237.172 200.685 237.173 200.685 236.655 201.203C233.548 203.274 230.959 205.345 233.03 209.487C233.548 210.005 233.03 211.04 231.995 211.558C230.442 212.076 230.442 210.523 230.442 210.005C229.924 208.969 229.924 206.898 228.37 207.416C226.817 207.934 227.853 209.487 228.37 210.523C230.959 215.7 227.335 219.842 225.782 224.502C225.782 225.02 225.782 226.056 224.746 226.056C224.746 226.056 224.228 225.02 224.228 224.502C223.193 211.558 221.639 198.614 220.604 185.67C220.604 184.634 220.604 183.599 221.639 182.563C229.924 173.761 238.208 164.442 246.492 155.122C247.528 154.086 249.599 153.051 248.046 152.015C247.01 150.979 245.457 153.051 244.421 154.086C238.208 160.817 232.513 167.548 226.299 174.279C224.746 176.35 222.157 180.492 220.604 179.975C218.015 178.421 220.086 174.797 219.568 171.69C218.533 167.03 222.675 165.477 224.228 162.888C225.782 160.299 225.264 160.299 223.193 161.335C222.157 161.852 222.157 160.817 222.157 159.781C222.157 156.675 224.228 154.086 227.853 153.568C229.406 153.568 229.406 152.533 229.924 151.497C231.995 147.355 233.548 142.695 235.101 138.553C235.619 137.518 236.137 135.964 237.173 136.482C238.208 137 237.69 138.553 237.173 139.589C236.655 142.178 235.619 144.248 235.101 146.837C235.101 147.873 235.101 149.426 235.619 149.426C236.655 149.944 237.69 148.908 237.69 147.873C237.69 144.249 240.279 141.142 240.797 138.035C242.35 132.34 242.35 132.34 248.046 134.411C248.563 134.411 249.081 133.893 249.599 133.376L250.117 133.893C250.635 134.411 250.635 135.447 250.117 135.964C251.152 135.447 250.634 134.411 250.634 133.376C250.634 132.858 250.635 132.34 250.117 131.822C251.152 129.233 253.741 128.716 255.812 127.162C260.99 127.68 260.99 127.68 258.401 132.858C257.883 133.375 257.883 134.411 257.365 134.929C256.33 136.482 255.294 138.035 253.741 139.071C256.33 140.106 257.365 136.482 257.883 136.482C262.543 139.071 262.543 134.411 264.614 133.376C265.132 137 262.543 140.106 262.025 143.731C261.508 145.802 259.437 148.908 260.472 149.426C263.061 149.944 263.061 146.32 263.579 144.248C266.167 138.553 268.239 132.858 270.827 127.162C271.345 126.127 271.345 124.056 272.898 125.091C274.452 125.609 272.898 127.162 272.381 128.198C270.827 136.482 269.274 144.766 264.614 152.533C263.579 154.086 264.096 155.122 265.65 154.604C270.827 153.051 274.452 153.568 277.041 150.979Z" fill="white"/>
<path d="M291.02 173.762C294.127 175.833 296.198 173.762 298.269 171.173C298.787 170.655 299.304 169.62 300.34 170.137C301.375 170.655 300.34 171.691 299.822 172.209C297.751 175.833 294.645 178.94 291.02 181.011C293.091 182.564 296.716 183.082 294.644 186.188C293.609 188.259 291.02 190.33 287.914 187.224C286.36 185.67 285.843 187.742 285.843 188.777C285.325 194.473 285.325 199.65 286.36 205.345C286.878 207.934 287.396 210.523 287.396 213.112C287.396 213.63 287.396 213.63 287.396 214.147C284.289 213.63 284.289 219.843 281.7 217.772C280.147 216.736 281.183 212.594 281.183 210.005C281.183 206.899 279.112 203.792 282.218 201.203C282.736 200.686 282.736 199.65 282.218 199.65C278.594 199.65 280.665 196.543 280.147 194.99C279.112 193.437 282.736 191.366 280.665 190.33C279.629 189.813 278.076 192.919 277.04 194.472C275.487 196.543 272.381 197.579 272.898 201.203C269.274 199.65 268.238 197.579 271.345 194.472C272.381 193.437 273.416 191.884 274.452 190.33C274.969 189.295 277.041 188.777 276.005 187.742C275.487 187.224 274.452 188.259 273.416 189.295C270.827 193.437 266.167 196.544 265.132 201.721V202.239L264.614 202.757H264.096C259.954 204.828 256.33 208.452 254.777 213.112C251.67 211.041 252.188 208.97 253.741 206.381C255.294 203.274 258.919 201.721 259.954 198.097C260.99 194.99 264.096 193.437 265.65 190.848C266.167 190.33 266.685 189.813 267.203 189.295C267.203 188.777 267.721 188.777 268.239 188.777L267.721 188.259C267.721 188.777 267.721 189.295 267.203 189.295C266.685 189.813 266.167 190.33 265.65 190.848C264.096 193.437 261.507 195.508 259.436 198.097C255.294 200.686 253.741 205.345 250.117 207.934C249.081 208.452 249.081 210.005 250.117 211.559C251.67 215.183 250.634 218.29 248.563 221.396C247.01 219.843 245.457 224.503 243.903 221.396C243.386 219.843 241.315 217.254 244.939 215.701C247.01 215.183 244.939 214.665 244.421 214.147C241.315 211.041 240.797 207.417 243.386 204.31C245.974 201.204 248.045 198.097 250.634 194.99C250.634 193.437 252.188 192.401 253.223 190.848C252.188 191.884 251.67 193.437 250.117 194.472C245.457 198.097 242.868 203.274 238.726 207.417C237.172 208.452 237.69 208.97 239.244 211.041C240.279 212.077 240.279 213.63 239.761 215.183C239.244 216.219 238.208 217.254 237.172 217.772C235.619 218.29 235.619 216.736 235.619 215.701C235.619 211.041 233.548 206.899 236.655 202.239C239.761 196.543 244.421 192.401 248.045 186.706C249.599 183.599 252.705 182.046 254.259 178.939C255.294 177.904 255.812 177.904 256.848 178.939C268.238 177.386 277.558 171.173 286.36 164.96C287.914 163.924 289.467 162.889 291.02 162.371C294.127 159.782 299.304 161.335 300.858 156.675C300.858 156.158 301.375 155.64 302.411 156.158C302.411 156.675 302.411 157.193 302.411 157.193C301.375 158.746 300.858 159.782 299.822 161.335C299.822 161.853 299.304 162.371 298.787 162.889C299.304 162.371 299.822 162.371 300.34 161.853C301.375 161.853 302.929 161.335 301.893 162.889C299.822 167.549 296.198 171.173 291.02 173.762C291.538 173.762 291.02 173.762 291.02 173.762Z" fill="white"/>
<path d="M236.137 271.62C237.69 264.372 237.172 257.123 237.172 249.356C237.172 248.838 237.172 248.321 237.172 248.321C237.172 244.696 239.243 242.625 241.314 240.036C241.832 239.519 242.35 239.519 242.35 240.036C243.386 243.143 243.385 246.249 241.832 249.356C240.797 250.909 238.725 252.463 242.868 253.498C244.421 254.016 243.385 256.605 243.385 258.158C242.868 263.336 239.761 267.996 238.726 273.173C238.726 274.209 237.69 275.244 237.172 276.28C235.619 274.727 236.654 273.174 236.137 271.62Z" fill="white"/>
<path d="M224.746 257.64C224.746 252.462 224.746 247.284 224.746 241.589C224.746 240.553 224.228 239.518 225.782 239.518C226.817 239.518 226.817 240.553 226.817 241.589C227.853 254.015 229.924 266.441 225.782 278.868C225.264 279.903 225.264 281.457 223.711 281.457C222.675 280.939 223.193 279.386 223.193 278.35C225.264 271.101 224.746 264.371 224.746 257.64Z" fill="white"/>
<path d="M263.061 255.569C260.99 258.676 259.955 262.3 257.883 265.407C256.848 266.96 256.33 269.549 253.741 266.96C255.812 261.265 258.919 255.569 259.437 248.838C259.954 243.661 264.097 239.001 266.685 234.341C266.685 233.823 267.203 233.823 267.721 233.823C268.757 233.823 268.239 234.859 268.239 235.377C268.239 236.93 268.239 238.483 267.721 240.554C265.132 244.696 263.579 249.874 263.061 255.569Z" fill="white"/>
<path d="M250.117 244.177C246.492 251.426 250.635 260.746 246.492 268.512C245.457 270.583 244.939 275.243 241.833 274.208C239.761 273.69 242.35 270.065 242.868 267.477C244.939 261.781 245.457 256.604 245.457 250.908C245.457 248.319 245.975 245.213 247.528 243.142C248.046 242.106 248.563 241.07 249.599 241.588C250.117 241.588 250.117 242.624 250.117 244.177Z" fill="white"/>
<path d="M249.081 272.137C247.01 272.137 247.01 271.101 248.045 270.066C250.634 263.853 251.67 257.64 251.67 250.909C251.67 246.766 254.259 244.178 256.33 240.553C256.33 240.036 257.365 240.035 257.883 239.518C257.883 240.035 258.401 240.553 258.401 241.589C257.883 243.66 257.883 245.213 256.848 247.284C254.259 253.497 256.33 261.264 252.188 266.959C250.634 268.513 250.117 270.584 249.081 272.137Z" fill="white"/>
<path d="M291.538 160.818C282.736 168.584 272.898 173.762 262.025 177.386C260.472 177.904 258.401 179.975 257.365 177.386C269.792 173.762 280.665 167.031 291.02 159.782C290.502 160.3 291.02 160.818 291.538 160.818Z" fill="#D8AF49"/>
<path d="M218.533 247.285C218.015 252.462 219.051 258.158 216.98 263.853C216.462 264.889 216.462 265.924 215.944 266.96C215.426 265.924 215.426 264.889 215.426 264.371C214.909 254.533 215.944 245.214 216.462 235.376C216.462 234.858 215.944 233.823 216.98 233.305C216.98 233.823 216.98 234.34 217.497 235.376C218.533 239 218.533 242.625 218.533 247.285Z" fill="white"/>
<path d="M268.238 224.503C267.721 229.163 264.614 233.823 262.025 237.965C261.507 238.483 260.99 239 260.472 239C260.472 238.483 259.954 237.965 259.954 237.447C260.472 234.858 260.472 231.752 262.025 229.681C263.061 227.61 264.614 225.538 265.132 223.467C265.132 222.432 265.649 220.879 266.685 221.396C268.756 221.396 267.721 222.95 268.238 224.503Z" fill="white"/>
<path d="M266.685 206.899C269.274 212.595 267.721 217.772 263.061 221.397C261.508 222.95 261.508 221.397 261.508 220.361C261.508 217.254 261.508 214.665 263.061 211.559V210.523C263.579 208.97 264.615 207.417 265.65 206.381C266.168 207.417 266.685 206.899 266.685 206.899Z" fill="white"/>
<path d="M254.259 212.077C256.33 212.077 256.847 207.935 258.401 209.488C259.954 211.041 259.954 214.148 258.401 216.736C256.847 218.808 255.294 221.914 252.705 221.397C250.634 220.361 252.188 217.254 253.223 214.666C253.741 213.63 254.259 213.112 254.259 212.077Z" fill="white"/>
<path d="M236.655 235.376C236.137 232.269 238.208 229.68 240.279 227.609C240.797 227.091 241.832 227.091 241.832 227.609C242.35 230.716 243.386 233.822 240.797 236.929C239.761 237.964 239.243 240.035 237.69 240.035C236.137 239.517 237.172 236.929 236.655 235.376Z" fill="white"/>
<path d="M258.401 229.163C260.472 233.305 256.33 235.376 255.295 238.482C254.777 239 254.259 240.036 253.223 239.518C252.706 239.518 252.706 237.964 252.706 237.447C252.188 232.787 254.777 229.68 257.366 226.574C257.883 226.056 258.401 224.503 259.437 225.02C259.954 225.02 259.437 226.574 259.437 227.091C258.919 228.127 258.401 228.645 258.401 229.163Z" fill="white"/>
<path d="M263.061 212.076C258.919 208.452 260.99 205.345 263.061 201.721C263.579 201.203 264.096 200.685 264.614 200.167C266.685 198.614 268.756 198.614 268.239 201.721C268.239 203.274 267.203 204.827 266.685 206.38C265.65 208.969 264.096 210.523 263.061 212.076Z" fill="white"/>
<path d="M236.137 223.467C235.619 220.36 236.137 217.254 238.726 216.736C241.315 216.218 240.279 219.843 240.797 221.396C241.315 224.503 239.244 227.091 237.173 227.091C235.101 227.609 236.655 224.502 236.137 223.467Z" fill="white"/>
<path d="M155.883 55.1924C154.33 53.1213 152.259 53.6391 150.188 52.6035C149.67 52.6035 149.152 52.086 148.634 51.5683C149.152 51.5683 149.67 51.0505 150.705 51.5683C158.472 53.6393 165.721 55.7101 173.487 57.7812C174.005 57.7812 174.523 58.299 175.04 58.8168C174.523 59.3346 173.487 59.3348 172.969 59.3348C167.274 57.7815 161.578 55.1924 155.883 55.1924Z" fill="white"/>
<path d="M247.528 228.644C248.046 228.644 249.599 228.127 249.599 229.162C250.117 230.198 250.117 231.233 250.117 232.269C250.117 235.376 248.563 237.965 246.492 240.553H245.457C244.939 237.447 244.421 234.858 245.975 231.751C246.492 231.234 246.492 230.716 246.492 230.198V229.68L247.01 229.162L247.528 228.644Z" fill="white"/>
<path d="M246.492 230.198C242.35 229.162 243.903 226.055 244.939 223.467C245.457 221.913 247.01 220.878 248.045 219.843C251.67 220.36 250.634 222.431 250.117 224.502C249.599 226.056 247.528 227.091 248.045 228.644C247.528 229.162 247.01 229.68 246.492 230.198Z" fill="white"/>
<path d="M235.101 260.746C235.619 265.924 234.584 271.102 234.066 276.279C234.066 276.797 234.066 277.833 233.03 277.833C232.513 277.833 232.513 276.797 232.513 276.279C233.548 268.513 234.066 260.746 234.066 252.98C234.066 252.462 234.584 251.945 234.584 251.427C234.584 251.945 235.101 252.462 235.101 252.98C235.101 255.569 235.101 258.158 235.101 260.746Z" fill="white"/>
<path d="M225.264 228.127C226.817 228.645 226.299 230.198 226.299 231.233C226.299 232.269 226.299 234.34 224.746 233.822C224.228 233.822 224.228 231.234 224.228 229.68C223.71 228.645 223.71 227.609 225.264 228.127Z" fill="white"/>
<path d="M257.883 124.575C258.919 123.539 259.437 122.503 260.99 123.539C261.508 123.539 261.508 124.057 261.508 124.575C260.472 125.092 259.437 125.092 258.401 125.61C257.883 125.61 257.366 125.61 257.883 124.575Z" fill="white"/>
<path d="M251.67 272.137C251.152 273.173 250.117 273.173 249.081 273.69C249.081 273.173 249.081 272.655 249.081 272.137C249.599 272.137 250.634 272.137 251.67 272.137Z" fill="white"/>
<path d="M241.315 277.315C241.315 277.833 241.315 278.35 241.315 278.868C240.797 278.868 239.244 278.868 239.244 277.832C239.244 277.315 240.797 277.315 241.315 277.315Z" fill="white"/>
<path d="M241.315 277.315C241.315 276.798 241.315 276.798 241.833 276.28C242.351 277.315 241.833 277.315 241.315 277.315Z" fill="white"/>
<path d="M246.492 274.726C246.492 275.244 246.492 275.762 246.492 276.279C245.974 276.279 245.974 275.762 245.457 275.762C245.974 275.244 246.492 274.726 246.492 274.726Z" fill="white"/>
<path d="M249.081 273.173C248.563 273.69 248.563 274.726 248.045 273.173C248.563 273.69 248.563 273.69 249.081 273.173Z" fill="white"/>
<path d="M254.259 270.584C253.741 271.101 253.741 271.619 253.223 271.101C253.741 271.101 253.741 271.101 254.259 270.584Z" fill="white"/>
<path d="M256.848 126.646C256.33 125.61 256.848 125.092 257.883 125.092C258.401 125.61 258.401 125.61 258.919 126.128C258.401 126.645 257.365 126.646 256.848 126.646Z" fill="white"/>
<path d="M250.117 132.858C250.117 132.341 250.634 131.305 251.152 131.305L251.67 131.823C252.188 132.859 251.67 132.858 250.117 132.858Z" fill="white"/>
<path d="M62.6851 181.528C63.2028 182.046 63.2028 182.046 63.7206 182.564C63.2028 182.564 63.2028 182.046 62.6851 181.528Z" fill="white"/>
<path d="M266.685 37.5891C265.65 39.6601 264.614 41.7313 262.025 41.2135C260.99 41.2135 259.436 40.6957 258.401 40.1779C259.436 38.6246 260.472 36.5535 263.061 36.5535C264.096 36.5535 265.132 37.0713 266.685 37.5891Z" fill="white"/>
<path d="M260.472 100.239C258.919 100.239 259.436 99.2034 258.919 98.6857C258.401 97.6501 258.401 97.1323 259.436 96.6145C260.472 96.0967 260.99 96.6146 260.99 97.6501C261.508 98.6856 260.99 99.2034 260.472 100.239Z" fill="white"/>
<path d="M257.365 91.4373C258.401 91.4373 259.954 91.4373 259.436 92.4729C258.919 94.0262 256.848 93.5083 255.812 94.0261C255.294 94.5439 254.259 94.0263 254.259 92.9908C254.777 91.4375 256.33 91.955 257.365 91.4373Z" fill="white"/>
<path d="M251.67 276.28C252.188 275.762 252.188 275.762 252.706 275.244H253.223C252.705 275.762 252.188 275.762 251.67 276.28Z" fill="white"/>
<path d="M249.081 277.315C249.599 276.28 250.634 276.28 251.67 276.28C251.152 276.798 250.117 277.315 249.081 277.315Z" fill="white"/>
<path d="M173.487 10.147C174.005 9.62928 174.523 9.11145 175.558 9.11145C176.076 9.11145 176.076 9.62909 175.558 9.62909C175.041 10.1469 174.523 10.147 173.487 10.147Z" fill="white"/>
<path d="M170.899 226.055C168.828 227.091 166.756 228.127 166.239 230.198C163.65 227.609 166.756 224.502 166.239 221.913C166.239 220.878 166.757 219.325 165.203 219.842C164.685 219.842 164.168 220.878 164.168 221.913C163.65 226.573 163.132 231.233 159.508 235.375C155.366 238.482 153.295 234.858 150.706 233.304C150.706 231.751 150.188 231.233 149.152 230.715C143.975 227.091 143.975 225.02 148.117 220.36C148.635 219.842 149.152 218.807 149.67 218.289C151.741 220.36 149.67 221.913 149.67 223.985C149.67 225.02 148.635 227.091 149.67 227.609C151.741 228.127 151.223 225.538 151.741 224.502C152.259 221.913 152.777 219.325 153.295 217.254C153.295 216.218 154.33 215.182 155.366 215.182C155.366 215.182 155.883 216.736 155.883 217.254C155.883 219.325 155.366 221.913 154.848 223.985C154.848 225.02 155.366 226.055 156.401 226.055C157.437 226.055 158.472 225.02 157.437 223.985V223.467C156.401 212.594 163.65 207.416 170.899 202.756C171.416 202.238 172.452 201.721 172.452 202.238C172.97 202.756 172.452 203.792 172.452 204.309C172.452 206.381 170.381 208.451 173.487 210.522C172.97 211.558 171.934 212.076 171.416 213.111C170.381 214.665 167.792 215.7 170.381 218.807C172.452 219.325 170.899 222.949 170.899 226.055Z" fill="white"/>
<path d="M144.492 92.9899C145.01 91.9544 143.974 89.3655 145.528 89.3655C147.081 89.3655 146.563 91.4364 146.563 92.472C146.046 94.0253 147.081 96.614 145.01 96.614C143.974 97.1318 144.492 94.5432 144.492 92.9899Z" fill="white"/>
<path d="M145.528 245.213C142.939 246.766 141.385 243.66 139.314 244.178C138.797 242.624 138.797 241.589 138.279 240.035V239.518C138.279 239 138.279 238.482 138.797 237.965C139.314 237.447 139.832 236.929 140.35 236.929C140.868 236.929 141.385 236.929 141.385 237.447H141.903C143.456 237.964 144.492 237.964 145.528 237.447C145.528 238.482 145.01 239 145.528 239.518C148.634 242.107 147.081 243.66 145.528 245.213Z" fill="white"/>
<path d="M140.35 237.447C139.832 237.965 139.832 237.965 139.315 238.482C138.797 239 138.279 239.518 137.761 240.036C135.69 239.518 134.137 237.965 133.101 236.411C132.584 235.376 131.03 234.34 133.101 232.787C134.655 232.269 135.69 230.198 137.243 232.269C138.797 233.822 140.35 235.376 141.903 237.447C141.386 237.965 140.868 237.965 140.35 237.447Z" fill="white"/>
<path d="M141.386 227.092C143.975 227.61 145.528 229.681 146.563 231.752C147.081 232.787 145.01 234.858 143.975 234.341C141.386 233.823 139.833 231.752 139.315 229.163C138.279 228.645 139.833 227.61 141.386 227.092Z" fill="white"/>
<path d="M149.67 233.823C150.188 234.341 150.188 234.859 150.706 235.377C151.223 236.412 154.33 236.93 152.777 239.001C150.706 241.59 149.152 240.036 147.599 238.483C147.081 237.965 146.564 237.965 146.046 237.447C145.01 234.859 147.081 233.823 149.67 233.823Z" fill="white"/>
<path d="M150.706 232.27C150.706 233.305 150.188 233.305 149.152 233.823C149.67 233.305 150.188 232.787 150.706 232.27Z" fill="white"/>
<path d="M104.106 179.975C104.106 178.94 104.106 177.386 104.624 176.868C105.142 175.833 105.66 173.762 106.695 174.279C108.249 175.315 106.177 176.351 106.177 177.386C106.177 178.422 105.66 179.457 105.66 180.493C105.66 181.528 106.178 183.082 104.624 183.6C104.624 182.046 104.624 181.011 104.106 179.975Z" fill="white"/>
<path d="M100.482 177.904C100.482 178.422 100.482 178.422 100.482 177.904C99.9644 177.904 99.9644 177.387 99.9644 177.387C99.9644 177.387 99.9644 176.869 100.482 176.869C100.482 177.386 100.482 177.904 100.482 177.904Z" fill="white"/>
<path d="M102.035 172.726C101.518 173.243 101 173.761 99.9644 173.761V173.243C100.482 172.208 101.518 172.726 102.035 172.726Z" fill="white"/>
<path d="M102.035 172.726C102.035 172.208 102.035 171.69 102.035 171.173C102.553 171.173 103.071 171.69 103.071 172.726H102.035Z" fill="white"/>
<path d="M51.2944 63.4769C51.8122 63.9947 51.8122 63.9946 51.8122 63.9946C51.8122 64.5123 51.8122 65.03 51.8122 65.5478L51.2944 65.0302C51.2944 64.5124 51.2944 63.9947 51.2944 63.4769Z" fill="white"/>
<path d="M182.29 127.681C182.29 127.681 182.29 128.195 182.29 127.681C182.29 128.195 182.803 127.681 182.29 127.681Z" fill="white"/>
<path d="M255.812 171.173C248.563 177.386 243.903 185.67 238.208 192.401C236.137 194.472 234.584 197.061 233.03 199.65C232.512 200.168 231.995 201.203 230.959 200.686C229.924 200.168 230.959 199.132 231.477 198.614C238.726 188.259 246.492 177.904 255.294 168.584C255.812 168.066 256.848 167.031 257.365 168.066C256.848 168.584 255.812 170.137 255.812 171.173Z" fill="#D8AF49"/>
<path d="M243.904 166.513C243.904 166.513 243.904 167.031 243.386 167.031C237.691 172.209 234.066 179.457 228.889 185.67C228.371 186.706 227.335 188.259 225.782 187.224C225.264 186.706 226.817 185.67 227.335 184.635C232.513 178.422 236.137 171.173 241.833 165.995C242.351 165.478 242.868 165.477 243.386 164.96C243.386 165.477 243.904 165.995 243.904 166.513Z" fill="#D8AF49"/>
<path d="M242.868 177.385C237.69 183.599 233.031 190.847 226.817 196.025H225.782C225.264 195.507 225.782 194.989 226.3 194.472C231.477 189.294 235.619 183.081 240.279 177.385C240.797 176.868 241.315 175.832 242.35 176.35C242.35 176.35 242.868 176.868 242.868 177.385Z" fill="#D8AF49"/>
<path d="M240.797 153.569C240.797 153.569 240.279 154.605 239.244 155.122C234.584 159.782 228.888 163.924 226.3 170.655C226.3 171.173 225.264 171.691 224.746 171.173C224.229 170.655 224.229 170.138 224.229 169.62C225.264 167.549 225.782 165.478 227.335 163.924C230.96 160.3 234.584 156.676 238.726 153.051C239.244 152.533 239.761 152.534 240.279 152.534C241.315 152.016 241.315 152.533 240.797 153.569Z" fill="#D8AF49"/>
<path d="M255.294 171.173C260.472 169.62 265.132 165.995 269.792 163.407C271.863 162.371 274.452 160.818 276.523 159.782C277.041 159.782 277.558 159.782 277.558 159.782C278.076 159.782 278.076 160.3 277.558 160.818C270.31 164.442 264.096 170.655 255.812 172.209C255.812 172.209 255.812 171.691 255.294 171.173Z" fill="#D8AF49"/>
<path d="M263.061 160.817C262.026 160.817 261.508 160.817 261.508 160.299C261.508 159.782 262.026 159.781 262.543 159.264C267.721 157.71 272.899 156.157 278.076 154.086C278.594 154.086 279.112 154.086 279.112 154.604C279.63 155.121 279.112 155.639 278.594 155.639C272.899 158.746 267.721 159.781 263.061 160.817Z" fill="#D8AF49"/>
<path d="M248.046 185.152C245.457 191.365 241.315 196.025 236.655 200.685C238.208 193.954 242.868 189.294 248.046 185.152Z" fill="#D8AF49"/>
<path d="M247.528 138.553C245.974 141.66 244.939 144.766 242.35 147.355C241.832 147.873 241.314 147.873 240.797 147.355C240.279 146.838 240.279 146.32 240.797 145.802C242.35 143.213 243.903 140.624 245.974 138.035C246.492 137.517 247.01 137 247.528 137.518C247.528 137.518 247.528 138.035 247.528 138.553Z" fill="#D8AF49"/>
<path d="M250.634 133.376C251.152 133.376 251.67 132.341 251.67 131.823C252.706 132.341 254.259 129.234 253.741 131.823C253.223 135.447 251.152 138.554 249.599 142.178C249.599 142.696 249.081 143.214 248.046 142.696C247.528 142.178 247.528 141.661 248.046 141.143C249.081 138.036 249.599 135.965 250.634 133.376Z" fill="#D8AF49"/>
<path d="M254.259 177.386C253.223 181.01 251.152 183.599 248.045 185.152C248.563 181.528 251.152 179.457 254.259 177.386Z" fill="#D8AF49"/>
<path d="M256.848 177.903C255.812 177.903 255.294 177.903 254.259 177.903C254.259 176.35 255.294 175.832 256.33 175.832C256.848 175.832 256.848 176.868 256.848 177.903Z" fill="#D8AF49"/>
<path d="M258.401 191.884C255.812 194.99 253.741 198.615 251.152 201.721C250.634 202.239 250.117 202.757 249.599 202.757C248.563 202.239 249.081 201.204 249.599 200.686C251.67 197.061 254.259 193.955 257.365 190.848C258.401 191.366 258.401 191.366 258.401 191.884Z" fill="#D8AF49"/>
<path d="M250.117 192.402C251.67 189.813 253.741 186.706 255.294 184.118C255.812 183.082 256.33 182.046 257.365 183.082C258.401 183.6 257.883 185.153 256.848 185.671C253.741 187.742 252.706 190.849 250.117 192.92C250.634 192.92 250.117 192.92 250.117 192.402Z" fill="#D8AF49"/>
<path d="M259.437 196.543C260.472 192.918 263.061 190.847 265.65 188.776C264.614 192.401 262.025 194.472 259.437 196.543Z" fill="#D8AF49"/>
<path d="M263.579 185.67C263.061 187.741 260.99 189.294 259.437 190.848C258.919 190.848 258.401 190.848 258.919 190.33C259.437 188.259 260.99 186.706 262.543 185.152C263.579 184.635 263.579 184.635 263.579 185.67Z" fill="#D8AF49"/>
<path d="M266.685 181.528C266.167 183.081 264.614 184.635 263.061 185.67C262.543 185.67 262.543 185.153 262.025 185.153C262.543 181.528 265.132 182.046 266.685 181.528Z" fill="#D8AF49"/>
<path d="M260.472 184.635C260.472 184.635 259.954 185.153 260.472 184.635C259.954 185.153 259.954 184.635 259.437 184.635C259.437 184.635 259.954 184.117 260.472 184.635C259.954 184.117 260.472 184.635 260.472 184.635Z" fill="#D8AF49"/>
<path d="M259.437 190.849C259.437 191.366 258.919 191.884 258.401 192.402L257.883 191.884C258.401 191.366 258.919 190.849 259.437 190.849C259.437 190.331 259.437 190.331 259.437 190.849Z" fill="#D8AF49"/>
<path d="M264.614 200.685C264.614 201.721 264.097 202.238 263.061 202.238C263.061 201.203 263.579 200.685 264.614 200.685Z" fill="#D8AF49"/>
<path d="M263.061 212.076C263.061 209.487 264.614 207.934 267.203 206.898C266.685 209.487 265.132 211.04 263.061 212.076Z" fill="#D8AF49"/>
<path d="M246.492 230.199C246.492 229.163 247.01 228.645 248.045 228.645C248.045 229.681 247.528 230.199 246.492 230.199Z" fill="#D8AF49"/>
<path d="M137.761 240.554C137.761 239.519 138.797 239.519 139.315 239.001C139.315 239.519 138.797 240.037 137.761 240.554Z" fill="#D8AF49"/>
<path d="M140.35 237.447C140.868 237.447 141.386 237.447 141.903 237.447C141.386 238.483 140.868 239 140.35 237.447Z" fill="#D8AF49"/>
</g>
</svg>
