<svg width="12" height="7" viewBox="0 0 12 7" fill="none" xmlns="http://www.w3.org/2000/svg">
<path fill-rule="evenodd" clip-rule="evenodd" d="M11.25 1.47468V1.52587L11.245 1.59144C11.2438 1.60148 11.2421 1.61275 11.2395 1.62773C11.2221 1.72876 11.1838 1.82592 11.1275 1.91165C11.0991 1.955 11.066 1.99284 11.0307 2.03064L6.53055 6.53084C6.49729 6.56189 6.48971 6.57055 6.45338 6.59812C6.41257 6.62905 6.36858 6.65579 6.32231 6.67781C6.12014 6.77396 5.88024 6.77396 5.67807 6.67781C5.63179 6.65579 5.5878 6.62905 5.547 6.59812L5.49656 6.55596L0.969666 2.03064L0.925164 1.98222C0.918647 1.97448 0.911563 1.96557 0.902388 1.95347C0.830047 1.85814 0.78122 1.74563 0.760857 1.62773C0.746381 1.54354 0.746381 1.45702 0.760857 1.37283C0.772482 1.30551 0.793333 1.23985 0.822659 1.17816C0.934077 0.943848 1.1652 0.780716 1.42329 0.754165C1.52529 0.743702 1.62917 0.75439 1.7269 0.785404C1.80831 0.811242 1.88515 0.851031 1.95318 0.902634L2.00364 0.944794L6.00021 4.93976L9.97005 0.969912L10.0075 0.93496L10.0588 0.893878C10.067 0.887904 10.0763 0.881445 10.089 0.87312C10.1604 0.82628 10.2398 0.791779 10.3228 0.771566C10.3892 0.755402 10.4577 0.748352 10.526 0.750677C10.7853 0.759527 11.027 0.906534 11.1542 1.13267C11.196 1.20711 11.225 1.28868 11.2395 1.37283C11.2472 1.41776 11.2469 1.42931 11.25 1.47468Z" fill="#25282B"/>
</svg>
