<svg width="16" height="20" viewBox="0 0 16 20" fill="none" xmlns="http://www.w3.org/2000/svg">
<path d="M8 0C3.58878 0 0 3.43457 0 7.65625C0 9.00758 0.373061 10.3361 1.07882 11.4982C1.24335 11.7692 1.42727 12.0332 1.62555 12.283L7.65241 20H8.34755L14.3744 12.283C14.5727 12.0332 14.7566 11.7692 14.9212 11.4983C15.6269 10.3361 16 9.00758 16 7.65625C16 3.43457 12.4112 0 8 0ZM8 10.1953C6.5371 10.1953 5.34694 9.05629 5.34694 7.65625C5.34694 6.25621 6.5371 5.11719 8 5.11719C9.4629 5.11719 10.6531 6.25621 10.6531 7.65625C10.6531 9.05629 9.4629 10.1953 8 10.1953Z" fill="white"/>
</svg>
