<svg width="175" height="575" viewBox="0 0 175 575" fill="none" xmlns="http://www.w3.org/2000/svg">
<g opacity="0.07">
<path d="M74.8846 396.567C70.8949 394.857 70.8949 390.867 69.1851 387.448C66.9052 384.028 64.6254 382.318 60.6357 384.028C68.0451 377.758 64.6254 369.779 63.4855 362.37C63.4855 361.8 63.4854 360.66 62.3455 360.66C61.7756 360.66 60.6357 361.8 60.6357 362.37C60.6357 366.929 62.3454 372.059 60.0656 374.908C58.3557 377.188 53.7962 377.758 50.9464 381.178C44.1069 389.727 38.4072 398.277 34.4175 408.536C33.8476 410.246 33.2777 412.526 30.9979 411.956C29.2881 411.386 30.428 409.106 30.9979 407.396C36.6975 395.427 42.9669 384.598 52.6562 375.478C55.506 373.199 57.2159 370.349 56.646 366.359C56.076 362.939 56.646 360.66 52.0864 363.509C48.6666 365.219 49.8065 361.23 49.2366 359.52C48.6666 358.38 48.6667 356.67 47.5268 357.24C46.3869 357.24 45.8167 358.95 46.9566 360.09C49.2365 362.369 46.9567 363.509 45.2468 364.649C36.1275 372.629 28.1481 381.748 22.4486 392.577C21.8786 393.717 21.3085 394.857 20.1686 394.287C17.8888 393.147 20.1686 391.437 20.1686 390.867C23.0184 385.168 26.4384 380.038 30.4281 374.908C31.568 373.199 33.2777 372.059 33.8477 370.349C34.9876 367.499 36.1275 363.509 33.8477 361.8C32.7078 360.66 29.858 364.649 28.1481 366.359C21.8786 372.059 15.6092 378.328 13.3294 387.448C13.3294 388.587 12.7593 390.297 11.0495 389.727C8.76962 389.157 10.4796 387.447 10.4796 386.308C12.1895 380.608 15.609 375.479 20.1686 370.919C21.8785 369.209 24.1584 368.069 24.1584 365.789C24.7283 363.509 25.2984 359.52 23.5886 358.38C21.8787 357.24 20.7388 361.23 19.029 362.37C13.8994 366.929 10.4796 372.059 7.62985 378.328C7.0599 378.898 6.4898 380.038 5.34989 379.468C4.20998 378.898 4.77993 377.758 5.34989 377.188C7.05976 372.629 10.4796 368.639 13.3294 365.219C15.0393 362.939 16.179 360.09 15.609 357.24C15.0391 355.53 13.8992 356.1 12.7592 356.67C12.1893 356.67 11.6193 356.67 11.6193 355.53C13.3291 349.83 9.90947 351.54 7.05968 352.68C2.50004 354.39 0.790169 359.52 -1.48965 362.939C-2.62957 364.649 -2.62964 369.209 -5.47942 368.069C-7.18929 367.499 -4.33936 363.509 -3.19946 361.23C-2.05954 358.95 -0.349739 356.67 1.36012 353.82C1.93008 353.25 3.64002 352.11 2.50011 350.97C1.93015 350.4 0.220421 350.4 -0.919487 350.97C-4.33923 353.25 -6.04938 356.67 -8.3292 360.09C-9.46911 361.229 -10.0389 364.079 -11.7488 363.509C-14.0286 362.369 -11.179 360.66 -11.179 359.52C-10.609 356.1 -4.90939 353.82 -7.18922 350.4C-8.32913 348.121 -13.4588 348.691 -16.8785 348.121C-28.2777 345.841 -39.1068 342.991 -49.9359 337.861C-52.7857 336.721 -56.2053 336.151 -59.0551 336.151C-60.195 336.151 -62.4749 337.291 -63.0448 336.151C-63.6148 333.872 -60.765 335.011 -60.1951 334.442C-57.9152 332.732 -60.7651 332.732 -61.3351 332.732C-71.0243 331.592 -80.7134 328.172 -90.4027 331.022C-93.2525 331.592 -94.9625 332.732 -95.5324 335.582C-97.2423 341.851 -99.522 347.551 -101.802 353.82C-102.372 354.96 -102.372 357.81 -104.652 357.24C-106.361 356.67 -104.652 354.96 -104.652 353.25C-102.372 346.981 -100.662 340.711 -98.3822 334.442C-97.8122 333.302 -97.2422 332.162 -98.952 331.592C-100.092 331.022 -101.232 332.162 -101.802 332.732C-105.222 339.571 -108.071 346.411 -109.211 353.82C-109.211 354.96 -109.211 357.24 -110.921 357.24C-113.771 356.67 -112.061 354.39 -112.061 353.25C-111.491 346.981 -108.641 341.281 -105.792 335.582C-105.222 333.872 -104.082 332.732 -104.082 331.022C-104.082 328.172 -104.082 328.172 -100.662 328.742C-94.9623 329.882 -89.2627 330.452 -83.5631 329.312C-72.164 327.032 -60.7649 331.022 -49.3658 332.732C-29.9873 335.582 -11.1788 341.851 8.19967 342.421C32.1378 342.421 55.506 338.431 78.3042 331.592C82.2939 330.452 85.1438 330.452 89.1335 330.452C99.9627 330.452 107.942 328.172 114.782 317.343C130.17 292.835 137.01 267.187 134.16 238.689C133.59 234.699 133.02 230.14 134.16 225.58C136.44 216.461 132.45 209.051 126.181 203.352C121.051 198.792 115.352 195.942 109.082 193.662C94.8331 188.533 80.5842 183.973 67.4753 177.134C63.4856 175.424 62.3456 176.564 60.6357 179.414C52.0864 194.802 42.9671 209.621 33.2779 224.44C30.4281 228.43 32.138 230.14 36.1277 231.28C31.568 231.28 27.0081 235.839 21.3086 231.849C18.4588 230.14 13.8992 229 9.90947 228.43C5.34982 227.86 0.790306 227.29 -2.05947 231.849C-2.62943 232.989 -3.76955 234.129 -5.47942 232.989C-5.47942 232.989 -4.33923 231.28 -3.76927 230.14C10.4796 214.181 21.8785 196.512 34.4175 179.414C40.687 171.434 45.8166 162.315 48.6664 153.196C53.2261 139.517 48.6666 120.708 32.1379 113.299C29.2881 112.159 26.4384 111.019 24.7285 108.169C23.5886 105.889 20.1686 104.749 17.3188 104.749C7.62958 103.039 -2.05954 101.899 -11.7488 104.749C-12.8887 104.749 -14.0286 105.319 -14.5986 104.179C-14.0286 103.609 -12.8886 103.609 -12.3186 103.039C-2.62936 100.19 7.05976 100.76 16.749 102.469C26.4383 104.179 26.4382 104.179 29.8579 95.0599C34.9875 80.811 43.5368 68.2721 51.5162 55.1631C57.7857 43.7639 62.9155 31.7948 70.8949 21.5356C74.3146 16.976 76.5946 12.4164 81.7242 9.56657C83.434 11.8464 85.1438 9.56654 86.2837 8.99658C91.9833 11.8464 87.9936 15.2662 86.2837 16.976C76.0245 27.8052 70.8947 42.0541 62.9153 54.0232C61.7754 55.1631 64.0553 54.0232 64.0553 54.0232C66.9051 54.0232 68.615 55.163 69.7549 57.4429C70.8948 59.7227 70.3248 62.0025 68.6149 63.7124C65.7651 65.9922 65.1951 68.842 62.9153 71.1219C62.3454 71.6918 61.7757 72.2617 61.7757 73.4016C61.2057 73.9716 61.2057 74.5416 60.6357 75.1115C60.6357 74.5416 61.2057 73.9716 61.7757 73.4016C62.3456 72.8317 62.9153 71.6918 62.9153 71.1219C70.8947 62.5725 76.5945 52.8832 83.434 43.7639C85.1438 41.4841 87.9937 40.9142 87.4237 36.9245C86.8538 34.0747 89.1334 31.2249 92.5531 29.515C94.263 28.3751 90.2735 25.5253 93.1233 23.2455C95.4031 21.5356 97.1129 19.2558 100.533 20.3957L101.102 19.8258C99.3926 16.976 100.533 15.2661 103.382 14.6961C104.522 15.2661 103.382 14.1262 103.952 14.6961C103.952 14.1262 103.382 14.1262 103.382 14.1262C103.952 6.14685 99.9628 5.00692 93.1233 6.71679C90.2735 7.28675 87.4236 6.71676 85.1438 8.99658C84.0038 9.56654 82.8641 10.1365 81.7242 8.99658C87.9937 0.44724 97.113 -2.40252 107.372 2.15713C116.491 6.14682 121.621 15.2661 119.911 24.3854C119.341 30.0849 115.351 34.0746 112.502 38.6343C95.9729 63.7124 78.3044 87.6506 57.7859 108.739C54.3662 112.159 53.2262 114.438 56.646 118.998C60.0657 122.988 62.3455 127.547 65.1953 132.107C72.0348 143.506 72.6049 154.905 67.4753 166.874C65.1954 172.004 66.3352 174.284 70.8949 175.994C81.1541 181.123 91.9831 185.113 102.812 188.533C112.502 191.953 122.191 194.802 129.6 201.642C135.3 206.771 138.72 213.041 138.72 220.45C138.72 231.279 139.859 242.109 140.999 252.938C141.569 263.767 139.859 274.026 135.3 283.715C130.74 292.835 128.46 302.524 123.901 311.643C122.191 315.063 121.621 320.763 122.761 324.752C128.46 349.26 125.041 372.629 118.201 395.997C110.792 419.365 114.781 441.593 122.761 463.252C128.46 478.64 134.16 494.029 139.29 509.418C142.709 519.677 149.549 526.517 159.808 531.076C166.077 533.926 169.497 538.486 171.207 545.325C171.777 547.605 168.927 551.595 174.057 552.165C174.627 552.165 174.627 552.735 174.627 553.305C174.057 553.875 172.917 554.445 172.347 554.445C162.088 557.294 151.259 559.004 140.999 558.434C135.87 557.864 130.17 560.144 126.181 559.004C115.921 555.015 107.372 557.864 98.8228 562.994C98.2529 563.564 97.1128 563.564 96.5429 564.134C95.403 564.704 94.8331 564.134 94.8331 563.564C94.8331 562.994 95.4029 562.424 95.4029 561.854L95.9731 561.284C106.232 559.004 111.362 549.885 118.771 543.616C119.911 548.175 121.621 550.455 127.321 551.025C136.44 552.165 144.989 552.165 154.108 552.165C156.958 552.165 160.378 552.165 162.088 549.315C163.798 545.895 160.948 543.046 158.668 540.766C155.249 536.776 150.689 535.066 146.699 532.786C143.849 531.646 142.139 532.216 139.859 534.496C137.01 538.486 134.73 542.476 131.31 546.465C129.6 548.745 127.321 550.455 124.471 548.745C122.191 547.035 123.331 544.755 124.471 542.476C125.041 541.906 125.611 540.766 126.181 540.196C125.611 540.766 125.041 541.336 124.471 541.906C122.761 543.046 121.051 544.185 118.771 543.046C119.341 539.626 122.191 537.916 123.901 535.636C125.611 533.356 126.75 530.507 122.761 529.367C121.051 527.657 121.621 525.947 123.331 524.237C125.611 522.527 122.761 523.097 122.191 522.527C121.051 520.817 120.481 518.537 118.201 517.967C117.631 517.398 117.061 517.398 117.061 516.258C117.061 515.688 117.631 515.118 117.631 514.548C118.771 512.268 120.481 509.418 118.771 507.708C118.201 507.138 116.491 511.128 114.782 512.268C114.212 512.838 113.641 515.118 112.502 514.548C110.792 513.408 112.502 512.268 113.072 511.128C114.782 505.998 116.491 501.439 115.922 496.309C109.652 503.149 109.652 513.978 102.812 520.817C102.242 521.387 102.812 523.097 103.952 523.667L104.522 524.237C102.813 527.087 100.532 528.797 97.1127 529.367C97.1127 528.797 96.5429 528.797 96.5429 528.227C94.833 518.537 97.6829 509.418 97.6829 500.299C97.6829 499.159 97.6827 498.589 98.2527 498.019C98.2527 498.589 97.6829 498.589 97.6829 499.159C96.543 507.138 97.6827 515.118 95.4029 522.527C94.263 527.087 90.2734 527.657 86.2837 526.517C80.5842 526.517 74.8846 528.797 69.1851 526.517C73.7447 523.097 73.1748 517.968 73.1748 512.838C73.1748 506.568 72.0346 500.869 71.4647 494.599C71.4647 493.459 70.8949 491.749 72.0348 491.749C73.7447 491.18 74.3145 493.459 74.3145 494.599C74.8844 500.299 75.4546 505.998 76.0246 511.698C76.0246 513.408 74.8844 516.828 77.1642 516.828C80.014 517.397 81.7242 514.548 81.7242 511.698C82.2941 504.289 82.8638 496.879 80.014 489.47C78.8741 486.62 77.7343 484.34 79.4442 481.49C80.5841 478.641 80.5841 476.361 76.5944 479.78C74.3146 481.49 74.3147 479.78 74.8846 478.641C76.5945 475.791 78.3041 472.371 80.014 469.521C81.1539 468.381 81.1541 465.531 83.434 466.101C86.2837 466.671 82.864 468.951 83.434 470.091C85.7138 472.371 88.5634 475.791 91.4131 475.221C94.8329 474.651 96.543 470.661 94.8331 466.671C94.2631 465.532 93.6932 463.822 93.1233 462.682C92.5533 461.542 90.2733 459.832 92.5531 458.692C94.263 458.122 94.8329 459.832 95.4029 460.972C95.9729 462.112 96.5428 463.822 98.2527 463.252C98.8226 462.682 99.9625 460.972 99.9625 460.402C98.8226 454.702 98.8228 449.003 100.533 443.303C101.103 441.593 99.3926 441.023 98.2527 439.883C97.6827 441.023 96.543 441.593 95.9731 442.733C94.8332 445.583 94.2631 449.003 93.6931 451.853C93.1231 452.992 93.693 455.272 91.4131 454.702C89.7033 454.132 90.2734 452.422 90.8433 451.283C90.8433 450.143 91.4134 449.003 90.2735 448.433C89.7036 448.433 89.1335 449.003 87.9935 449.573C86.2837 450.713 85.7136 454.702 84.0038 452.993C82.2939 451.853 81.1542 447.293 81.7242 445.583C84.004 438.174 79.4443 431.904 80.5842 425.065C80.5842 423.355 79.4443 422.215 77.7344 422.215C75.4546 422.215 75.4544 423.925 75.4544 425.635C74.8845 429.054 76.5943 435.324 74.3145 434.754C70.3248 434.184 73.1747 428.484 72.0348 425.065C70.8949 419.935 70.3248 414.805 68.6149 409.676C68.0449 407.966 65.7651 403.976 68.6149 403.406C71.4647 402.836 71.4649 406.826 72.0348 409.106C72.6048 411.386 73.1747 413.666 73.7446 415.945C74.3146 417.085 73.7446 419.365 75.4544 419.365C77.7343 419.365 78.3044 417.085 77.7344 415.375C77.1644 413.096 76.0244 410.246 75.4544 407.966C76.0244 403.406 73.1747 400.557 74.8846 396.567C80.0142 392.007 76.5944 388.587 73.7446 384.598C73.1747 384.028 72.6048 383.458 72.0348 382.888C72.6048 383.458 73.1747 384.028 73.7446 384.598C76.5944 388.587 78.3044 392.577 74.8846 396.567Z" fill="#D8AF49"/>
<path d="M-6.61906 112.158C-4.90919 108.739 -2.05962 108.169 1.36012 108.739C15.609 112.158 28.7182 117.858 38.9774 128.687C46.3869 136.667 46.9566 144.646 44.1068 153.765C41.827 160.605 37.8375 166.874 33.2779 172.574C24.1586 183.973 17.319 196.512 9.33964 208.481C5.91991 213.611 1.93007 218.17 -1.48966 222.73C-2.05962 223.3 -3.19953 224.44 -4.33945 223.87C-6.04932 222.73 -5.47922 221.59 -4.90926 220.45C-2.62944 215.89 -0.349823 211.901 3.06992 207.911C7.05961 203.351 10.4795 198.792 13.8992 193.662C17.8889 187.963 11.6195 176.563 4.78006 176.563C-3.76928 176.563 -12.3186 176.563 -20.868 175.993C-24.8577 175.993 -29.9875 176.563 -33.9772 174.284C-36.827 172.574 -40.2465 173.144 -41.9564 174.284C-45.9461 177.133 -49.936 177.703 -53.9257 179.413C-59.0553 181.123 -63.0448 183.973 -67.6044 186.823C-72.1641 190.242 -77.2938 191.382 -82.9933 190.242C-83.5633 190.242 -84.1332 189.103 -84.7031 188.533C-84.1332 188.533 -83.5634 187.963 -82.4235 187.963C-79.5737 187.963 -77.8637 187.963 -76.1538 184.543C-68.1744 168.584 -55.6356 155.475 -45.3764 140.656C-41.3867 134.957 -36.2568 130.397 -32.2671 124.697C-27.7074 118.428 -20.2983 115.578 -14.0288 111.019C-12.3189 109.309 -9.46884 112.158 -6.61906 112.158C-6.61906 118.428 -3.1996 122.988 3.06992 124.127C21.3085 128.117 24.1585 142.936 26.4383 157.755C26.4383 159.465 26.4382 160.605 27.0081 162.315C27.0081 161.175 27.0081 160.035 27.0081 158.895C25.8682 154.335 24.7283 149.206 24.1584 144.646C23.0184 132.107 13.8992 128.117 4.2099 124.697C-2.05962 122.418 -6.0491 118.998 -6.61906 112.158Z" fill="#D8AF49"/>
<path d="M80.014 197.082C80.014 196.513 80.5841 194.803 81.154 194.803C82.2939 194.233 101.672 201.072 102.812 201.642C108.512 206.202 111.362 211.331 108.512 219.311C106.802 224.44 107.942 230.14 106.802 235.839C103.952 251.228 97.1127 264.907 88.5634 278.586C83.4338 287.135 78.8743 295.115 66.3353 295.115C62.3456 295.115 59.4957 292.835 55.506 292.835C53.7961 289.985 53.7963 289.985 56.0762 288.845C60.0658 287.135 64.6254 287.705 68.0451 285.995V285.426L67.4753 284.856C66.9053 284.856 66.3351 284.856 65.7651 284.286C65.1952 284.286 64.6254 283.716 63.4855 283.716C62.9156 283.146 62.3457 282.576 61.7757 282.006C60.6358 279.726 58.9259 278.016 57.7859 275.736C57.216 275.736 56.6461 275.166 56.0762 275.166C52.6564 280.296 48.6666 283.716 42.3971 282.006C40.1172 281.436 40.1173 279.726 40.6873 278.016C43.537 272.887 45.2469 267.187 49.2366 262.627L49.8064 263.197C49.2365 264.907 49.2364 266.617 48.6664 268.327C48.6664 268.897 47.5265 270.037 48.6664 270.607C48.6664 270.607 49.8066 270.037 50.3766 269.467C53.2264 267.187 55.5061 264.907 57.7859 262.627C62.9156 258.068 63.4854 258.068 66.9051 264.337C68.615 267.187 70.3248 270.037 71.4647 272.317C72.0346 273.456 73.1746 273.457 74.3145 273.457C76.0243 272.887 74.8846 271.747 74.8846 270.607C72.6048 265.477 70.3248 259.778 66.9051 255.788C65.1952 253.508 64.0553 252.368 66.9051 250.088C69.7549 247.809 69.185 244.389 70.8949 241.539C72.0348 238.689 73.1746 236.409 71.4647 233.56C70.3248 235.839 66.9052 236.979 65.1953 238.689C63.4854 240.969 62.3455 243.819 61.2055 246.099C60.6356 247.238 60.0658 248.379 58.9259 248.379C57.786 247.809 58.356 246.669 58.9259 245.529C61.2058 241.539 61.7755 236.409 66.9051 234.13C68.045 233.56 69.1851 230.71 67.4753 229.57C66.9053 229 66.3352 231.28 65.1953 232.42C64.6254 232.99 64.0555 233.56 63.4855 232.99C62.9156 232.99 62.9156 231.85 63.4855 231.28C63.4855 230.71 64.0553 230.14 64.0553 229.57C64.6253 226.72 67.475 225.01 65.7651 221.591C63.4853 223.3 62.9156 225.58 61.7757 227.86C60.6358 229.57 60.6357 231.28 59.4957 232.42C58.9258 232.99 57.7857 233.56 57.2158 232.99C56.0759 232.42 56.646 231.28 56.646 230.71C59.4957 225.58 62.3455 221.021 65.1953 215.321C67.4751 210.761 69.185 217.031 70.8949 215.321C72.0348 218.741 73.7445 219.881 77.1642 217.601C77.7342 217.601 78.8743 222.73 80.5842 218.741C81.7241 215.891 81.1542 211.901 77.7344 209.621C73.7447 207.342 69.1851 205.062 64.6255 203.352C61.7757 202.212 59.4956 199.932 57.2158 197.082C56.0759 195.373 56.0759 193.093 57.2158 191.383C58.3557 189.103 61.2056 189.103 62.3455 190.813C64.6254 193.663 66.3352 190.813 68.0451 190.243C70.8949 189.103 72.0349 188.533 73.1748 191.953C74.3147 194.233 78.8741 194.803 80.014 197.082Z" fill="#D8AF49"/>
<path d="M118.772 267.757C117.632 268.897 117.632 270.037 118.202 271.177C119.911 276.307 121.621 280.866 123.331 285.996C123.901 287.136 124.471 288.845 122.191 289.415C120.482 289.415 121.052 287.706 120.482 287.136C118.772 283.716 119.342 279.726 115.922 276.877C113.642 281.436 117.632 284.286 118.202 288.276C118.772 291.125 121.621 294.545 118.202 295.685C115.922 296.255 115.352 292.265 114.782 289.985C114.782 289.415 114.212 288.276 113.642 287.706C113.072 287.136 112.502 286.566 111.932 285.996C111.932 286.566 111.362 287.706 111.362 288.276C112.502 292.265 114.782 295.685 115.352 299.675C115.352 301.955 117.632 304.234 114.212 305.374C110.792 306.514 109.652 304.234 109.082 300.815C109.082 299.675 109.083 297.395 107.373 297.965C106.233 298.535 107.373 300.245 107.373 301.955C107.943 306.514 108.513 310.504 109.082 314.493C109.082 315.063 109.082 316.203 107.942 316.203C107.373 316.203 106.233 315.633 106.233 315.063C105.093 312.214 106.232 308.224 102.813 305.374C101.103 309.364 103.953 312.214 103.953 316.203C103.953 317.343 104.523 319.053 104.523 320.193C104.523 321.333 103.383 322.473 102.243 320.763C100.533 319.053 100.533 314.494 96.5434 317.913C95.9734 318.483 94.2635 314.494 93.6936 312.214C92.5537 308.794 92.5536 304.234 86.854 307.654C85.1442 308.794 85.1441 307.084 85.714 305.944C86.854 304.804 89.134 304.234 86.2842 302.525C84.5743 301.385 85.1444 299.675 87.4242 300.815C93.1238 303.664 94.8333 299.105 97.1132 295.685C106.232 282.006 110.222 266.047 114.212 250.089C116.492 240.399 118.202 230.14 120.482 220.451C122.191 214.751 118.772 211.902 115.922 208.482C114.782 207.342 113.642 206.202 115.352 205.062C116.492 204.492 117.062 205.632 118.202 206.772C120.481 209.622 122.761 211.901 124.471 214.751C125.041 215.891 126.751 217.031 125.611 218.741C121.621 223.301 122.192 227.86 124.471 233.56C125.611 237.55 125.041 243.249 127.321 247.239C131.311 254.078 126.751 260.918 127.321 267.757C127.321 268.327 126.751 268.327 126.181 268.897C125.041 269.467 124.471 268.327 124.471 267.757C123.331 265.477 122.761 262.627 121.622 260.348C121.622 259.778 120.481 259.208 119.911 258.638C119.911 259.208 119.342 260.348 119.342 260.918C121.051 265.477 123.331 270.037 124.471 274.597C125.041 276.876 127.891 280.296 125.041 281.436C121.621 282.576 122.192 278.016 121.622 275.737C120.482 274.027 120.481 271.747 119.911 270.037C119.911 268.897 119.342 268.327 118.772 267.757Z" fill="#D8AF49"/>
<path d="M68.6145 524.806C73.1742 525.376 74.3141 521.387 77.1639 519.677C77.7338 519.107 79.4437 517.967 80.0136 519.677C80.5836 521.387 78.304 522.526 78.874 523.666C79.444 526.516 80.5837 523.666 81.1536 523.096C82.2935 522.526 83.4337 521.387 84.5736 520.817C85.1435 520.817 86.2832 521.387 86.8532 521.957C87.4231 529.936 80.0139 531.646 76.0242 535.636C72.6045 538.485 69.1846 542.475 62.3451 539.625C60.0653 538.485 54.3658 544.755 49.2362 544.755C49.8062 544.755 50.9459 544.755 51.5158 544.755C64.0549 546.465 73.7443 540.195 83.4336 534.496C87.4233 532.216 90.2731 527.086 95.9727 529.936C95.9727 530.506 95.9725 531.646 95.4025 532.216C85.1433 542.475 72.0343 548.175 58.3554 552.164C52.6558 553.874 46.3862 556.724 40.1167 556.154L39.5469 555.584C38.9769 555.014 37.8371 554.444 37.8371 553.874C37.2671 551.024 41.8266 553.874 41.2567 551.024C41.2567 550.454 37.267 551.024 35.5571 549.884C33.2773 547.605 33.8473 545.325 36.6971 544.185C40.1168 542.475 43.5365 541.335 46.9562 540.195C48.0962 539.625 49.806 539.055 49.806 537.345C48.6661 537.345 47.5263 537.345 46.3864 536.775C45.2465 536.775 43.5366 536.775 43.5366 535.636C43.5366 534.496 45.2465 534.496 46.3864 534.496C65.7649 529.366 60.0652 532.786 62.9149 514.547C64.0549 508.848 62.915 503.718 61.2051 498.588C60.6352 497.448 60.0652 496.309 61.2051 495.739C62.915 495.169 64.0549 496.309 64.0549 498.018C66.9047 505.428 67.4746 512.837 65.7647 520.817C66.9046 521.387 65.1948 523.666 68.6145 524.806Z" fill="#D8AF49"/>
<path d="M68.0451 282.005C69.185 280.865 70.8948 278.586 72.6047 279.726C74.3145 280.865 75.4545 282.575 73.7447 284.855C72.6047 286.565 74.3147 289.415 70.3251 289.415C65.7654 289.415 60.6358 290.555 56.0761 291.125L55.506 291.694V292.264C42.9669 294.544 30.428 296.254 17.889 294.544L17.3188 293.974C23.0184 291.125 29.2881 292.834 34.9877 292.264C37.2675 292.264 38.9774 292.264 37.8375 288.845C37.2675 286.565 42.9669 287.705 44.1069 283.715C44.6768 282.575 44.107 282.575 43.537 282.005C44.107 281.435 44.677 280.295 44.677 280.295C50.3766 281.435 52.6563 278.586 53.7962 273.456C54.3661 271.746 54.9362 268.896 57.7859 269.466C58.9259 269.466 58.9259 271.176 58.9259 272.316C62.9156 274.596 64.6253 278.016 64.0553 282.575C65.7652 282.005 66.9052 282.005 68.0451 282.005Z" fill="#D8AF49"/>
<path d="M122.76 521.387C125.61 521.387 127.32 516.258 127.89 517.398C129.6 520.247 127.32 523.097 125.04 524.807C123.9 525.947 123.331 527.087 123.331 528.227C122.191 528.797 121.621 529.937 121.621 531.077C116.491 539.056 109.081 544.756 102.812 551.595C99.9621 555.015 95.4027 550.455 91.9829 553.305C88.5632 556.155 84.5735 557.295 80.5838 559.005C79.4439 559.575 78.304 559.575 77.734 558.435C78.304 557.865 78.8739 557.295 79.4438 556.725C84.5734 553.305 90.8428 552.735 94.2626 547.036C88.563 547.605 84.0034 551.595 78.3039 553.305C77.1639 553.875 74.884 554.445 74.3141 553.305C73.7441 551.595 76.024 551.595 77.1639 551.025C85.7132 548.175 92.5528 543.616 99.3923 537.916C99.3923 537.346 99.3923 537.346 99.3923 536.776C99.9623 536.206 99.9623 535.636 100.532 535.066C101.102 534.496 101.672 533.926 102.242 533.926C107.372 530.507 112.501 527.657 116.491 523.097C118.201 521.957 120.481 520.818 122.76 521.387Z" fill="#D8AF49"/>
<path d="M33.2782 309.933C28.1486 312.783 29.8583 316.772 30.9982 320.762C31.5682 324.182 34.9878 329.311 32.708 329.881C28.1484 331.021 29.2883 324.752 28.1484 321.332C27.0085 319.052 26.4384 316.203 25.8685 313.923C25.2985 312.783 24.7285 311.073 23.0187 311.643C20.7389 312.213 21.879 313.923 21.879 315.063C23.019 319.052 24.1587 323.612 25.2986 327.602C25.2986 328.742 27.5786 331.021 24.7288 331.591C23.019 332.161 22.449 329.881 21.879 328.741C20.7391 325.322 19.0293 321.332 19.0293 317.912C18.4593 311.643 15.0394 311.073 9.90976 311.073C0.790459 311.073 -8.32863 310.503 -18.0179 309.933C-19.1578 309.933 -20.2979 309.933 -20.2979 308.793C-20.2979 308.793 -18.5878 308.223 -18.0179 308.223C-10.0385 308.223 -2.05918 308.223 6.49016 308.793C15.0395 309.933 24.1589 308.793 33.2782 309.933Z" fill="#D8AF49"/>
<path d="M17.8892 295.114C11.6197 298.533 4.78005 296.823 -1.48946 297.393C-21.4379 299.103 -41.9564 299.673 -61.3349 293.974C-64.1846 293.404 -68.7444 292.834 -68.1744 289.984C-67.0345 287.134 -63.0445 289.984 -60.7647 290.554C-45.3759 294.544 -29.9872 294.544 -14.5984 294.544C-3.76922 294.544 6.48985 292.834 17.319 293.974C17.319 294.544 17.8892 294.544 17.8892 295.114Z" fill="#D8AF49"/>
<path d="M25.8684 508.278C24.1585 507.139 25.2984 506.569 25.8684 505.429C34.9877 491.75 40.6874 476.361 45.2471 460.402C45.817 459.262 46.3871 456.982 47.527 457.552C49.2369 457.552 48.6667 459.832 48.6667 460.972C43.537 476.361 38.9776 492.32 29.2884 505.999C28.1484 506.569 27.5783 508.278 25.8684 508.278Z" fill="#D8AF49"/>
<path d="M18.4589 504.288C18.4589 503.149 17.8889 502.009 18.4589 501.439C25.8683 488.9 29.858 474.651 35.5576 460.972C36.1275 459.832 36.6976 459.262 37.8375 459.262C37.8375 459.262 38.9773 460.972 38.4073 461.542C32.7078 475.221 28.1483 489.47 20.7388 502.578C20.1689 503.148 19.0288 503.719 18.4589 504.288Z" fill="#D8AF49"/>
<path d="M40.1173 502.578C37.8375 502.578 38.4077 501.438 38.9777 500.298C39.5476 498.588 40.1174 496.309 41.2573 494.599C45.8169 484.909 49.8068 475.22 52.0866 464.391C52.6566 463.251 52.0866 460.401 54.9364 460.971C56.6462 461.541 55.5062 463.251 55.5062 464.961C53.2264 477.5 47.5269 488.899 42.3973 500.298C41.2574 501.438 40.1173 502.008 40.1173 502.578Z" fill="#D8AF49"/>
<path d="M27.0083 527.086C25.2984 538.485 19.5988 548.744 12.7594 557.864C12.1894 559.004 11.0495 559.574 9.90957 559.004C8.76966 557.864 9.90978 556.724 10.4797 556.154C16.7493 547.035 21.3088 537.345 23.5887 526.516C23.5887 525.376 23.5886 523.096 25.2985 523.666C27.5783 523.666 27.5782 525.376 27.0083 527.086Z" fill="#D8AF49"/>
<path d="M61.2057 384.598C61.7757 386.308 60.6357 387.448 60.0657 388.588C51.5164 397.707 46.387 409.106 40.6874 420.505C40.1175 422.215 39.5475 425.065 37.8376 424.495C36.1278 423.925 37.2677 421.645 37.8376 419.935C44.1072 406.826 49.2366 393.717 61.2057 384.598Z" fill="#D8AF49"/>
<path d="M26.4385 565.843C22.4488 565.273 19.0291 565.274 15.0394 564.704C14.4694 564.704 13.3296 564.134 13.3296 562.994C13.3296 561.854 14.4694 561.854 15.0394 561.854C31.5681 564.704 46.9569 560.144 62.3457 556.154H62.9155C64.0554 556.154 65.7653 555.584 65.7653 556.724C66.3352 557.864 64.6256 557.864 63.4857 558.434C51.5166 561.284 39.5475 565.273 26.4385 565.843Z" fill="#D8AF49"/>
<path d="M13.8993 531.077C11.6195 540.196 6.48998 548.746 0.790418 556.725C0.220462 557.295 -0.349633 559.005 -1.48955 557.295C-2.0595 556.725 -1.48934 555.585 -0.919381 555.015C1.36044 551.025 4.21016 546.466 6.48998 542.476C8.19985 538.486 10.4796 534.497 11.0496 529.367C11.0496 527.657 12.1896 525.947 13.3295 526.517C14.4694 527.087 14.4693 529.367 13.8993 531.077Z" fill="#D8AF49"/>
<path d="M50.3767 372.628C49.8067 373.198 49.8066 373.768 49.2367 374.908C44.1071 383.457 36.6976 390.866 30.998 398.846C30.428 399.416 29.2881 401.126 28.1482 399.416C27.5783 398.846 28.1481 397.706 28.718 397.136C34.9876 388.587 42.3971 381.177 48.0967 372.058C48.0967 371.488 49.2365 371.488 49.8065 371.488C49.8065 370.918 50.3767 372.058 50.3767 372.628Z" fill="#D8AF49"/>
<path d="M13.8991 495.169C12.1893 495.169 12.7591 493.459 12.7591 492.889C17.3188 484.34 19.5986 474.081 24.1583 464.962C24.7282 463.822 24.7284 462.682 26.4382 462.682C28.7181 463.252 27.0082 464.962 26.4382 466.101C23.5884 474.651 20.1686 482.63 16.7489 491.179C16.1789 492.319 15.609 494.029 13.8991 495.169Z" fill="#D8AF49"/>
<path d="M33.2778 309.933C44.107 306.514 55.5061 308.223 66.3352 305.944C66.9052 305.944 68.0449 305.944 68.6148 306.514C69.1848 307.654 68.045 308.224 66.905 308.224C55.5059 309.363 44.677 312.783 33.2778 309.933Z" fill="#D8AF49"/>
<path d="M57.7862 513.978C56.0763 517.968 60.066 522.528 54.9364 525.947C52.6566 521.958 53.7964 517.968 53.7964 513.978C53.7964 509.989 51.5168 505.429 56.0764 502.579C58.9262 505.999 56.6463 509.989 57.7862 513.978Z" fill="#D8AF49"/>
<path d="M99.3929 539.055C95.4032 539.625 96.543 537.915 98.2529 536.206C104.522 529.366 111.362 523.097 117.632 516.257C118.201 516.827 118.202 516.827 118.772 517.397C120.481 520.817 118.201 522.527 116.492 524.806C111.932 529.936 106.802 533.926 101.103 537.915C100.533 537.915 99.3929 538.485 99.3929 539.055Z" fill="#D8AF49"/>
<path d="M80.5845 459.262C80.0145 463.821 76.5946 466.671 74.3147 470.661C72.6049 473.51 71.4652 477.5 67.4755 479.21C66.3356 474.65 70.3253 472.37 72.0351 468.951C73.745 465.531 76.0248 462.111 77.7347 458.692C78.3046 458.122 78.8744 457.552 80.0143 458.122C80.5843 458.122 80.5845 458.692 80.5845 459.262Z" fill="#D8AF49"/>
<path d="M47.527 257.497C45.2472 263.766 42.9673 269.466 40.6875 275.166C40.1175 275.736 40.1176 276.876 38.9777 276.876C37.8378 276.876 37.8375 275.736 38.4075 275.166C40.6873 269.466 41.8273 263.196 45.247 257.497C45.817 256.927 46.3869 256.357 46.9568 255.787C46.9568 256.357 46.9571 256.927 47.527 257.497Z" fill="#D8AF49"/>
<path d="M14.4687 470.661C13.8987 476.361 11.0492 480.921 7.62951 485.48C7.05955 486.05 6.48932 486.62 5.91936 486.05C4.77945 485.48 5.3494 484.34 5.91936 483.77C8.19918 479.211 11.0491 475.221 11.0491 469.521C11.0491 468.382 11.6192 467.242 13.3291 467.242C14.469 467.812 14.4687 468.952 14.4687 470.661Z" fill="#D8AF49"/>
<path d="M64.0551 214.75C61.7753 220.449 58.9256 226.149 54.9359 231.279C54.366 231.849 53.2259 232.419 52.656 231.279C52.086 231.279 52.086 230.139 52.656 229.569C56.0757 224.439 58.3555 219.31 61.2053 213.61C61.7753 213.04 62.3454 212.47 63.4853 213.04C63.4853 213.04 63.4852 214.18 64.0551 214.75Z" fill="#D8AF49"/>
<path d="M36.6979 257.497C36.6979 261.487 34.988 265.477 33.8481 268.896C33.2781 270.036 32.1381 271.176 31.5681 270.606C29.8582 270.036 30.9982 268.326 31.5681 267.186C32.708 263.767 33.8479 260.917 34.4179 257.497C34.4179 255.787 34.418 253.508 36.6979 254.078C37.2678 253.508 36.6979 255.787 36.6979 257.497Z" fill="#D8AF49"/>
<path d="M21.3086 254.647C19.5988 258.637 20.7388 263.767 17.8891 267.757C13.3294 263.197 18.4588 258.637 17.3189 254.647V254.078C17.3189 252.368 17.319 250.088 19.5989 250.088C21.8787 250.088 20.7387 252.938 21.3086 254.647Z" fill="#D8AF49"/>
<path d="M14.4688 355.53C11.619 360.089 7.62933 364.649 5.91946 369.779C5.34951 370.918 4.77976 372.058 3.63985 371.488C1.36002 370.918 2.49973 369.209 3.06968 368.069C5.34951 362.369 7.62961 357.24 13.3292 353.82C13.8991 354.96 14.4688 355.53 14.4688 355.53Z" fill="#D8AF49"/>
<path d="M78.3042 319.052C79.4442 315.063 76.5944 308.223 79.4442 308.223C84.0039 308.223 80.584 315.063 82.8638 317.912C84.0037 319.052 84.5738 322.472 82.294 323.042C78.8743 324.182 80.5841 319.622 78.3042 319.052Z" fill="#D8AF49"/>
<path d="M49.806 498.019C48.6661 497.449 48.666 496.879 48.666 495.739C50.3759 490.609 52.0859 486.049 53.7958 480.92C53.7958 480.35 54.9358 479.21 56.0757 479.78C57.2156 479.78 57.7853 480.92 57.2154 481.49C55.5055 486.619 53.2257 491.749 51.5158 496.879C51.5158 498.018 50.376 498.019 49.806 498.019Z" fill="#D8AF49"/>
<path d="M62.3457 409.104C66.3354 411.384 70.325 423.353 66.9053 425.633C65.1954 426.773 64.6255 425.063 64.0555 423.353C64.0555 418.224 63.4856 413.664 62.3457 409.104Z" fill="#D8AF49"/>
<path d="M78.3047 318.483C77.7348 320.192 78.3048 322.472 76.5949 323.042C74.8851 323.612 74.315 321.332 74.315 320.192C73.1751 316.203 72.0354 308.793 73.1753 308.793C78.8749 309.363 74.885 316.203 78.3047 318.483Z" fill="#D8AF49"/>
<path d="M58.9261 323.042C59.496 324.182 58.926 325.892 57.7861 326.462C56.0762 327.602 55.5063 325.322 54.9363 324.182C53.7964 320.762 52.0866 317.343 53.2265 313.923C53.2265 313.353 54.3664 313.353 54.9363 313.353C58.926 315.633 56.6463 320.192 58.9261 323.042Z" fill="#D8AF49"/>
<path d="M62.9154 409.106C60.0656 406.826 59.4959 408.536 57.786 410.816C56.6461 412.526 54.9363 416.515 53.2264 415.375C51.5165 414.235 54.9363 411.386 56.0762 409.106C56.6462 407.966 57.216 406.826 57.786 406.256C58.9259 404.546 59.4958 401.126 62.3456 402.836C64.6254 403.976 64.6253 406.826 62.9154 409.106Z" fill="#D8AF49"/>
<path d="M38.4072 319.053C38.9772 317.343 37.8372 314.493 40.117 314.493C42.3969 314.493 41.2572 317.343 41.8272 318.483L42.397 319.053C42.397 321.903 44.6767 324.753 44.1068 328.172C44.1068 328.742 42.9669 328.742 42.397 328.742C38.4073 325.893 38.9772 321.903 38.4072 319.053Z" fill="#D8AF49"/>
<path d="M-0.919394 531.076C0.220519 531.076 0.220241 532.216 0.220241 532.786C0.220241 535.066 -0.349437 536.776 -0.919394 538.486C-2.62926 541.335 -3.19936 544.755 -6.04914 547.035C-7.75901 543.615 -4.33913 541.335 -3.76917 538.486C-3.19922 536.776 -3.1995 534.496 -2.62954 532.786C-2.62954 532.216 -2.05931 531.076 -0.919394 531.076Z" fill="#D8AF49"/>
<path d="M56.0763 216.46C53.7964 221.589 51.5163 226.149 48.6666 231.279C48.0966 232.418 47.5269 231.848 46.3869 231.848C45.817 231.278 45.817 231.278 46.3869 230.709C48.6668 226.149 50.3767 221.019 53.2265 217.03C53.7964 216.46 54.3662 216.46 55.5061 215.89C55.5061 215.32 55.5063 215.89 56.0763 216.46Z" fill="#D8AF49"/>
<path d="M23.5882 265.477C24.7282 261.487 24.1581 256.357 28.1478 252.938C30.4276 257.497 26.438 261.487 26.438 266.046C26.438 267.186 26.4381 269.466 24.7282 268.896C23.0184 269.466 23.5882 267.756 23.5882 265.477Z" fill="#D8AF49"/>
<path d="M53.7963 431.335C51.5164 435.894 48.6667 440.454 46.3869 445.014C46.3869 445.014 45.2471 445.584 44.6771 445.014C44.1071 445.014 44.1069 443.874 44.1069 443.874C45.8168 438.744 48.0966 434.185 51.5163 430.765C52.0863 430.195 52.6565 430.195 53.2264 430.195C53.7964 430.195 53.7963 430.765 53.7963 431.335Z" fill="#D8AF49"/>
<path d="M40.1166 555.014C34.987 557.294 29.8577 557.864 24.7281 557.864C24.1581 557.864 21.8782 558.434 22.4481 556.154C22.4481 555.584 23.588 555.014 24.1579 555.014C29.8575 554.444 34.987 554.444 40.1166 555.014Z" fill="#D8AF49"/>
<path d="M48.6666 516.827C48.6666 518.537 48.6666 520.247 48.6666 521.387C48.6666 522.527 48.6666 523.666 46.9568 523.666C45.2469 523.666 45.247 522.527 45.247 521.387C45.247 520.247 44.677 518.537 45.247 517.397C45.8169 515.117 44.6769 511.697 46.9568 511.697C50.3765 512.267 48.6666 515.687 48.6666 516.827Z" fill="#D8AF49"/>
<path d="M38.4072 230.14C40.6871 225.58 43.5368 221.591 45.8166 217.031C46.3865 215.891 46.9566 215.321 48.0966 214.751C48.6665 215.891 49.2365 217.031 48.0966 217.601C45.2468 222.161 45.2467 229 38.4072 230.14Z" fill="#D8AF49"/>
<path d="M37.2674 532.787C36.1274 535.636 34.9877 538.486 33.8478 541.336C33.2778 542.476 32.7078 543.046 30.998 542.476C29.8581 541.906 30.428 540.766 30.998 540.196C32.1379 537.346 33.2779 534.496 34.9877 531.647C35.5577 531.077 36.1276 530.507 36.6975 529.937C36.6975 531.077 36.6974 531.647 37.2674 532.787Z" fill="#D8AF49"/>
<path d="M93.1234 564.704L92.5532 564.134H93.1234V564.704Z" fill="#D8AF49"/>
<path d="M50.3765 263.197C50.3765 262.627 50.9461 262.057 51.5161 262.057L52.0863 262.627C52.0863 263.197 51.5164 263.197 50.3765 263.197C50.9464 263.197 50.3765 263.197 50.3765 263.197Z" fill="#D8AF49"/>
<path d="M121.621 531.076C122.191 529.936 122.191 528.797 123.331 528.227C123.331 529.936 122.761 530.506 121.621 531.076Z" fill="#D8AF49"/>
<path d="M95.9731 531.076C95.9731 530.506 95.9731 529.366 95.9731 528.796C96.5431 528.226 97.113 528.226 97.6829 528.796C97.6829 529.936 96.5431 530.506 95.9731 531.076Z" fill="#D8AF49"/>
<path d="M103.953 523.096C103.953 522.526 104.523 521.956 105.093 521.956L105.662 522.526C105.662 523.096 105.093 523.666 103.953 523.096Z" fill="#D8AF49"/>
<path d="M86.8542 8.42676C91.4138 1.58728 103.953 -0.122623 109.652 5.00698C112.502 7.28681 109.082 8.42669 108.512 10.1366C102.243 8.99664 106.803 14.1263 105.663 15.2662C98.2532 15.8362 105.093 19.8258 104.523 21.5357C104.523 22.1056 104.523 22.6757 105.093 22.6757L103.953 22.1057C101.103 18.116 99.3931 22.1057 97.1133 23.2456C93.6936 24.9554 96.5434 26.6653 97.1133 27.8052C97.1133 28.9451 98.2535 29.5151 98.8235 30.655C99.3934 31.7949 101.673 34.0747 99.3933 34.6447C97.6834 35.2146 97.6833 32.9348 97.1133 31.7949C95.9734 31.225 94.2635 28.9451 94.2635 30.085C94.8335 33.5048 90.8439 33.5048 90.8439 35.7846C90.8439 36.9245 91.9838 38.6344 92.5537 39.7743C93.1237 41.4842 95.4036 43.194 93.6937 44.3339C91.9838 45.4738 91.414 42.6241 90.2741 41.4841C89.7042 40.9142 88.5641 40.3443 87.9942 40.9142C86.8542 41.4842 87.4242 42.6241 87.9942 43.194C88.5641 44.3339 89.134 46.0438 89.704 47.1837C90.2739 48.3236 90.2739 49.4635 89.704 50.0335C88.564 51.1734 87.9941 50.0335 86.8542 49.4636C85.7143 48.3237 85.7142 45.4738 82.8644 47.1837C86.2841 50.0335 78.875 51.7434 81.7248 54.5932C82.8647 55.7331 84.0043 56.873 82.8644 58.0129C81.1545 59.7228 81.1547 56.873 79.4448 56.303C77.7349 55.7331 77.1649 56.303 77.1649 58.5828C76.5949 62.5725 74.885 63.7124 71.4653 64.2824C67.4756 64.2824 68.0457 69.412 65.1959 70.552L64.6261 69.982C65.766 66.5622 67.4757 63.7125 69.7555 60.8627C72.0353 58.0129 69.7554 55.7331 68.6155 54.0233C66.3357 51.7434 65.766 55.1631 64.6261 56.303C62.9162 57.443 62.3462 61.4326 60.6363 60.2927C58.9265 59.1528 61.2062 56.3031 62.3461 54.0233C69.1856 39.2044 76.0252 24.9554 87.4243 12.9863C88.5643 11.2765 88.564 10.7066 86.8542 8.42676Z" fill="white"/>
<path d="M119.911 542.475C125.041 540.195 127.321 535.636 130.171 531.646C130.741 530.506 131.881 529.936 133.02 531.076C133.59 531.646 133.02 532.786 133.02 533.356C131.311 536.776 129.601 540.765 127.891 544.185C127.321 545.325 126.181 546.465 127.321 547.035C129.031 548.175 130.171 546.465 130.741 545.325C133.59 540.195 137.58 535.636 140.43 530.506C143.28 525.377 149.549 527.656 150.119 528.226C152.969 532.786 158.668 532.216 162.088 536.206C162.658 537.346 163.798 537.916 164.368 538.486C167.788 542.475 170.638 547.605 168.928 551.595C167.788 554.444 162.088 554.444 158.098 555.014C150.119 555.584 142.14 557.294 134.73 555.014C129.031 553.305 123.331 553.305 117.632 553.305C117.062 553.305 115.352 553.305 115.352 552.735C114.782 551.595 115.922 551.025 116.492 549.885C117.062 547.035 120.481 545.895 119.911 542.475Z" fill="white"/>
<path d="M97.683 528.796H97.1128L96.543 529.366C89.1336 533.926 82.2941 539.625 73.7447 543.615C65.7654 547.035 58.3559 551.025 49.8065 547.035C46.9567 545.895 44.677 548.175 42.3972 548.175C41.8272 548.175 40.6871 547.605 40.1172 547.605C40.6871 547.035 40.6872 545.895 41.2572 545.895C49.8065 541.905 58.9258 539.625 66.9052 533.926C67.4752 533.926 68.045 533.356 68.615 533.926C69.7549 535.066 68.6151 535.066 68.0452 535.636C67.4752 536.206 66.3352 536.776 65.7652 537.346C65.1953 537.915 63.4855 538.485 64.0554 539.625C64.6254 540.765 66.3352 539.625 66.9052 539.055C74.3146 534.496 81.1541 529.366 86.8537 523.097C90.8434 520.817 87.4238 527.656 90.2736 525.946C91.9835 524.806 93.1234 522.527 93.1234 519.677C94.2633 513.407 93.6932 507.138 93.6932 501.438C93.6932 496.879 97.683 495.739 98.823 492.319C98.823 491.749 99.3926 491.749 99.9626 491.749C99.9626 492.319 100.533 493.459 100.533 494.029C98.8229 498.588 103.952 504.288 97.683 508.278C102.813 513.977 95.9732 520.247 98.823 525.946C99.3929 525.946 97.113 527.086 97.683 528.796Z" fill="white"/>
<path d="M90.8433 381.178C85.1437 378.328 87.4236 372.629 86.2837 368.069C85.1438 364.65 84.0038 361.8 82.2939 358.38C84.5738 357.81 85.7136 356.67 84.0037 354.39C81.7239 352.11 82.8638 350.401 84.0037 348.121C89.1333 348.121 86.8536 352.68 87.9935 354.96C89.7034 358.38 87.4234 365.219 91.4131 365.219C94.2629 365.219 90.2733 358.38 90.8433 354.96C91.4132 350.97 87.4237 347.551 90.2735 343.561C93.6932 346.411 92.5532 350.401 93.6931 353.82C94.833 358.38 95.4029 362.94 96.5429 367.499C97.1128 368.639 95.9728 371.489 98.2526 371.489C99.9625 370.919 99.3928 368.639 98.8228 366.929C97.1129 357.81 95.4029 348.121 93.6931 339.001C93.6931 337.862 92.553 335.582 94.2629 335.582C95.9728 335.012 95.9729 337.292 96.5429 339.001C99.3926 349.831 101.672 360.66 102.242 372.059C102.242 375.479 103.382 378.898 105.092 381.748C101.672 388.588 100.532 396.567 98.2526 403.976C98.2526 404.546 98.8227 406.826 96.5429 405.686C95.9729 405.686 95.973 403.976 95.973 403.406C97.1129 397.707 99.3926 392.007 99.3926 385.738C99.3926 383.458 99.3926 381.178 99.3926 378.898C99.3926 378.328 99.3927 377.188 97.6828 377.188C96.5429 377.188 96.5429 378.328 96.5429 378.898C95.9729 383.458 97.1127 388.588 95.4029 393.717C94.8329 395.427 94.833 398.277 93.6931 398.277C91.9832 398.277 90.8433 395.427 90.8433 393.147C90.8433 390.867 91.4133 388.018 91.9833 385.738C91.9833 382.888 91.9832 381.748 90.8433 381.178Z" fill="white"/>
<path d="M104.523 381.178C108.512 378.328 109.652 374.909 108.512 369.779C106.802 358.95 106.802 347.551 106.232 336.722C106.232 336.152 106.802 334.442 106.802 334.442C107.942 334.442 107.942 335.582 108.512 336.722C109.082 341.281 109.652 345.841 110.792 350.401C111.362 353.25 110.792 356.67 113.642 358.95C110.792 368.069 111.362 377.758 110.222 386.878C106.802 391.437 106.802 396.567 105.092 401.697C103.952 405.116 103.383 409.106 101.673 412.526C101.103 413.666 101.673 415.945 99.3928 415.376C97.6829 414.806 98.253 413.096 98.823 411.956C100.533 404.546 102.813 397.707 104.523 390.297C104.523 386.878 106.802 384.028 104.523 381.178Z" fill="white"/>
<path d="M90.2735 497.449C90.2735 501.439 90.2735 505.429 90.2735 509.418C90.2735 512.268 88.5634 513.408 86.8535 513.408C84.0038 512.838 86.8537 510.558 86.2837 509.418C84.5738 502.579 85.7136 495.739 84.0038 489.47C82.8638 486.62 82.8638 483.77 82.8638 480.921C82.8638 478.641 83.4339 475.791 86.2837 474.081C87.4236 476.361 87.9936 478.071 89.1335 480.351C90.8434 486.05 90.8434 491.75 90.2735 497.449Z" fill="white"/>
<path d="M74.8847 351.54C69.7551 354.39 73.1747 359.52 72.6047 363.509C72.0348 366.359 75.4546 371.489 70.8949 372.059C66.3353 372.629 68.6151 367.499 68.0451 364.649C66.3353 358.95 66.3351 353.82 68.615 348.69C69.7549 345.841 66.9052 347.55 66.9052 346.411C66.3352 344.701 64.6255 342.421 67.4753 341.281C69.7552 340.141 70.8948 341.851 71.4647 343.561C70.8948 346.98 73.1748 349.26 74.8847 351.54Z" fill="white"/>
<path d="M100.533 537.346C105.662 529.936 113.642 525.377 118.771 517.397C121.621 516.257 122.761 511.128 124.471 512.838C127.321 514.548 123.901 518.537 122.761 521.387V521.957C115.921 527.657 110.222 535.066 100.533 537.346Z" fill="white"/>
<path d="M74.8849 396.566C76.0248 392.576 73.7448 389.156 71.4649 386.306C69.7551 384.027 69.1853 381.747 69.1853 379.467C69.1853 377.757 67.4754 374.907 70.8951 374.907C74.3149 374.907 73.1751 377.757 73.1751 379.467C73.1751 381.747 73.745 382.887 76.0249 384.027C81.1545 386.306 81.7244 390.866 80.5844 395.996C78.8746 400.555 76.5947 397.136 74.8849 396.566Z" fill="white"/>
<path d="M114.211 479.781C113.071 478.071 110.792 476.931 111.932 474.081C112.502 471.801 112.502 469.522 113.072 467.242C114.782 462.682 112.502 457.553 117.061 454.133C118.771 458.692 118.201 463.252 118.201 467.812C118.201 472.372 117.631 476.361 115.351 480.351C115.351 480.351 114.781 480.351 114.211 479.781Z" fill="white"/>
<path d="M109.651 386.307C113.071 384.028 112.501 380.608 113.071 377.188C113.071 376.618 113.071 375.478 114.211 375.478C115.921 375.478 115.351 376.618 115.351 377.758C114.211 389.727 110.791 401.126 106.802 412.525C106.232 413.665 106.232 415.375 105.092 414.805C103.952 414.235 104.522 412.525 105.092 411.385C106.232 406.256 107.941 401.126 109.651 395.427C109.651 392.577 111.361 389.727 109.651 386.307Z" fill="white"/>
<path d="M113.071 434.753C111.931 437.603 111.361 440.452 110.221 442.732C109.082 443.872 106.802 445.582 105.092 445.012C103.952 444.442 104.522 442.162 105.092 440.453C105.662 438.173 106.232 435.893 106.802 434.183C107.371 431.903 107.942 429.053 110.221 427.914C111.361 429.623 112.501 432.473 113.071 434.753Z" fill="white"/>
<path d="M102.243 471.23C100.533 470.66 99.3927 468.951 99.9627 467.241C100.533 464.961 102.243 463.251 103.952 461.541C105.662 459.831 104.522 454.702 108.512 455.272C109.082 455.272 107.942 460.971 107.372 463.821C106.233 467.241 106.232 470.66 102.243 471.23Z" fill="white"/>
<path d="M29.8577 352.11C29.8577 350.97 27.5779 348.691 30.9977 347.551C32.7075 346.981 34.4175 346.981 36.1274 348.121C37.8373 349.261 37.267 351.54 37.267 353.82C37.267 356.1 34.9873 357.24 33.8474 358.38C33.2775 359.52 32.7075 360.66 30.9977 360.09C29.2878 359.52 29.8577 357.81 29.8577 356.67C29.8577 356.1 29.8577 354.39 29.8577 352.11Z" fill="white"/>
<path d="M103.952 431.333C102.242 431.333 101.673 430.193 102.243 428.483C105.092 421.644 108.512 414.234 111.362 407.395C111.362 406.825 111.932 406.825 112.502 406.255C112.502 406.825 113.072 407.395 113.072 407.965C110.792 415.374 107.942 423.354 105.662 430.763C105.092 430.763 104.522 430.763 103.952 431.333Z" fill="white"/>
<path d="M103.953 350.97C103.953 352.68 103.953 354.39 103.953 356.1C103.953 356.67 103.953 357.81 103.383 358.38C102.813 357.81 102.813 357.24 102.243 356.1C101.103 349.83 99.3931 342.991 98.2532 336.721C97.6832 335.011 97.6832 333.872 99.963 333.872C101.103 333.872 102.243 335.011 102.243 336.151C103.383 341.281 103.953 345.841 103.953 350.97C104.523 350.97 104.523 350.97 103.953 350.97Z" fill="white"/>
<path d="M118.201 378.328C118.771 372.628 119.341 367.499 119.911 361.799C119.911 360.659 119.911 358.379 122.191 358.949C123.901 359.519 123.901 361.229 123.331 362.369C122.191 368.069 121.621 374.338 120.481 380.038C120.481 381.178 120.481 382.887 119.341 382.887C117.631 382.887 118.771 380.608 118.201 379.468C118.201 379.468 118.201 378.898 118.201 378.328Z" fill="white"/>
<path d="M114.211 479.78C114.781 479.78 115.351 479.78 115.921 479.78C114.781 486.05 110.222 491.18 107.372 496.309C106.802 497.449 106.232 498.589 105.092 498.019C104.522 497.449 103.952 495.739 104.522 494.599C107.372 489.47 110.791 484.91 114.211 479.78Z" fill="white"/>
<path d="M120.481 498.589C120.481 497.449 119.911 496.879 119.911 496.309C121.621 490.609 122.761 485.479 124.471 479.78C124.471 479.21 125.041 478.64 125.611 478.07C126.181 478.64 126.751 479.21 126.751 479.78C126.751 486.049 123.331 491.749 121.621 497.449C122.191 498.019 121.051 498.019 120.481 498.589Z" fill="white"/>
<path d="M114.782 354.961C111.362 348.121 111.362 340.142 110.792 332.732C110.792 331.593 110.792 330.453 111.932 330.453C113.072 330.453 113.642 332.163 113.642 333.302C114.782 340.142 115.352 347.551 114.782 354.961Z" fill="white"/>
<path d="M125.041 502.009C126.181 496.88 126.181 491.75 129.6 488.33C131.88 492.32 127.891 496.309 129.031 500.299C129.031 500.869 129.031 502.009 129.031 502.579C128.461 503.719 130.17 506.569 126.751 505.999C124.471 504.859 124.471 503.149 125.041 502.009Z" fill="white"/>
<path d="M137.58 510.558C134.161 513.978 134.161 519.678 131.881 523.667C131.881 524.237 131.311 524.237 130.741 524.237C130.741 523.667 130.171 522.528 130.171 521.958C131.311 517.968 131.881 513.408 133.021 509.418C133.591 508.279 132.451 505.429 134.73 505.429C137.01 505.429 137.01 508.279 137.58 510.558Z" fill="white"/>
<path d="M40.1172 356.1C41.2571 353.82 38.4076 349.26 41.8274 348.69C45.817 348.69 43.537 353.25 44.107 355.53C44.107 356.1 44.6769 356.67 44.107 357.24C43.537 360.09 45.2469 364.079 41.2572 364.079C38.9774 364.079 40.6872 359.52 40.1172 357.24C40.1172 357.24 40.1172 356.67 40.1172 356.1Z" fill="white"/>
<path d="M121.621 479.779C121.621 480.349 121.621 480.349 121.621 480.919C120.481 484.909 121.051 488.899 117.061 491.749C116.491 491.749 115.351 491.749 115.351 491.749C114.781 487.759 117.061 484.909 118.201 481.489C118.201 480.919 118.771 480.349 118.771 479.779C119.341 478.64 119.341 476.36 121.051 476.36C122.191 476.36 121.621 478.64 121.621 479.779Z" fill="white"/>
<path d="M87.4236 413.096C86.8536 415.376 87.4236 418.795 84.5738 419.365C82.294 419.935 82.8637 417.086 82.8637 415.376C82.2937 412.526 82.8637 410.246 85.7134 408.536C86.8533 410.246 87.4236 411.956 87.4236 413.096Z" fill="white"/>
<path d="M94.8337 491.749C94.2637 490.039 93.6937 489.469 93.6937 488.899C93.1237 485.479 95.9734 483.199 97.1133 480.35C97.1133 479.78 98.2535 478.64 98.8234 480.35C99.9633 482.629 98.2532 484.909 97.1133 486.619C96.5433 488.329 95.9736 489.469 94.8337 491.749Z" fill="white"/>
<path d="M74.8853 351.54C81.1548 348.69 77.7348 355.53 80.0147 356.67C78.8747 357.24 78.875 358.38 78.875 359.52C78.875 360.659 78.8747 361.799 77.1649 361.799C76.025 361.799 76.0252 360.659 76.0252 360.089C77.1651 356.67 74.8853 354.39 74.8853 351.54Z" fill="white"/>
<path d="M64.6249 71.1217C64.055 74.5415 61.2049 76.8213 60.065 80.241C60.065 80.811 58.3552 81.3809 58.3552 81.3809C57.7852 80.8109 57.7852 79.6711 58.3552 79.1011C60.0651 76.2513 61.205 72.8316 64.0548 70.5518C64.6247 70.5518 64.6249 70.5518 64.6249 71.1217Z" fill="white"/>
<path d="M116.491 355.53C117.061 354.96 117.061 353.82 117.631 353.25C118.201 351.54 118.201 349.83 118.771 348.69C119.341 349.26 120.481 349.83 120.481 350.4C120.481 352.68 121.621 354.96 118.771 356.67C118.201 356.1 117.061 355.53 116.491 355.53Z" fill="white"/>
<path d="M30.9977 342.42C32.1376 342.99 32.7077 342.99 33.2777 343.56C32.1378 344.7 30.4278 344.13 29.2879 344.7C28.718 344.7 27.5781 344.7 27.5781 343.56C28.718 342.99 30.4278 342.99 30.9977 342.42Z" fill="white"/>
<path d="M105.093 21.5347C105.663 22.1046 106.232 22.6746 106.802 23.2446C107.372 24.3845 109.082 25.5244 107.373 26.6643C107.373 26.6643 105.663 25.5244 105.093 24.3844C104.523 23.8145 104.523 22.6746 103.953 22.1047C103.953 22.1047 104.523 22.1046 105.093 21.5347Z" fill="white"/>
<path d="M115.351 366.358C115.921 366.928 116.491 366.928 116.491 367.498C116.491 368.068 116.491 368.638 116.491 369.208C115.921 370.348 115.921 370.348 115.351 369.208C114.781 368.068 115.351 367.498 115.351 366.358Z" fill="white"/>
<path d="M83.4342 348.12C82.2943 346.981 81.1542 346.411 82.8641 344.701C83.434 344.701 84.0042 344.701 84.5742 344.701C85.7141 346.411 83.4342 346.981 83.4342 348.12Z" fill="white"/>
<path d="M76.5946 348.12C76.0246 348.12 75.4546 348.12 75.4546 347.55L76.0248 346.98C76.5947 346.98 77.1644 347.55 77.1644 347.55C77.1644 347.55 77.1645 348.12 76.5946 348.12Z" fill="white"/>
<path d="M90.2735 381.177C90.2735 381.747 89.7033 381.748 89.7033 382.317C89.1334 381.178 89.7035 381.177 90.2735 381.177Z" fill="white"/>
<path d="M113.072 358.38C113.072 357.24 113.071 356.67 114.211 356.1C115.351 355.53 115.351 356.1 115.351 356.67C114.781 358.38 114.212 358.38 113.072 358.38Z" fill="white"/>
<path d="M80.0142 356.669L81.7243 358.379C81.1544 358.379 80.0142 357.809 80.0142 356.669Z" fill="white"/>
<path d="M116.491 354.959C115.921 355.529 115.351 356.099 115.351 357.239C114.781 357.239 114.781 356.669 114.211 356.669C114.211 356.099 114.212 355.529 114.782 355.529C115.352 354.959 115.921 354.959 116.491 354.959Z" fill="white"/>
<path d="M23.0188 172.003C23.0188 173.143 23.0188 174.283 23.0188 175.423C23.0188 177.703 23.589 181.693 20.7392 181.693C18.4594 181.693 19.5993 177.703 19.0294 175.993C17.3195 164.594 15.0396 153.765 12.1898 142.936C11.6199 141.226 11.6197 137.806 8.7699 138.946C6.49008 140.086 8.19995 142.366 8.7699 144.076C12.7596 153.765 14.4697 164.594 16.1796 174.853C16.1796 175.993 16.7494 177.133 15.6094 177.703C15.0395 177.703 14.4696 176.563 13.8996 175.993C8.20009 169.154 2.50038 162.884 5.92012 152.625C7.62999 146.355 4.78021 139.516 3.07034 133.247C2.50038 132.107 1.93064 130.397 3.6405 129.257C4.21046 128.687 5.92019 129.827 7.0601 129.827C17.8893 133.246 19.5993 143.506 21.8792 152.055C22.4491 159.464 23.0188 165.734 23.0188 172.003Z" fill="white"/>
<path d="M-6.61876 112.159C-5.47885 112.729 -4.33908 112.729 -3.19917 113.299C-6.6189 119.568 0.220572 118.998 2.5004 121.278C3.07035 121.848 4.78008 122.418 5.92 122.418C19.029 126.408 25.2987 135.527 26.4386 149.206C27.0086 154.905 27.0087 160.605 30.4284 166.305C31.5683 168.014 29.2883 171.434 27.0084 172.004C24.7286 172.574 25.2986 169.724 25.2986 168.014C25.8686 157.185 21.309 147.496 20.7391 137.237C20.7391 134.387 16.1795 133.247 13.3297 131.537C7.63014 128.118 0.790459 126.978 -4.33915 122.418C-7.75889 118.998 -9.46855 116.718 -6.61876 112.159Z" fill="white"/>
<path d="M22.4487 129.827C27.5783 129.257 29.8582 130.967 30.9981 136.097C33.2779 144.646 32.138 153.195 33.8479 161.745C33.8479 162.315 33.2778 163.455 32.7079 163.455C30.998 164.024 30.9981 162.885 30.9981 161.745C29.8582 156.045 29.2882 150.346 28.1483 144.646C27.0084 139.516 25.8685 134.387 22.4487 129.827Z" fill="white"/>
<path d="M-5.47976 128.687C-6.04972 127.547 -6.04972 126.977 -5.47976 126.977C-4.33985 126.977 -3.76961 126.977 -3.76961 128.117C-0.919831 133.816 0.219873 140.086 1.35979 145.785C1.35979 146.355 0.789968 147.495 0.789968 148.065C0.220012 147.495 -0.349875 146.925 -0.919831 146.355C-2.05974 140.086 -3.76989 133.816 -5.47976 128.687Z" fill="white"/>
<path d="M23.0185 129.826C22.4486 129.256 21.8789 129.256 21.8789 128.686C23.0188 128.116 23.0185 128.686 23.0185 129.826Z" fill="white"/>
<path d="M80.5843 244.958C80.5843 246.097 80.5843 247.807 79.4444 247.807C76.5946 247.807 75.4546 245.527 75.4546 243.248C75.4546 241.538 76.0247 238.688 77.7346 239.258C79.4444 239.828 80.0144 243.248 80.5843 244.958Z" fill="white"/>
<path d="M91.9836 211.331C91.4136 211.901 91.4135 211.901 90.8436 211.901C90.2736 210.761 89.7037 210.191 89.1338 209.051C89.1338 208.481 89.7036 207.912 89.7036 207.912C90.2736 209.052 91.4136 210.191 91.9836 211.331Z" fill="white"/>
<path d="M86.284 200.502L85.7139 201.072V200.502C86.2838 199.932 86.284 199.932 86.284 200.502Z" fill="white"/>
<path d="M80.0142 197.082C81.1541 197.651 81.1541 198.221 81.1541 198.791C81.1541 199.361 80.5841 199.361 80.0142 199.361C80.0142 198.791 80.5841 197.651 80.0142 197.082Z" fill="white"/>
<path d="M87.9935 205.631C87.9935 205.631 87.4236 205.061 87.9935 205.631C87.4236 205.061 87.9935 204.491 87.9935 204.491C87.9935 204.491 88.5635 205.061 87.9935 205.631C88.5635 205.061 87.9935 205.631 87.9935 205.631Z" fill="white"/>
<path d="M126.75 254.648C126.181 255.218 126.75 257.497 125.611 256.928C123.331 255.218 122.191 252.368 122.191 249.518C122.191 248.378 122.761 246.668 123.901 247.238C126.181 248.948 126.181 251.798 126.75 254.648Z" fill="white"/>
<path d="M98.8228 309.934C98.8228 311.074 98.8226 312.784 98.2526 312.214C96.5427 309.934 95.9728 307.084 95.4028 304.234C95.4028 303.664 95.973 302.525 95.973 301.955C98.2528 304.234 98.8228 307.084 98.8228 309.934Z" fill="white"/>
<path d="M56.076 534.495H56.6458C56.0759 534.495 56.0758 535.065 55.5059 535.065C55.5059 535.065 55.506 535.065 54.936 534.495C55.506 534.495 55.5061 534.495 56.076 534.495Z" fill="white"/>
<path d="M64.6257 282.006C64.0557 283.146 62.9158 283.715 61.7759 283.145C61.7759 281.436 63.4857 283.146 64.6257 282.006Z" fill="#D8AF49"/>
<path d="M68.0454 282.006C68.0454 282.576 68.6154 282.576 68.0454 282.006C68.6154 283.146 68.0454 283.146 68.0454 282.006Z" fill="#D8AF49"/>
<path d="M57.2158 273.457L56.646 274.027C56.646 274.027 56.6459 274.026 57.2158 273.457Z" fill="#D8AF49"/>
<path d="M98.8232 539.055C99.3932 538.485 99.9631 537.915 100.533 537.345C100.533 537.915 99.9632 538.485 98.8232 539.055Z" fill="white"/>
<path d="M94.2627 547.605C94.2627 547.035 94.8329 547.035 94.8329 546.465C94.8329 547.035 94.8327 547.035 94.2627 547.605Z" fill="white"/>
</g>
</svg>
