<svg width="24" height="24" viewBox="0 0 24 24" fill="none" xmlns="http://www.w3.org/2000/svg">
<path fill-rule="evenodd" clip-rule="evenodd" d="M11 3C6.58172 3 3 6.58172 3 11C3 15.4183 6.58172 19 11 19C12.8487 19 14.551 18.3729 15.9056 17.3199L20.2929 21.7071L20.3871 21.7903C20.7794 22.0953 21.3466 22.0676 21.7071 21.7071C22.0976 21.3166 22.0976 20.6834 21.7071 20.2929L17.3199 15.9056C18.3729 14.551 19 12.8487 19 11C19 6.58172 15.4183 3 11 3ZM11 5C14.3137 5 17 7.68629 17 11C17 14.3137 14.3137 17 11 17C7.68629 17 5 14.3137 5 11C5 7.68629 7.68629 5 11 5Z" fill="#08316D"/>
</svg>
