<svg width="14" height="14" viewBox="0 0 14 14" fill="none" xmlns="http://www.w3.org/2000/svg">
<path d="M13.6217 5.32249C13.5136 4.97494 13.2268 4.72228 12.8813 4.66953L9.38105 4.1365L7.81698 0.824408C7.50728 0.169533 6.48374 0.169533 6.17404 0.824408L4.60997 4.1365L1.11802 4.66953C0.77346 4.72228 0.486681 4.97583 0.378577 5.32352C0.270473 5.67019 0.360302 6.05147 0.61039 6.30679L3.14304 8.89388L2.54559 12.5439C2.48696 12.904 2.62811 13.2689 2.91025 13.484C3.19337 13.6981 3.56815 13.7261 3.87602 13.5561L6.99516 11.8323L10.1234 13.5561C10.2573 13.63 10.4039 13.6666 10.5495 13.6666C10.7392 13.6666 10.9288 13.6041 11.0892 13.4842C11.3715 13.2681 11.5125 12.9042 11.4539 12.5441L10.8574 8.89403L13.39 6.30694C13.6401 6.05236 13.7298 5.67019 13.6217 5.32249Z" fill="#D8AF49"/>
</svg>
