<svg width="160" height="170" viewBox="0 0 160 170" fill="none" xmlns="http://www.w3.org/2000/svg">
<path d="M5.57525 111.648H3.62265V102.582H0.205566V100.839H8.99232V102.582H5.57525V111.648Z" fill="white"/>
<path d="M16.5269 107.045V111.648H14.644V100.839H16.5269V105.302H21.7571V100.839H23.64V111.648H21.7571V107.045H16.5269Z" fill="white"/>
<path d="M38.0739 102.512H32.0069V105.302H37.3766V107.045H32.0069V109.904H38.1437V111.648H30.124V100.839H38.0739V102.512Z" fill="white"/>
<path d="M9.55123 129.221C9.27229 129.43 8.92359 129.64 8.57491 129.849C8.22623 129.988 7.80783 130.128 7.45915 130.267C7.04073 130.337 6.55258 130.407 6.06443 130.407C5.29733 130.407 4.53023 130.267 3.90261 129.988C3.20524 129.709 2.64736 129.291 2.1592 128.803C1.67105 128.315 1.32237 127.687 1.04342 127.059C0.764476 126.362 0.625 125.665 0.625 124.897C0.625 124.13 0.764476 123.433 1.04342 122.736C1.32237 122.038 1.67105 121.48 2.1592 120.923C2.64736 120.434 3.20524 120.016 3.90261 119.737C4.59997 119.458 5.29731 119.319 6.13415 119.319C6.6223 119.319 7.11047 119.388 7.45915 119.458C7.87757 119.528 8.22623 119.667 8.57491 119.807C8.92359 119.946 9.20255 120.155 9.48149 120.365C9.76044 120.574 10.0394 120.783 10.3183 121.062L9.13281 122.457C8.7144 122.038 8.22624 121.759 7.73809 121.48C7.24994 121.201 6.69205 121.132 6.06443 121.132C5.57628 121.132 5.08812 121.201 4.66971 121.411C4.25129 121.62 3.83287 121.899 3.55393 122.248C3.27498 122.596 2.99603 123.015 2.78682 123.433C2.57762 123.921 2.50788 124.409 2.50788 124.897C2.50788 125.455 2.57762 125.944 2.78682 126.432C2.99603 126.92 3.20524 127.338 3.55393 127.687C3.90261 128.036 4.25129 128.315 4.66971 128.524C5.08812 128.733 5.57628 128.803 6.06443 128.803C6.69205 128.803 7.31967 128.663 7.73809 128.454C8.22624 128.175 8.64466 127.826 9.13281 127.408L10.3183 128.663C10.1091 128.663 9.83018 128.942 9.55123 129.221Z" fill="white"/>
<path d="M17.9908 125.595V130.128H16.1079V119.319H17.9908V123.782H23.1513V119.319H25.0341V130.128H23.1513V125.595H17.9908Z" fill="white"/>
<path d="M39.4719 121.062H33.4048V123.782H38.7745V125.525H33.4048V128.384H39.5416V130.128H31.522V119.319H39.4719V121.062Z" fill="white"/>
<path d="M53.5548 121.062H47.418V123.991H52.8574V125.734H47.418V130.128H45.5352V119.319H53.5548V121.062Z" fill="white"/>
<path d="M0.975098 136.892H2.85798V145.957H8.57633V147.701H0.975098V136.892Z" fill="white"/>
<path d="M24.5434 147.701H22.5211L21.4053 145.121H16.3843L15.2685 147.701H13.3159L18.058 136.822H19.8014L24.5434 147.701ZM18.8948 139.054L17.0119 143.377H20.7079L18.8948 139.054Z" fill="white"/>
<path d="M37.6555 136.892H39.5384V147.701H37.9345L32.0069 140.03V147.701H30.124V136.892H31.8674L37.6555 144.353V136.892Z" fill="white"/>
<path d="M53.9768 138.635H47.9097V141.355H53.2794V143.098H47.9097V145.957H54.0465V147.701H46.0269V136.892H53.9768V138.635Z" fill="white"/>
<path d="M91.8425 157.046H0V158.44H91.8425V157.046Z" fill="white"/>
<path d="M98.5378 86.6821C84.5906 86.6821 73.3631 75.3849 73.3631 61.5074C73.3631 47.5602 84.6603 36.3327 98.5378 36.3327C105.302 36.3327 111.509 39.0524 116.042 43.376L125.665 33.1248C118.622 26.3604 109.068 22.246 98.5378 22.246C76.8499 22.246 59.2764 39.8195 59.2764 61.5074C59.2764 83.1953 76.8499 100.769 98.5378 100.769C108.859 100.769 118.203 96.7939 125.177 90.3084L115.553 80.0572C111.09 84.1019 105.163 86.6821 98.5378 86.6821Z" fill="white"/>
<path d="M159.976 61.4375C158.86 27.755 132.5 0 98.5381 0C64.6463 0 37.1006 27.476 37.1006 61.4375C37.1006 79.1505 44.6321 95.1898 56.6964 106.348L66.1805 96.2358C56.8359 87.5885 50.9781 75.1755 50.9781 61.4375C50.9781 35.2167 72.2476 13.8775 98.5381 13.8775C124.759 13.8775 145.261 34.0312 146.307 60.252C147.214 82.986 125.108 107.115 105.093 123.503V108.788H91.9829V133.475V135.846V152.652C115.484 131.592 161.231 98.5371 159.976 61.4375Z" fill="#D8AF49"/>
<path d="M1.95402 163.392H2.65138L1.95402 166.111H5.44082L6.20793 163.392H6.90529L5.23162 169.528H4.53426L5.30136 166.739H1.74482L1.04746 169.528H0.350098L1.95402 163.392Z" fill="white"/>
<path d="M7.80714 167.576V167.646C7.80714 168.064 7.94661 168.413 8.15582 168.622C8.43477 168.901 8.71371 168.971 9.13212 168.971C9.41107 168.971 9.69002 168.901 9.89922 168.831C10.1084 168.762 10.3176 168.622 10.5268 168.413L10.8755 168.831C10.6663 169.041 10.3874 169.18 10.1084 169.32C9.82948 169.459 9.4808 169.529 9.06238 169.529C8.78344 169.529 8.50448 169.459 8.22554 169.389C7.9466 169.32 7.73739 169.18 7.59792 168.971C7.38871 168.831 7.31897 168.622 7.1795 168.343C7.10976 168.134 7.04004 167.855 7.04004 167.576C7.04004 167.227 7.10977 166.879 7.24924 166.53C7.38871 166.181 7.59793 165.902 7.80714 165.623C8.01635 165.345 8.29528 165.135 8.64396 164.996C8.99264 164.856 9.34132 164.717 9.69 164.717C9.96895 164.717 10.2479 164.787 10.4571 164.856C10.6663 164.926 10.8755 165.066 11.015 165.205C11.1545 165.345 11.2939 165.554 11.3637 165.763C11.4334 165.972 11.5031 166.181 11.5031 166.46C11.5031 166.6 11.5031 166.739 11.4334 166.879C11.4334 167.018 11.3637 167.158 11.2939 167.297H7.7374C7.80714 167.506 7.80714 167.576 7.80714 167.576ZM10.8058 167.018C10.8058 166.948 10.8755 166.809 10.8755 166.67C10.8755 166.53 10.8755 166.391 10.8058 166.251C10.736 166.112 10.6663 165.972 10.5966 165.902C10.5268 165.763 10.3874 165.693 10.2479 165.623C10.1084 165.554 9.96895 165.554 9.75974 165.554C9.55053 165.554 9.34133 165.623 9.13212 165.693C8.92291 165.763 8.78343 165.902 8.57422 166.042C8.43475 166.181 8.29529 166.321 8.15582 166.53C8.01635 166.739 7.9466 166.948 7.87686 167.158H10.8058V167.018Z" fill="white"/>
<path d="M13.2493 164.996H13.9467L13.6677 166.182C13.8072 165.972 13.9467 165.833 14.0861 165.624C14.2256 165.484 14.4348 165.345 14.5743 165.205C14.7835 165.066 14.923 164.996 15.1322 164.926C15.3414 164.857 15.5506 164.857 15.7598 164.857L15.5506 165.554H15.4809C15.2019 165.554 14.9927 165.624 14.7138 165.693C14.5046 165.763 14.2256 165.903 14.0164 166.112C13.8072 166.321 13.598 166.53 13.4585 166.739C13.319 167.018 13.1796 167.297 13.1098 167.646L12.6217 169.459H11.9243L13.2493 164.996Z" fill="white"/>
<path d="M16.5249 167.576V167.646C16.5249 168.064 16.6644 168.413 16.8736 168.622C17.1525 168.901 17.4315 168.971 17.8499 168.971C18.1288 168.971 18.4078 168.901 18.617 168.831C18.8262 168.762 19.0354 168.622 19.2446 168.413L19.5933 168.831C19.3841 169.041 19.1051 169.18 18.8262 169.32C18.5473 169.459 18.1986 169.529 17.7802 169.529C17.5012 169.529 17.2223 169.459 16.9433 169.389C16.6644 169.32 16.4552 169.18 16.3157 168.971C16.1065 168.831 16.0367 168.622 15.8973 168.343C15.8275 168.134 15.7578 167.855 15.7578 167.576C15.7578 167.227 15.8275 166.879 15.967 166.53C16.1065 166.181 16.3157 165.902 16.5249 165.623C16.7341 165.345 17.0131 165.135 17.3617 164.996C17.7104 164.856 18.0591 164.717 18.4078 164.717C18.6867 164.717 18.9657 164.787 19.1749 164.856C19.3841 164.926 19.5933 165.066 19.7328 165.205C19.8722 165.345 20.0117 165.554 20.0814 165.763C20.1512 165.972 20.2209 166.181 20.2209 166.46C20.2209 166.6 20.2209 166.739 20.1512 166.879C20.1512 167.018 20.0815 167.158 20.0117 167.297H16.4552C16.5249 167.506 16.5249 167.576 16.5249 167.576ZM19.5236 167.018C19.5236 166.948 19.5933 166.809 19.5933 166.67C19.5933 166.53 19.5933 166.391 19.5236 166.251C19.4538 166.112 19.3841 165.972 19.3144 165.902C19.2446 165.763 19.1051 165.693 18.9657 165.623C18.8262 165.554 18.6867 165.554 18.4775 165.554C18.2683 165.554 18.0591 165.623 17.8499 165.693C17.6407 165.763 17.5012 165.902 17.292 166.042C17.1525 166.181 17.0131 166.321 16.8736 166.53C16.7341 166.739 16.6644 166.948 16.5946 167.158H19.5236V167.018Z" fill="white"/>
<path d="M24.6862 165.554H24.0586L24.198 164.926H24.8257L24.9651 164.368C25.1046 163.88 25.3138 163.601 25.523 163.322C25.802 163.113 26.0809 162.974 26.4993 162.974C26.848 162.974 27.1269 163.043 27.4059 163.183L27.2664 163.741C27.127 163.671 26.9875 163.601 26.9177 163.601C26.7783 163.601 26.7085 163.532 26.5691 163.532C26.3599 163.532 26.1506 163.601 26.0112 163.741C25.8717 163.88 25.7322 164.089 25.6625 164.368L25.523 164.787H26.9875L26.848 165.414H25.3835L24.3375 169.389H23.6401L24.6862 165.554Z" fill="white"/>
<path d="M28.1733 169.459C27.8943 169.389 27.6851 169.25 27.5457 169.041C27.3365 168.832 27.197 168.622 27.1273 168.413C27.0575 168.134 26.9878 167.925 26.9878 167.576C26.9878 167.228 27.0575 166.879 27.197 166.53C27.3365 166.182 27.5457 165.903 27.7549 165.693C27.9641 165.484 28.3128 165.275 28.5917 165.066C28.9404 164.926 29.2891 164.857 29.6378 164.857C29.9167 164.857 30.2654 164.926 30.4746 164.996C30.7535 165.066 30.9627 165.205 31.1022 165.414C31.3114 165.624 31.4509 165.833 31.5206 166.042C31.5904 166.321 31.6601 166.53 31.6601 166.879C31.6601 167.228 31.5904 167.576 31.4509 167.925C31.3114 168.274 31.1022 168.553 30.893 168.762C30.6141 169.041 30.3351 169.18 30.0562 169.389C29.7075 169.529 29.4286 169.599 29.0101 169.599C28.7312 169.668 28.4522 169.599 28.1733 169.459ZM29.7772 168.832C29.9864 168.692 30.1956 168.553 30.4049 168.343C30.6141 168.134 30.7535 167.925 30.8233 167.646C30.9628 167.367 30.9627 167.158 30.9627 166.879C30.9627 166.391 30.8233 166.042 30.5443 165.833C30.2654 165.554 29.9167 165.484 29.4983 165.484C29.2193 165.484 29.0101 165.554 28.7312 165.693C28.522 165.833 28.3128 165.972 28.1036 166.182C27.8943 166.391 27.7549 166.6 27.6852 166.879C27.5457 167.158 27.5457 167.367 27.5457 167.646C27.5457 168.134 27.6851 168.483 27.9641 168.692C28.243 168.971 28.5917 169.041 29.0101 169.041C29.2891 169.041 29.568 168.971 29.7772 168.832Z" fill="white"/>
<path d="M33.469 164.996H34.1664L33.8874 166.182C34.0269 165.972 34.1664 165.833 34.3059 165.624C34.4453 165.484 34.6545 165.345 34.794 165.205C34.9335 165.066 35.1427 164.996 35.3519 164.926C35.5611 164.857 35.7703 164.857 35.9795 164.857L35.7703 165.554H35.7006C35.4216 165.554 35.2124 165.624 34.9335 165.693C34.7243 165.763 34.4453 165.903 34.2361 166.112C34.0269 166.321 33.8177 166.53 33.6782 166.739C33.5388 167.018 33.3993 167.297 33.3295 167.646L32.8414 169.459H32.144L33.469 164.996Z" fill="white"/>
<path d="M40.2352 163.392H40.9326L40.1655 166.111H43.6523L44.4194 163.392H45.1167L43.4431 169.528H42.7457L43.5128 166.739H40.026L39.2589 169.528H38.5615L40.2352 163.392Z" fill="white"/>
<path d="M46.5815 169.459C46.3026 169.389 46.0933 169.25 45.9539 169.041C45.7447 168.832 45.6052 168.622 45.5355 168.413C45.4657 168.134 45.396 167.925 45.396 167.576C45.396 167.228 45.4657 166.879 45.6052 166.53C45.7447 166.182 45.9539 165.903 46.1631 165.693C46.3723 165.414 46.721 165.275 46.9999 165.066C47.3486 164.926 47.6973 164.857 48.046 164.857C48.3249 164.857 48.6736 164.926 48.8828 164.996C49.1617 165.066 49.371 165.205 49.5104 165.414C49.7196 165.624 49.8591 165.833 49.9288 166.042C49.9986 166.251 50.0683 166.53 50.0683 166.879C50.0683 167.228 49.9986 167.576 49.8591 167.925C49.7196 168.274 49.5104 168.553 49.3012 168.762C49.0223 169.041 48.7433 169.18 48.4644 169.389C48.1157 169.529 47.767 169.599 47.4183 169.599C47.1394 169.668 46.8604 169.599 46.5815 169.459ZM48.1854 168.832C48.3946 168.692 48.6039 168.553 48.8131 168.343C49.0223 168.134 49.1617 167.925 49.2315 167.646C49.371 167.367 49.3709 167.158 49.3709 166.879C49.3709 166.391 49.2315 166.042 48.9525 165.833C48.6736 165.554 48.3249 165.484 47.9065 165.484C47.6276 165.484 47.4183 165.554 47.1394 165.693C46.9302 165.833 46.721 165.972 46.5118 166.182C46.3026 166.391 46.1631 166.6 46.0934 166.879C45.9539 167.158 45.9539 167.367 45.9539 167.646C45.9539 168.134 46.0934 168.483 46.3723 168.692C46.6512 168.971 46.9999 169.041 47.4183 169.041C47.6973 169.041 47.9762 168.971 48.1854 168.832Z" fill="white"/>
<path d="M51.8838 164.996H52.5812L52.372 165.763C52.5812 165.554 52.7904 165.345 52.9996 165.136C53.2088 164.996 53.4877 164.926 53.8364 164.926C54.0456 164.926 54.1851 164.926 54.3246 164.996C54.464 165.066 54.6035 165.136 54.6732 165.205C54.743 165.275 54.8824 165.414 54.9522 165.554C55.0219 165.693 55.0917 165.833 55.0917 165.903C55.3009 165.554 55.5798 165.345 55.8588 165.136C56.1377 164.926 56.4864 164.857 56.9048 164.857C57.114 164.857 57.3232 164.857 57.4627 164.926C57.6022 164.996 57.8114 165.066 57.8811 165.205C58.0206 165.345 58.0903 165.484 58.16 165.624C58.2298 165.763 58.2298 165.972 58.2298 166.182C58.2298 166.321 58.2298 166.391 58.16 166.53C58.16 166.67 58.0903 166.739 58.0903 166.879L57.3929 169.389H56.6956L57.3929 166.809C57.3929 166.739 57.4627 166.67 57.4627 166.53C57.4627 166.46 57.4627 166.321 57.4627 166.251C57.4627 165.972 57.3929 165.693 57.1837 165.554C57.0443 165.414 56.7653 165.275 56.4864 165.275C56.3469 165.275 56.1377 165.345 55.9982 165.414C55.8587 165.484 55.6495 165.624 55.5101 165.693C55.3706 165.833 55.2311 165.972 55.1614 166.182C55.0219 166.391 54.9522 166.53 54.9522 166.739L54.2548 169.32H53.5575L54.2548 166.739C54.2548 166.67 54.3246 166.6 54.3246 166.46C54.3246 166.391 54.3246 166.251 54.3246 166.182C54.3246 165.903 54.2548 165.624 54.0456 165.484C53.9061 165.345 53.6272 165.205 53.3483 165.205C53.2088 165.205 52.9996 165.275 52.8601 165.345C52.7206 165.414 52.5812 165.554 52.372 165.624C52.2325 165.763 52.093 165.903 52.0233 166.112C51.8838 166.321 51.8141 166.46 51.7443 166.67L51.047 169.25H50.3496L51.8838 164.996Z" fill="white"/>
<path d="M59.9712 167.576V167.646C59.9712 168.064 60.1107 168.413 60.3199 168.622C60.5988 168.901 60.8778 168.971 61.2962 168.971C61.5751 168.971 61.8541 168.901 62.0633 168.831C62.2725 168.762 62.4817 168.622 62.6909 168.413L63.0396 168.831C62.8304 169.041 62.5514 169.18 62.2725 169.32C61.9935 169.459 61.6449 169.529 61.2264 169.529C60.9475 169.529 60.6686 169.459 60.3896 169.389C60.1107 169.32 59.9015 169.18 59.762 168.971C59.5528 168.831 59.4831 168.622 59.3436 168.343C59.2738 168.134 59.2041 167.855 59.2041 167.576C59.2041 167.227 59.2739 166.879 59.4133 166.53C59.5528 166.181 59.762 165.902 59.9712 165.623C60.1804 165.345 60.4594 165.135 60.808 164.996C61.1567 164.856 61.5054 164.717 61.8541 164.717C62.133 164.717 62.412 164.787 62.6212 164.856C62.8304 164.926 63.0396 165.066 63.1791 165.205C63.3185 165.345 63.458 165.554 63.5277 165.763C63.5975 165.972 63.6672 166.181 63.6672 166.46C63.6672 166.6 63.6672 166.739 63.5975 166.879C63.5975 167.018 63.5277 167.158 63.458 167.297H59.9015C59.9712 167.506 59.9712 167.576 59.9712 167.576ZM63.0396 167.018C63.0396 166.948 63.1093 166.809 63.1093 166.67C63.1093 166.53 63.1093 166.391 63.0396 166.251C62.9699 166.112 62.9001 165.972 62.8304 165.902C62.7607 165.763 62.6212 165.693 62.4817 165.623C62.3422 165.554 62.2028 165.554 61.9935 165.554C61.7843 165.554 61.5751 165.623 61.3659 165.693C61.1567 165.763 61.0173 165.902 60.808 166.042C60.6686 166.181 60.5291 166.321 60.3896 166.53C60.2502 166.739 60.1804 166.948 60.1107 167.158H63.0396V167.018Z" fill="white"/>
<path d="M69.037 169.458C68.6883 169.319 68.4094 169.179 68.2002 168.97C67.991 168.761 67.7818 168.482 67.6423 168.203C67.5028 167.924 67.4331 167.505 67.4331 167.157C67.4331 166.669 67.5028 166.18 67.712 165.692C67.9213 165.204 68.2002 164.855 68.4791 164.437C68.8278 164.088 69.1765 163.809 69.6646 163.6C70.0831 163.391 70.5712 163.251 71.1291 163.251C71.687 163.251 72.1752 163.391 72.5936 163.6C73.012 163.879 73.2909 164.158 73.5001 164.576L72.8725 164.925C72.6633 164.576 72.4541 164.367 72.1752 164.158C71.8962 163.949 71.5475 163.879 71.0594 163.879C70.641 163.879 70.2923 163.949 69.9436 164.158C69.5949 164.367 69.316 164.576 69.037 164.855C68.7581 165.134 68.5489 165.483 68.4094 165.832C68.2699 166.18 68.2002 166.599 68.2002 167.017C68.2002 167.296 68.2699 167.575 68.3397 167.854C68.4094 168.063 68.5489 168.272 68.7581 168.482C68.8976 168.621 69.1068 168.761 69.3857 168.83C69.5949 168.9 69.8739 168.97 70.1528 168.97C70.5712 168.97 70.9199 168.9 71.1989 168.761C71.4778 168.621 71.7567 168.412 72.0357 168.133L72.5238 168.621C72.3844 168.761 72.2449 168.9 72.0357 169.04C71.8962 169.179 71.687 169.249 71.4778 169.388C71.2686 169.458 71.0594 169.528 70.8502 169.597C70.641 169.667 70.362 169.667 70.0831 169.667C69.7344 169.667 69.3857 169.597 69.037 169.458Z" fill="white"/>
<path d="M75.0363 163.113H75.7336L75.0363 165.694C75.2455 165.484 75.4547 165.275 75.7336 165.136C76.0126 164.996 76.2915 164.926 76.6402 164.926C77.0586 164.926 77.4073 165.066 77.6863 165.275C77.9652 165.554 78.1047 165.903 78.1047 166.321C78.1047 166.461 78.1047 166.53 78.1047 166.67C78.1047 166.809 78.0349 166.879 78.0349 167.018L77.3376 169.529H76.6402L77.3376 166.949C77.3376 166.879 77.4073 166.809 77.4073 166.67C77.4073 166.6 77.4073 166.461 77.4073 166.391C77.4073 166.112 77.3376 165.833 77.1284 165.694C76.9192 165.554 76.7099 165.415 76.3613 165.415C76.1521 165.415 76.0126 165.484 75.8034 165.554C75.6639 165.624 75.4547 165.694 75.3152 165.833C75.1758 165.972 75.0363 166.112 74.8968 166.321C74.7573 166.53 74.6876 166.67 74.6179 166.879L73.9205 169.459H73.2231L75.0363 163.113Z" fill="white"/>
<path d="M79.6353 167.576V167.646C79.6353 168.064 79.7747 168.413 79.9839 168.622C80.2629 168.901 80.5418 168.971 80.9602 168.971C81.2392 168.971 81.5181 168.901 81.7273 168.831C81.9366 168.762 82.1458 168.622 82.355 168.413L82.7036 168.831C82.4944 169.041 82.2155 169.18 81.9365 169.32C81.6576 169.459 81.3089 169.529 80.8905 169.529C80.6116 169.529 80.3326 169.459 80.0537 169.389C79.7747 169.32 79.5655 169.18 79.426 168.971C79.2168 168.831 79.1471 168.622 79.0076 168.343C78.9379 168.134 78.8682 167.855 78.8682 167.576C78.8682 167.227 78.9379 166.879 79.0774 166.53C79.2168 166.181 79.4261 165.902 79.6353 165.623C79.8445 165.345 80.1234 165.135 80.4721 164.996C80.8208 164.856 81.1694 164.717 81.5181 164.717C81.7971 164.717 82.076 164.787 82.2852 164.856C82.4944 164.926 82.7036 165.066 82.8431 165.205C82.9826 165.345 83.1221 165.554 83.1918 165.763C83.2615 165.972 83.3313 166.181 83.3313 166.46C83.3313 166.6 83.3313 166.739 83.2615 166.879C83.2615 167.018 83.1918 167.158 83.1221 167.297H79.5655C79.6353 167.506 79.6353 167.576 79.6353 167.576ZM82.6339 167.018C82.6339 166.948 82.7036 166.809 82.7036 166.67C82.7036 166.53 82.7036 166.391 82.6339 166.251C82.5642 166.112 82.4944 165.972 82.4247 165.902C82.355 165.763 82.2155 165.693 82.076 165.623C81.9366 165.554 81.7971 165.554 81.5879 165.554C81.3787 165.554 81.1695 165.623 80.9602 165.693C80.751 165.763 80.6116 165.902 80.4023 166.042C80.2629 166.181 80.1234 166.321 79.9839 166.53C79.8445 166.739 79.7747 166.948 79.705 167.158H82.6339V167.018Z" fill="white"/>
<path d="M85.2179 165.554H84.5903L84.7298 164.926H85.3574L85.4969 164.368C85.6363 163.88 85.8455 163.601 86.0547 163.322C86.3337 163.113 86.6126 162.974 87.031 162.974C87.3797 162.974 87.6587 163.043 87.9376 163.183L87.7981 163.741C87.6587 163.671 87.5192 163.601 87.4495 163.601C87.31 163.601 87.2403 163.532 87.1008 163.532C86.8916 163.532 86.6824 163.601 86.5429 163.741C86.4034 163.88 86.264 164.089 86.1942 164.368L86.0547 164.787H87.5192L87.3797 165.414H85.9153L84.8692 169.389H84.1719L85.2179 165.554Z" fill="white"/>
<path d="M87.868 169.459C87.5193 169.319 87.2404 169.11 86.9614 168.831L87.3798 168.413C87.6588 168.622 87.868 168.831 88.1469 168.901C88.4259 168.971 88.7048 169.04 88.9838 169.04C89.1232 169.04 89.2627 169.04 89.3324 168.971C89.4719 168.971 89.5417 168.901 89.6811 168.831C89.7509 168.762 89.8206 168.692 89.8903 168.622C89.9601 168.552 89.9601 168.413 89.9601 168.343C89.9601 168.204 89.8903 168.064 89.7509 167.925C89.6114 167.785 89.4022 167.646 89.0535 167.576C88.6351 167.437 88.3561 167.227 88.0772 167.088C87.868 166.879 87.7285 166.669 87.7285 166.321C87.7285 166.112 87.7983 165.972 87.868 165.763C87.9377 165.623 88.0772 165.414 88.2167 165.344C88.3561 165.205 88.5653 165.135 88.7745 165.066C88.9838 164.996 89.193 164.926 89.4719 164.926C89.8206 164.926 90.0996 164.996 90.4482 165.135C90.7272 165.275 91.0061 165.414 91.1456 165.554L90.7272 166.042C90.518 165.902 90.3088 165.763 90.0996 165.693C89.8903 165.623 89.6114 165.554 89.4022 165.554C89.0535 165.554 88.8443 165.623 88.6351 165.763C88.4956 165.902 88.3561 166.042 88.3561 166.251C88.3561 166.321 88.3561 166.39 88.4259 166.46C88.4259 166.53 88.4956 166.6 88.5653 166.669C88.6351 166.739 88.7048 166.809 88.8443 166.879C88.9838 166.948 89.1232 167.018 89.2627 167.088C89.6811 167.227 89.9601 167.437 90.1693 167.576C90.3785 167.785 90.4482 167.994 90.4482 168.273C90.4482 168.483 90.3785 168.692 90.3088 168.831C90.239 169.04 90.0995 169.18 89.9601 169.25C89.8206 169.389 89.6114 169.459 89.4022 169.529C89.193 169.598 88.9838 169.668 88.7048 169.668C88.5654 169.598 88.2167 169.529 87.868 169.459Z" fill="white"/>
</svg>
