<svg width="59" height="59" viewBox="0 0 59 59" fill="none" xmlns="http://www.w3.org/2000/svg">
<circle cx="29.5" cy="29.5" r="29.5" fill="#D8AF49"/>
<path d="M43.5365 35.6973L42.5865 36.6538C42.2876 36.9525 41.8898 37.1171 41.4647 37.1171C41.0399 37.1171 40.6416 36.9525 40.3427 36.6538L29.5065 25.8172L18.6578 36.6658C18.3593 36.9646 17.9611 37.1289 17.5362 37.1289C17.1114 37.1289 16.7129 36.9646 16.4142 36.6658L15.464 35.7152C14.8453 35.097 14.8453 34.09 15.464 33.4718L28.3807 20.5087C28.6792 20.2102 29.0769 19.9999 29.5055 19.9999H29.5105C29.9356 19.9999 30.3333 20.2105 30.6318 20.5087L43.5365 33.4367C43.8354 33.7352 43.9995 34.1449 44 34.5698C44 34.9949 43.8354 35.399 43.5365 35.6973Z" fill="white"/>
</svg>
